<svg width="250" height="250" viewBox="0 0 250 250" fill="none" xmlns="http://www.w3.org/2000/svg">
<rect width="250" height="250" fill="white"/>
<g clip-path="url(#clip0_5471_324)">
<path d="M93.4072 218C77.6791 218 61.9423 212.013 49.9688 200.031C26.0133 176.076 26.0133 137.101 49.9688 113.146C54.58 108.543 62.0461 108.543 66.6486 113.146C71.2511 117.748 71.2598 125.223 66.6486 129.826C51.8894 144.576 51.8894 168.592 66.6486 183.343C81.3991 198.102 105.415 198.102 120.166 183.343L155.264 148.244C159.875 143.633 167.341 143.633 171.944 148.244C176.546 152.856 176.546 160.322 171.944 164.924L136.845 200.023C124.872 211.996 109.135 217.983 93.4072 217.991V218Z" fill="url(#paint0_linear_5471_324)"/>
<path d="M95.8641 179.692C82.3161 179.692 71.2856 168.67 71.2856 155.122C71.2856 141.574 82.3074 130.552 95.8554 130.552C109.403 130.552 120.434 141.574 120.434 155.122C120.434 168.67 109.412 179.692 95.8641 179.692Z" fill="url(#paint1_linear_5471_324)"/>
<path d="M155.602 33C171.33 33 187.066 38.9867 199.04 50.9688C222.995 74.9243 222.995 113.899 199.04 137.854C194.429 142.465 186.963 142.465 182.36 137.854C177.758 133.252 177.758 125.777 182.36 121.174C197.119 106.424 197.119 82.4077 182.36 67.6572C167.61 52.9067 143.594 52.9067 128.843 67.6572L93.7446 102.756C89.1421 107.358 81.6673 107.367 77.0648 102.756C72.4623 98.1445 72.4623 90.6784 77.0648 86.0759L112.155 50.9688C124.128 38.9867 139.865 33 155.602 33Z" fill="#3E3E3F"/>
<path d="M153.136 71.3081C166.684 71.3081 177.714 82.3299 177.714 95.8779C177.714 109.426 166.693 120.448 153.145 120.448C139.597 120.448 128.566 109.426 128.566 95.8779C128.566 82.3299 139.588 71.3081 153.136 71.3081Z" fill="#3E3E3F"/>
</g>
<defs>
<linearGradient id="paint0_linear_5471_324" x1="136.871" y1="79.1809" x2="67.0812" y2="230.562" gradientUnits="userSpaceOnUse">
<stop stop-color="#FFE7A3"/>
<stop offset="0.5" stop-color="#FFCA05"/>
<stop offset="1" stop-color="#FAAC18"/>
</linearGradient>
<linearGradient id="paint1_linear_5471_324" x1="131.923" y1="76.9055" x2="62.1412" y2="228.278" gradientUnits="userSpaceOnUse">
<stop stop-color="#FFE7A3"/>
<stop offset="0.5" stop-color="#FFCA05"/>
<stop offset="1" stop-color="#FAAC18"/>
</linearGradient>
<clipPath id="clip0_5471_324">
<rect width="185" height="185" fill="white" transform="translate(32 33)"/>
</clipPath>
</defs>
</svg>
