<svg width="528" height="265" viewBox="0 0 528 265" fill="none" xmlns="http://www.w3.org/2000/svg">
<path d="M490.341 245.25C483.487 245.25 478.259 243.096 474.655 238.788C471.091 234.48 469.309 228.193 469.309 219.93V210.824C469.309 202.481 471.111 196.136 474.714 191.789C478.357 187.403 483.722 185.209 490.811 185.209C494.219 185.209 497.136 185.758 499.565 186.854C502.032 187.912 504.03 189.42 505.557 191.378C507.124 193.336 508.24 195.647 508.906 198.31H512.724L509.493 208.944C509.376 205.81 508.69 203.186 507.437 201.071C506.184 198.917 504.46 197.292 502.267 196.195C500.074 195.099 497.509 194.55 494.571 194.55C490.145 194.55 486.758 195.823 484.408 198.369C482.058 200.915 480.883 204.694 480.883 209.707V220.693C480.883 225.589 482.038 229.31 484.349 231.855C486.699 234.401 490.106 235.674 494.571 235.674C497.274 235.674 499.643 235.165 501.68 234.147C503.755 233.128 505.479 231.738 506.849 229.975C508.22 228.213 509.16 226.235 509.669 224.042L512.372 232.149H509.023C508.397 234.538 507.339 236.732 505.851 238.729C504.402 240.726 502.424 242.313 499.917 243.488C497.411 244.663 494.219 245.25 490.341 245.25ZM520.714 243.958H509.199L509.669 230.504L509.493 226.862V203.01L509.552 200.778L509.258 184.504V166.175H520.714V243.958Z" fill="white"/>
<path d="M457.856 243.958H446.4L446.87 230.328L446.459 228.566V210.471L446.518 207.593C446.518 203.167 445.382 199.916 443.11 197.841C440.878 195.765 437.275 194.727 432.301 194.727C428.266 194.727 424.526 195.295 421.08 196.431C417.633 197.566 414.519 198.878 411.739 200.367L412.796 190.732C414.363 189.831 416.203 188.95 418.318 188.088C420.433 187.227 422.822 186.522 425.486 185.973C428.149 185.425 431.067 185.151 434.239 185.151C438.587 185.151 442.268 185.68 445.284 186.737C448.3 187.755 450.728 189.244 452.569 191.202C454.41 193.16 455.741 195.51 456.564 198.252C457.425 200.993 457.856 204.048 457.856 207.417V243.958ZM426.954 245.25C421.275 245.25 416.928 243.86 413.912 241.079C410.897 238.259 409.389 234.264 409.389 229.095V227.332C409.389 221.849 411.073 217.795 414.441 215.171C417.848 212.508 423.195 210.667 430.479 209.649L447.751 207.182L448.398 215.524L431.831 217.874C427.875 218.422 425.055 219.382 423.371 220.752C421.687 222.084 420.845 224.062 420.845 226.686V227.508C420.845 230.133 421.647 232.15 423.253 233.56C424.898 234.969 427.385 235.674 430.714 235.674C433.769 235.674 436.393 235.165 438.587 234.147C440.78 233.129 442.562 231.777 443.933 230.093C445.303 228.37 446.243 226.471 446.753 224.395L448.339 232.091H446.224C445.597 234.441 444.559 236.614 443.11 238.612C441.661 240.609 439.624 242.215 437 243.429C434.415 244.643 431.067 245.25 426.954 245.25Z" fill="white"/>
<path d="M378.845 245.309C369.68 245.309 362.807 243.135 358.224 238.788C353.681 234.401 351.41 228.095 351.41 219.871V210.471C351.41 202.364 353.524 196.097 357.754 191.671C362.023 187.207 368.231 184.974 376.378 184.974C381.9 184.974 386.502 185.992 390.183 188.029C393.865 190.026 396.626 192.866 398.467 196.548C400.308 200.229 401.228 204.596 401.228 209.648V211.822C401.228 213.154 401.169 214.505 401.052 215.876C400.934 217.247 400.778 218.559 400.582 219.812H390.007C390.086 217.775 390.125 215.856 390.125 214.055C390.164 212.253 390.183 210.608 390.183 209.12C390.183 205.947 389.674 203.264 388.656 201.071C387.638 198.878 386.11 197.213 384.074 196.078C382.037 194.903 379.472 194.315 376.378 194.315C371.795 194.315 368.388 195.627 366.155 198.251C363.923 200.836 362.807 204.537 362.807 209.355V214.76L362.865 216.111V221.222C362.865 223.376 363.179 225.334 363.805 227.097C364.471 228.859 365.509 230.387 366.919 231.679C368.368 232.932 370.229 233.911 372.5 234.616C374.772 235.282 377.533 235.615 380.784 235.615C384.465 235.615 387.912 235.145 391.123 234.205C394.374 233.265 397.429 232.012 400.288 230.445L399.231 240.256C396.646 241.784 393.63 243.017 390.183 243.957C386.776 244.858 382.997 245.309 378.845 245.309ZM398.232 219.812H357.519V211.176H398.232V219.812Z" fill="white"/>
<path d="M339.773 243.958H328.258V208.474C328.258 205.693 327.866 203.284 327.083 201.248C326.339 199.211 325.086 197.625 323.323 196.489C321.6 195.353 319.23 194.785 316.215 194.785C313.434 194.785 311.025 195.294 308.989 196.313C306.991 197.331 305.366 198.702 304.113 200.425C302.859 202.148 301.958 204.107 301.41 206.3L299.119 198.31H301.998C302.663 195.882 303.76 193.689 305.288 191.73C306.815 189.733 308.852 188.147 311.397 186.972C313.943 185.797 317.057 185.209 320.738 185.209C325.242 185.209 328.885 186.071 331.666 187.794C334.446 189.478 336.483 191.946 337.775 195.196C339.107 198.447 339.773 202.442 339.773 207.181V243.958ZM301.704 243.958H290.189V166.175H301.645V184.504L301.351 201.071L301.704 201.894V243.958Z" fill="white"/>
<path d="M256.943 209.237L254.476 200.249H257.296C258.51 195.706 260.546 192.142 263.405 189.557C266.265 186.933 270.162 185.621 275.096 185.621C276.271 185.621 277.309 185.719 278.21 185.914C279.15 186.071 279.992 186.267 280.736 186.502L281.441 197.723C280.501 197.409 279.444 197.174 278.269 197.018C277.094 196.822 275.821 196.724 274.45 196.724C270.259 196.724 266.637 197.801 263.582 199.955C260.527 202.109 258.314 205.203 256.943 209.237ZM257.413 243.958H245.898V186.502H257.119L256.591 203.245L257.413 204.068V243.958Z" fill="white"/>
<path d="M232.272 243.958H220.816L221.286 230.328L220.875 228.566V210.471L220.933 207.593C220.933 203.167 219.797 199.916 217.526 197.841C215.293 195.765 211.69 194.727 206.716 194.727C202.682 194.727 198.942 195.295 195.495 196.431C192.049 197.566 188.935 198.878 186.154 200.367L187.212 190.732C188.778 189.831 190.619 188.95 192.734 188.088C194.849 187.227 197.238 186.522 199.901 185.973C202.565 185.425 205.482 185.151 208.655 185.151C213.002 185.151 216.684 185.68 219.7 186.737C222.715 187.755 225.144 189.244 226.984 191.202C228.825 193.16 230.157 195.51 230.979 198.252C231.841 200.993 232.272 204.048 232.272 207.417V243.958ZM201.37 245.25C195.691 245.25 191.344 243.86 188.328 241.079C185.312 238.259 183.804 234.264 183.804 229.095V227.332C183.804 221.849 185.488 217.795 188.857 215.171C192.264 212.508 197.61 210.667 204.895 209.649L222.167 207.182L222.813 215.524L206.246 217.874C202.29 218.422 199.471 219.382 197.786 220.752C196.102 222.084 195.26 224.062 195.26 226.686V227.508C195.26 230.133 196.063 232.15 197.669 233.56C199.314 234.969 201.801 235.674 205.13 235.674C208.185 235.674 210.809 235.165 213.002 234.147C215.196 233.129 216.978 231.777 218.348 230.093C219.719 228.37 220.659 226.471 221.168 224.395L222.754 232.091H220.64C220.013 234.441 218.975 236.614 217.526 238.612C216.077 240.609 214.04 242.215 211.416 243.429C208.831 244.643 205.482 245.25 201.37 245.25Z" fill="white"/>
<path d="M153.261 245.309C144.096 245.309 137.222 243.135 132.64 238.788C128.097 234.401 125.825 228.095 125.825 219.871V210.471C125.825 202.364 127.94 196.097 132.17 191.671C136.439 187.207 142.647 184.974 150.793 184.974C156.316 184.974 160.918 185.992 164.599 188.029C168.281 190.026 171.042 192.866 172.883 196.548C174.723 200.229 175.644 204.596 175.644 209.648V211.822C175.644 213.154 175.585 214.505 175.468 215.876C175.35 217.247 175.193 218.559 174.998 219.812H164.423C164.501 217.775 164.54 215.856 164.54 214.055C164.58 212.253 164.599 210.608 164.599 209.12C164.599 205.947 164.09 203.264 163.072 201.071C162.053 198.878 160.526 197.213 158.489 196.078C156.453 194.903 153.887 194.315 150.793 194.315C146.211 194.315 142.803 195.627 140.571 198.251C138.339 200.836 137.222 204.537 137.222 209.355V214.76L137.281 216.111V221.222C137.281 223.376 137.594 225.334 138.221 227.097C138.887 228.859 139.925 230.387 141.335 231.679C142.784 232.932 144.644 233.911 146.916 234.616C149.187 235.282 151.949 235.615 155.199 235.615C158.881 235.615 162.327 235.145 165.539 234.205C168.79 233.265 171.845 232.012 174.704 230.445L173.646 240.256C171.061 241.784 168.046 243.017 164.599 243.957C161.192 244.858 157.412 245.309 153.261 245.309ZM172.648 219.812H131.935V211.176H172.648V219.812Z" fill="white"/>
<path d="M94.1635 245.25C90.7561 245.25 87.8186 244.722 85.3512 243.664C82.9229 242.567 80.9451 241.04 79.4176 239.082C77.8902 237.084 76.774 234.773 76.069 232.149H72.2503L75.4815 221.281C75.599 224.493 76.2844 227.175 77.5377 229.329C78.791 231.444 80.5143 233.031 82.7075 234.088C84.94 235.146 87.5053 235.674 90.4036 235.674C94.8293 235.674 98.2171 234.401 100.567 231.856C102.917 229.271 104.092 225.491 104.092 220.517V209.531C104.092 204.636 102.917 200.915 100.567 198.369C98.2563 195.823 94.8684 194.55 90.4036 194.55C87.7403 194.55 85.3708 195.06 83.295 196.078C81.2192 197.096 79.496 198.487 78.1252 200.249C76.7935 201.972 75.8536 203.95 75.3052 206.183L72.6028 198.31H75.9515C76.6173 195.882 77.6748 193.689 79.1239 191.731C80.573 189.733 82.5509 188.147 85.0575 186.972C87.6032 185.797 90.7952 185.209 94.6335 185.209C101.487 185.209 106.696 187.364 110.261 191.672C113.864 195.98 115.665 202.266 115.665 210.53V219.636C115.665 227.978 113.864 234.343 110.261 238.729C106.657 243.077 101.292 245.25 94.1635 245.25ZM75.7165 264.167H64.2606V186.502H75.7752L75.3052 199.955L75.4815 203.363V227.45L75.4227 229.682L75.7165 245.955V264.167Z" fill="white"/>
<path d="M25.1443 245.368C21.5802 245.368 18.2903 245.094 15.2746 244.546C12.2588 243.997 9.5564 243.312 7.1673 242.489C4.81736 241.667 2.81992 240.844 1.17497 240.022L0.0587482 228.449C3.0745 230.172 6.63856 231.699 10.7509 233.031C14.9025 234.363 19.387 235.028 24.2043 235.028C29.6875 235.028 33.7215 234.128 36.3065 232.326C38.8914 230.485 40.1839 227.724 40.1839 224.042V223.161C40.1839 220.772 39.6551 218.814 38.5977 217.286C37.5794 215.72 35.8365 214.388 33.3691 213.291C30.9016 212.156 27.553 211.079 23.3231 210.06C17.7616 208.69 13.2575 207.084 9.81097 205.243C6.40357 203.363 3.91656 201.033 2.34993 198.252C0.783311 195.432 0 191.927 0 187.736V187.148C0 180.843 2.09536 175.986 6.28607 172.579C10.4768 169.171 16.7629 167.468 25.1443 167.468C30.51 167.468 35.0923 167.997 38.8914 169.054C42.7296 170.072 45.8824 171.228 48.3499 172.52L49.4073 183.271C46.5483 181.626 43.2584 180.255 39.5376 179.159C35.8169 178.023 31.6262 177.455 26.9655 177.455C23.3231 177.455 20.4053 177.866 18.212 178.689C16.0187 179.472 14.4325 180.627 13.4534 182.155C12.4742 183.643 11.9847 185.445 11.9847 187.56V187.795C11.9847 189.988 12.4742 191.868 13.4534 193.435C14.4325 195.001 16.1558 196.392 18.6232 197.606C21.1298 198.781 24.6743 199.956 29.2567 201.131C34.7007 202.501 39.0872 204.048 42.4163 205.772C45.7845 207.456 48.252 209.669 49.8186 212.41C51.3852 215.113 52.1685 218.677 52.1685 223.102V224.277C52.1685 231.21 49.9165 236.458 45.4125 240.022C40.9084 243.586 34.1524 245.368 25.1443 245.368Z" fill="white"/>
<path d="M303.66 148.698H292.145V70.9155H303.66V148.698Z" fill="white"/>
<path d="M278.283 148.698H266.828L267.298 135.069L266.886 133.306V115.212L266.945 112.333C266.945 107.907 265.809 104.657 263.538 102.581C261.305 100.505 257.702 99.4671 252.728 99.4671C248.694 99.4671 244.954 100.035 241.507 101.171C238.06 102.307 234.947 103.619 232.166 105.107L233.224 95.4722C234.79 94.5714 236.631 93.6902 238.746 92.8285C240.861 91.9669 243.25 91.2619 245.913 90.7136C248.576 90.1653 251.494 89.8911 254.667 89.8911C259.014 89.8911 262.696 90.4198 265.711 91.4773C268.727 92.4956 271.155 93.9839 272.996 95.9422C274.837 97.9005 276.169 100.25 276.991 102.992C277.853 105.734 278.283 108.788 278.283 112.157V148.698ZM247.382 149.991C241.703 149.991 237.355 148.6 234.34 145.82C231.324 143 229.816 139.005 229.816 133.835V132.072C229.816 126.589 231.5 122.536 234.868 119.912C238.276 117.248 243.622 115.407 250.907 114.389L268.179 111.922L268.825 120.264L252.258 122.614C248.302 123.162 245.482 124.122 243.798 125.493C242.114 126.824 241.272 128.802 241.272 131.426V132.249C241.272 134.873 242.075 136.89 243.681 138.3C245.326 139.71 247.813 140.415 251.142 140.415C254.197 140.415 256.821 139.906 259.014 138.887C261.207 137.869 262.989 136.518 264.36 134.834C265.731 133.11 266.671 131.211 267.18 129.135L268.766 136.831H266.651C266.025 139.181 264.987 141.355 263.538 143.352C262.089 145.35 260.052 146.955 257.428 148.169C254.843 149.384 251.494 149.991 247.382 149.991Z" fill="white"/>
<path d="M207.846 149.873C203.264 149.873 199.582 149.188 196.801 147.817C194.021 146.407 192.004 144.312 190.75 141.531C189.497 138.711 188.87 135.206 188.87 131.015V95.8834H200.268V129.664C200.268 133.189 201.07 135.774 202.676 137.419C204.282 139.063 206.984 139.886 210.783 139.886C213.055 139.886 215.229 139.651 217.305 139.181C219.38 138.711 221.299 138.045 223.062 137.184L222.063 146.936C220.183 147.876 218.009 148.6 215.542 149.109C213.075 149.619 210.509 149.873 207.846 149.873ZM221.534 101.112H179.882V91.9473H222.533L221.534 101.112ZM199.974 92.946H188.988L188.929 77.1427L200.444 75.7915L199.974 92.946Z" fill="white"/>
<path d="M171.762 148.698H160.247V91.2423H171.762V148.698ZM166.004 82.7825C163.733 82.7825 162.029 82.2146 160.893 81.0788C159.797 79.9038 159.248 78.298 159.248 76.2614V76.0264C159.248 73.9898 159.797 72.4036 160.893 71.2678C162.029 70.0929 163.733 69.5054 166.004 69.5054C168.276 69.5054 169.96 70.0929 171.057 71.2678C172.193 72.4036 172.761 73.9898 172.761 76.0264V76.2614C172.761 78.3372 172.193 79.943 171.057 81.0788C169.96 82.2146 168.276 82.7825 166.004 82.7825Z" fill="white"/>
<path d="M122.345 131.308C114.277 131.308 108.089 129.585 103.781 126.139C99.4726 122.692 97.3185 117.777 97.3185 111.393V110.453C97.3185 106.419 98.1606 102.933 99.8447 99.9956C101.529 97.019 104.212 94.7082 107.893 93.0633C111.614 91.3792 116.47 90.4392 122.463 90.2434L152.307 89.2446V98.2331L136.327 97.5281V98.1744C138.599 98.7619 140.479 99.6823 141.967 100.936C143.495 102.15 144.65 103.677 145.433 105.518C146.217 107.359 146.608 109.532 146.608 112.039V112.685C146.608 118.717 144.552 123.338 140.44 126.55C136.367 129.722 130.335 131.308 122.345 131.308ZM121.875 161.681H123.344C126.673 161.681 129.493 161.446 131.804 160.976C134.115 160.506 135.877 159.762 137.091 158.744C138.344 157.726 138.971 156.374 138.971 154.69V154.514C138.971 152.517 138.266 151.009 136.856 149.99C135.446 149.011 132.998 148.365 129.513 148.052L112.946 146.466L115.824 146.348C113.944 146.661 112.28 147.151 110.831 147.817C109.421 148.443 108.304 149.266 107.482 150.284C106.699 151.342 106.307 152.634 106.307 154.162V154.279C106.307 156.081 106.914 157.53 108.128 158.626C109.382 159.723 111.164 160.506 113.474 160.976C115.824 161.446 118.625 161.681 121.875 161.681ZM123.109 170.846H121.17C115.883 170.846 111.32 170.376 107.482 169.436C103.683 168.535 100.745 167.067 98.6697 165.03C96.6331 163.033 95.6148 160.369 95.6148 157.04V156.805C95.6148 154.573 96.1044 152.693 97.0835 151.165C98.1018 149.638 99.4726 148.424 101.196 147.523C102.958 146.583 104.917 145.956 107.071 145.643V145.056C104.212 144.468 102.077 143.509 100.667 142.177C99.2964 140.806 98.611 139.044 98.611 136.89V136.831C98.611 135.342 98.9439 134.07 99.6097 133.012C100.276 131.916 101.274 131.054 102.606 130.427C103.977 129.761 105.68 129.331 107.717 129.135V127.842L119.819 130.78L115.413 130.603C113.102 130.643 111.496 130.936 110.596 131.485C109.734 132.033 109.303 132.816 109.303 133.835V133.893C109.303 135.068 109.949 135.95 111.242 136.537C112.573 137.085 114.806 137.536 117.939 137.888L131.921 139.416C138.109 140.082 142.633 141.589 145.492 143.939C148.351 146.289 149.781 149.853 149.781 154.632V154.925C149.781 158.607 148.704 161.623 146.55 163.973C144.435 166.322 141.38 168.046 137.385 169.142C133.429 170.278 128.671 170.846 123.109 170.846ZM122.169 122.849C125.185 122.849 127.691 122.418 129.689 121.556C131.725 120.655 133.253 119.324 134.271 117.561C135.29 115.799 135.799 113.645 135.799 111.099V110.218C135.799 107.711 135.29 105.596 134.271 103.873C133.292 102.15 131.804 100.838 129.806 99.9368C127.848 99.036 125.361 98.5856 122.345 98.5856H122.052C118.801 98.5856 116.157 99.0752 114.121 100.054C112.084 100.994 110.596 102.346 109.656 104.108C108.755 105.831 108.304 107.887 108.304 110.277V111.099C108.304 113.645 108.814 115.799 109.832 117.561C110.85 119.324 112.378 120.655 114.414 121.556C116.49 122.418 119.075 122.849 122.169 122.849Z" fill="white"/>
<path d="M84.557 148.698H73.0424V91.2423H84.557V148.698ZM78.7997 82.7825C76.5281 82.7825 74.8244 82.2146 73.6886 81.0788C72.592 79.9038 72.0436 78.298 72.0436 76.2614V76.0264C72.0436 73.9898 72.592 72.4036 73.6886 71.2678C74.8244 70.0929 76.5281 69.5054 78.7997 69.5054C81.0713 69.5054 82.7554 70.0929 83.8521 71.2678C84.9879 72.4036 85.5558 73.9898 85.5558 76.0264V76.2614C85.5558 78.3372 84.9879 79.943 83.8521 81.0788C82.7554 82.2146 81.0713 82.7825 78.7997 82.7825Z" fill="white"/>
<path d="M29.9616 148.698H11.7496V138.77H29.5503C35.7385 138.77 40.3796 137.085 43.4737 133.717C46.6069 130.349 48.1736 125.532 48.1736 119.265V102.933C48.1736 96.6274 46.6069 91.8101 43.4737 88.481C40.3796 85.1128 35.7385 83.4286 29.5503 83.4286H11.6909V73.6177H29.9616C39.9096 73.6177 47.4098 76.1439 52.4622 81.1962C57.5146 86.2094 60.0407 93.4355 60.0407 102.874V119.324C60.0407 128.763 57.5146 136.028 52.4622 141.12C47.4098 146.172 39.9096 148.698 29.9616 148.698ZM15.3333 148.698H3.70108V73.6177H15.3333V148.698Z" fill="white"/>
<g clip-path="url(#clip0_1115_35)">
<path opacity="0.9" d="M528 81.679L413.642 163.36V-0.000488281L528 81.679Z" fill="#00ABF0"/>
<path opacity="0.14" d="M487.016 83.941L413.642 136.342V31.5254L487.016 83.941Z" fill="#231F20"/>
<path opacity="0.9" d="M479.264 81.679L364.905 163.36V-0.000488281L479.264 81.679Z" fill="#FF9C00"/>
<path opacity="0.9" d="M320.082 91.4653V144.468L357.185 117.966L320.082 91.4653Z" fill="#00ABF0"/>
<path opacity="0.14" d="M393.586 61.1923L364.905 81.6794V40.7041L393.586 61.1923Z" fill="#231F20"/>
<path opacity="0.9" d="M340.022 24.7778V95.8956L389.805 60.3362L340.022 24.7778Z" fill="#00ABF0"/>
</g>
<defs>
<clipPath id="clip0_1115_35">
<rect width="253.251" height="163.36" fill="white" transform="translate(274.749)"/>
</clipPath>
</defs>
</svg>
