<svg width="528" height="167" viewBox="0 0 528 167" fill="none" xmlns="http://www.w3.org/2000/svg">
<g clip-path="url(#clip0_5556_338)">
<path d="M99.2694 154.11C105.543 154.11 111.594 153.155 117.288 151.38C105 160.844 89.6126 166.471 72.9201 166.471C32.6485 166.471 0 133.737 0 93.3629V0C18.144 0 33.3667 12.5243 37.5415 29.4224C48.0188 23.5817 60.0852 20.2559 72.9201 20.2559C89.6126 20.2559 105 25.878 117.288 35.3423C111.596 33.5692 105.543 32.612 99.2694 32.612C65.8021 32.612 38.6741 59.8122 38.6741 93.3612C38.6741 126.91 65.8004 154.11 99.2694 154.11Z" fill="#63ECAE"/>
<path d="M145.844 93.5385V93.7269C145.844 94.0903 145.839 94.4503 145.83 94.8103C145.825 94.9247 145.822 95.034 145.822 95.1433C145.005 121.529 123.414 142.66 96.907 142.66C83.5402 142.66 71.4201 137.289 62.5889 128.571C64.8508 129.027 67.1899 129.259 69.5827 129.259C89.3627 129.259 105.398 113.184 105.398 93.3534C105.398 73.5231 89.3627 57.4476 69.5827 57.4476C67.408 57.4476 65.2787 57.6411 63.2097 58.0179C71.9839 49.6639 83.8506 44.5381 96.907 44.5381C123.907 44.5381 145.808 66.4678 145.844 93.5368V93.5385Z" fill="#3ED08E"/>
</g>
<path d="M484.17 105.727V43.1793C484.17 42.5806 484.469 42.2663 485.068 42.2363H491.534C492.132 42.2363 492.432 42.5506 492.432 43.1793V78.5614H497.057C502.086 78.5614 506.067 76.2715 509 71.6915L517.352 58.3559C517.771 57.7572 518.235 57.4429 518.744 57.4129H525.838C526.766 57.4129 526.976 57.7871 526.467 58.5355L517.711 72.5896C514.538 77.6784 510.707 80.5969 506.216 81.3453C510.886 82.0338 515.032 85.2517 518.654 90.9991L527.769 105.502C527.949 105.772 528.023 106.026 527.994 106.265C527.994 106.505 527.694 106.625 527.095 106.625H520.046C519.567 106.625 519.103 106.325 518.654 105.727L509.898 91.8971C506.965 87.2872 502.984 84.9973 497.955 85.0272H492.432V105.727C492.432 106.325 492.132 106.625 491.534 106.625H485.068C484.469 106.625 484.17 106.325 484.17 105.727Z" fill="#021C10"/>
<path d="M433.247 103.839C429.804 101.026 428.083 97.2089 428.083 92.3895C428.083 87.5402 429.849 83.7236 433.381 80.9397C436.944 78.1259 441.913 76.719 448.289 76.719H463.959V76.27C463.959 67.0802 459.349 62.4853 450.129 62.4853C447.256 62.4853 444.801 63.1738 442.766 64.5508C440.76 65.9278 439.383 67.6939 438.635 69.8491C438.455 70.4478 438.096 70.7472 437.557 70.7472H431.765C431.076 70.7472 430.762 70.4478 430.822 69.8491C431.301 65.6883 433.277 62.3506 436.749 59.8362C440.221 57.3217 444.681 56.0645 450.129 56.0645C457.254 56.0645 462.717 57.8306 466.518 61.3628C470.32 64.8651 472.221 69.8342 472.221 76.27V105.725C472.221 106.324 471.907 106.623 471.278 106.623H466.249C465.65 106.623 465.306 106.324 465.216 105.725L464.408 100.651C464.049 101.22 463.256 102.013 462.028 103.031C460.801 104.019 459.574 104.827 458.346 105.456C455.114 107.162 451.462 108.015 447.391 108.015C441.434 108.015 436.719 106.623 433.247 103.839ZM436.345 92.3895C436.345 95.383 437.333 97.658 439.308 99.2145C441.314 100.771 444.158 101.549 447.84 101.549C449.815 101.549 451.716 101.22 453.542 100.562C455.398 99.8731 456.91 99.0798 458.077 98.1818C459.274 97.2538 460.337 96.3109 461.265 95.353C462.193 94.3951 462.866 93.6019 463.286 92.9733C463.735 92.3147 463.959 91.9555 463.959 91.8956V83.1848H448.289C440.326 83.1848 436.345 86.253 436.345 92.3895Z" fill="#021C10"/>
<path d="M397.859 108.105C391.184 108.105 385.646 105.845 381.246 101.325C376.876 96.7749 374.69 90.3241 374.69 81.9725C374.69 73.5909 376.876 67.185 381.246 62.7547C385.646 58.2945 391.379 56.0645 398.443 56.0645C405.538 56.0645 411.315 58.3394 415.775 62.8894C420.265 67.4095 422.51 73.4113 422.51 80.8948V83.1848C422.51 84.4121 421.897 85.0257 420.669 85.0257H383.042C383.551 90.5935 385.197 94.7543 387.981 97.5083C390.765 100.262 394.297 101.639 398.578 101.639C405.343 101.639 410.252 98.8853 413.305 93.3774C413.665 92.7787 414.039 92.4793 414.428 92.4793H420.22C420.999 92.4793 421.298 92.8386 421.118 93.557C419.891 97.9872 417.377 101.519 413.575 104.154C409.773 106.788 404.535 108.105 397.859 108.105ZM383.042 78.56H414.248C413.979 73.7406 412.333 69.8641 409.309 66.9306C406.286 63.9671 402.679 62.4853 398.488 62.4853C394.327 62.4853 390.84 63.8473 388.026 66.5713C385.212 69.2953 383.551 73.2916 383.042 78.56Z" fill="#021C10"/>
<path d="M340.605 105.726V58.3556C340.605 57.727 340.904 57.4127 341.503 57.4127H346.577C347.176 57.4127 347.505 57.727 347.565 58.3556L348.418 66.1684L349.136 65.1357C349.466 64.7166 350.214 63.9383 351.381 62.8008C352.579 61.6633 353.896 60.6905 355.333 59.8822C356.799 59.0441 358.715 58.2808 361.08 57.5923C363.475 56.8739 365.989 56.5146 368.623 56.5146H372.305C372.934 56.5146 373.248 56.814 373.248 57.4127V62.9355C373.248 63.5641 372.934 63.8785 372.305 63.8785H369.566C366.573 63.8785 363.819 64.2676 361.304 65.0459C358.79 65.7942 356.784 66.7072 355.288 67.7849C352.264 70 350.304 71.9756 349.406 73.7118L348.867 74.8793V105.726C348.867 106.325 348.567 106.624 347.969 106.624H341.503C340.904 106.624 340.605 106.325 340.605 105.726Z" fill="#021C10"/>
<path d="M285.865 102.494V43.1793C285.865 42.5806 286.165 42.2663 286.763 42.2363H293.229C293.828 42.2363 294.127 42.5506 294.127 43.1793V58.8049C298.108 56.9789 302.703 56.0659 307.912 56.0659C314.827 56.0659 320.469 58.311 324.839 62.8011C329.21 67.2613 331.395 73.6672 331.395 82.0188C331.395 90.3405 329.195 96.7614 324.795 101.281C320.424 105.772 314.647 108.017 307.463 108.017C303.541 108.017 299.77 107.553 296.148 106.625C292.526 105.697 289.891 104.784 288.245 103.886L285.865 102.494ZM294.127 98.8119C294.127 98.8717 294.651 99.1262 295.699 99.5752C296.746 99.9943 298.303 100.428 300.368 100.877C302.464 101.326 304.529 101.551 306.565 101.551C311.653 101.551 315.68 99.9194 318.643 96.6566C321.607 93.3639 323.088 88.4696 323.088 81.9739C323.088 75.4782 321.622 70.6139 318.688 67.381C315.754 64.1182 311.923 62.4868 307.193 62.4868C302.464 62.4868 298.108 63.3998 294.127 65.2258V98.8119Z" fill="#021C10"/>
<path d="M251.959 108.105C245.284 108.105 239.746 105.845 235.346 101.325C230.975 96.7749 228.79 90.3241 228.79 81.9725C228.79 73.5909 230.975 67.185 235.346 62.7547C239.746 58.2945 245.478 56.0645 252.543 56.0645C259.637 56.0645 265.414 58.3394 269.875 62.8894C274.365 67.4095 276.61 73.4113 276.61 80.8948V83.1848C276.61 84.4121 275.996 85.0257 274.769 85.0257H237.142C237.651 90.5935 239.297 94.7543 242.081 97.5083C244.865 100.262 248.397 101.639 252.677 101.639C259.443 101.639 264.352 98.8853 267.405 93.3774C267.764 92.7787 268.138 92.4793 268.528 92.4793H274.32C275.098 92.4793 275.398 92.8386 275.218 93.557C273.991 97.9872 271.476 101.519 267.675 104.154C263.873 106.788 258.634 108.105 251.959 108.105ZM237.142 78.56H268.348C268.079 73.7406 266.432 69.8641 263.409 66.9306C260.386 63.9671 256.778 62.4853 252.588 62.4853C248.427 62.4853 244.94 63.8473 242.126 66.5713C239.312 69.2953 237.651 73.2916 237.142 78.56Z" fill="#021C10"/>
<path d="M210.825 44.0773C210.825 42.85 211.438 42.2363 212.666 42.2363H218.638C219.326 42.2363 219.805 42.386 220.074 42.6853C220.344 42.9547 220.478 43.4187 220.478 44.0773V50.0491C220.478 50.7376 220.344 51.2166 220.074 51.486C219.805 51.7554 219.326 51.8901 218.638 51.8901H212.666C212.007 51.8901 211.528 51.7554 211.229 51.486C210.959 51.2166 210.825 50.7376 210.825 50.0491V44.0773ZM211.498 105.727V58.3559C211.498 57.7273 211.798 57.4129 212.396 57.4129H218.817C219.446 57.4129 219.76 57.7273 219.76 58.3559V105.727C219.76 106.325 219.446 106.625 218.817 106.625H212.396C211.798 106.625 211.498 106.325 211.498 105.727Z" fill="#021C10"/>
<path d="M174 87.7662V43.1793C174 42.5506 174.299 42.2363 174.898 42.2363H181.364C181.962 42.2363 182.262 42.5506 182.262 43.1793V57.4129H201.031C201.629 57.4129 201.929 57.7273 201.929 58.3559V62.9358C201.929 63.5644 201.629 63.8787 201.031 63.8787H182.262V87.7662C182.262 92.3162 183.31 95.7586 185.405 98.0935C187.53 100.398 190.464 101.551 194.206 101.551C197.498 101.551 200.447 101.102 203.051 100.204L204.353 99.7099C204.952 99.4704 205.251 99.7249 205.251 100.473V104.963C205.251 105.472 204.952 105.876 204.353 106.176C201.27 107.403 197.588 108.017 193.308 108.017C187.411 108.017 182.711 106.161 179.209 102.449C175.736 98.737 174 93.8428 174 87.7662Z" fill="#021C10"/>
<path d="M186.418 151.554C184.851 151.554 183.401 151.268 182.067 150.696C180.754 150.104 179.611 149.288 178.637 148.251C177.663 147.192 176.911 145.954 176.382 144.535C175.853 143.095 175.588 141.518 175.588 139.803C175.588 138.088 175.853 136.521 176.382 135.102C176.911 133.663 177.652 132.424 178.605 131.387C179.579 130.328 180.722 129.513 182.035 128.941C183.369 128.348 184.819 128.052 186.386 128.052C188.101 128.052 189.636 128.401 190.991 129.1C192.368 129.799 193.49 130.783 194.358 132.053C195.247 133.324 195.798 134.806 196.009 136.5H193.405C193.151 134.615 192.399 133.133 191.15 132.053C189.922 130.952 188.345 130.402 186.418 130.402C184.788 130.402 183.359 130.804 182.13 131.609C180.902 132.392 179.95 133.493 179.272 134.912C178.595 136.309 178.256 137.94 178.256 139.803C178.256 141.666 178.595 143.307 179.272 144.726C179.95 146.123 180.902 147.224 182.13 148.029C183.359 148.812 184.777 149.204 186.386 149.204C188.355 149.204 189.965 148.653 191.214 147.552C192.484 146.451 193.236 144.969 193.469 143.106H196.073C195.861 144.8 195.311 146.282 194.421 147.552C193.553 148.823 192.431 149.807 191.055 150.506C189.7 151.205 188.154 151.554 186.418 151.554ZM200.272 151.236V128.369H208.72C210.35 128.369 211.737 128.634 212.881 129.163C214.024 129.693 214.892 130.434 215.485 131.387C216.099 132.318 216.406 133.43 216.406 134.721C216.406 136.013 216.099 137.146 215.485 138.12C214.892 139.072 214.024 139.824 212.881 140.375C211.737 140.904 210.35 141.169 208.72 141.169H202.178V138.882H208.625C210.319 138.882 211.6 138.511 212.468 137.77C213.357 137.029 213.802 136.013 213.802 134.721C213.802 133.451 213.368 132.456 212.499 131.736C211.631 131.016 210.34 130.656 208.625 130.656H202.876V151.236H200.272ZM213.675 151.236L201.511 139.898H205.068L217.613 151.236H213.675ZM221.114 151.236V128.369H223.719V151.236H221.114ZM222.448 151.236V148.95H236.422V151.236H222.448ZM222.448 140.47V138.183H235.279V140.47H222.448ZM222.448 130.656V128.369H236.168V130.656H222.448ZM239.004 151.236L247.833 128.369H250.12L241.513 151.236H239.004ZM257.17 151.236L248.564 128.369H251.009L259.838 151.236H257.17ZM243.387 141.994H255.328V144.281H243.387V141.994ZM266.016 151.236V130.656H258.171V128.369H276.465V130.656H268.62V151.236H266.016ZM280.353 151.236V128.369H282.958V151.236H280.353ZM295.659 151.236L286.829 128.369H289.624L297.818 150.093H296.866L305.028 128.369H307.664L298.835 151.236H295.659ZM311.524 151.236V128.369H314.128V151.236H311.524ZM312.858 151.236V148.95H326.832V151.236H312.858ZM312.858 140.47V138.183H325.689V140.47H312.858ZM312.858 130.656V128.369H326.578V130.656H312.858ZM344.392 151.236V130.656H336.547V128.369H354.841V130.656H346.996V151.236H344.392ZM358.729 151.236V128.369H361.333V151.236H358.729ZM360.063 151.236V148.95H374.037V151.236H360.063ZM360.063 140.47V138.183H372.894V140.47H360.063ZM360.063 130.656V128.369H373.783V130.656H360.063ZM376.619 151.236L385.448 128.369H387.735L379.128 151.236H376.619ZM394.785 151.236L386.178 128.369H388.624L397.453 151.236H394.785ZM381.002 141.994H392.943V144.281H381.002V141.994ZM401.313 151.236V128.369H405.315L413.572 150.411H412.366L420.56 128.369H424.625V151.236H422.052V129.735H422.402L414.43 151.236H411.317L403.346 129.926H403.695V151.236H401.313Z" fill="#63ECAE"/>
<defs>
<clipPath id="clip0_5556_338">
<rect width="145.843" height="166.471" fill="white"/>
</clipPath>
</defs>
</svg>
