<svg width="70" height="70" viewBox="0 0 70 70" fill="none" xmlns="http://www.w3.org/2000/svg">
<g id="Benefits">
<g id="Property 1=English">
<g id="Frame 48095973">
<g id="Frame 48095929">
<g id="Frame 48095911" filter="url(#filter0_d_2389_2728)">
<rect x="-150" y="-30" width="370" height="242" rx="16" fill="white"/>
<g id="Frame 48095928" clip-path="url(#clip0_2389_2728)">
<g id="Group">
<g id="Group_2">
<g id="Vector">
<path d="M38.5252 56.3651V65.0001H30.4824V56.3651" fill="#FF7532"/>
<path d="M38.5252 56.3651V65.0001H30.4824V56.3651" stroke="#FF7532" stroke-width="1.48082" stroke-linejoin="round"/>
</g>
<g id="Group_3">
<g id="Group_4">
<path id="Vector_2" d="M65.773 8.60868C65.773 6.35044 63.9313 4.50867 61.673 4.50867H7.31772C5.05948 4.50867 3.21777 6.35044 3.21777 8.60868V45.9345H65.773V8.60868Z" fill="white" stroke="white" stroke-width="1.48082" stroke-linecap="round" stroke-linejoin="round"/>
<path id="Vector_3" d="M3.22754 45.9346V48.6463C3.22754 50.9046 5.06924 52.7463 7.32749 52.7463H61.6827C63.9409 52.7463 65.7827 50.9046 65.7827 48.6463V45.9346H3.22754Z" fill="#FF7532" stroke="#FF7532" stroke-width="1.48082" stroke-linecap="round" stroke-linejoin="round"/>
<path id="Vector_4" d="M61.6827 4.50879H7.32749C5.06311 4.50879 3.22754 6.34443 3.22754 8.60881V48.6464C3.22754 50.9107 5.06311 52.7464 7.32749 52.7464H61.6827C63.9471 52.7464 65.7827 50.9107 65.7827 48.6464V8.60881C65.7827 6.34443 63.9471 4.50879 61.6827 4.50879Z" stroke="#070851" stroke-width="1.48082" stroke-linecap="round" stroke-linejoin="round"/>
<path id="Vector_5" d="M62.1638 45.9346H6.83691" stroke="#070851" stroke-width="1.48082" stroke-linejoin="round"/>
</g>
<g id="Group_5">
<path id="Vector_6" d="M30.4826 65H20.1816" stroke="#070851" stroke-width="1.48082" stroke-linecap="round" stroke-linejoin="round"/>
<path id="Vector_7" d="M48.8175 65H38.5166" stroke="#070851" stroke-width="1.48082" stroke-linecap="round" stroke-linejoin="round"/>
<path id="Vector_8" d="M30.4824 65.0001V56.3651" stroke="#070851" stroke-width="1.48082" stroke-linejoin="round"/>
<path id="Vector_9" d="M38.5166 56.3651V65.0001" stroke="#070851" stroke-width="1.48082" stroke-linejoin="round"/>
</g>
</g>
</g>
<g id="ix:ai">
<path id="Vector_10" d="M32.8672 26.7731L32.9443 26.9645L33.1357 27.0407L39.458 29.57L33.1357 32.0993L32.9443 32.1755L32.8672 32.3669L30.3379 38.6891L27.8096 32.3669L27.7324 32.1755L21.2188 29.57L27.7324 26.9645L27.8096 26.7731L30.3379 20.4499L32.8672 26.7731ZM43.2793 16.3474L43.3564 16.5515L43.5605 16.6286L48.3105 18.4118L43.5605 20.194L43.3564 20.2702L43.2793 20.4753L41.4961 25.2253L39.7148 20.4753L39.6377 20.2702L39.4336 20.194L34.6807 18.4118L39.4336 16.6286L39.6377 16.5515L39.7148 16.3474L41.4961 11.5983L43.2793 16.3474Z" fill="#FF7532" stroke="#070851" stroke-width="0.961269"/>
</g>
</g>
</g>
</g>
</g>
</g>
</g>
</g>
<defs>
<filter id="filter0_d_2389_2728" x="-155" y="-35" width="380" height="252" filterUnits="userSpaceOnUse" color-interpolation-filters="sRGB">
<feFlood flood-opacity="0" result="BackgroundImageFix"/>
<feColorMatrix in="SourceAlpha" type="matrix" values="0 0 0 0 0 0 0 0 0 0 0 0 0 0 0 0 0 0 127 0" result="hardAlpha"/>
<feOffset/>
<feGaussianBlur stdDeviation="2.5"/>
<feComposite in2="hardAlpha" operator="out"/>
<feColorMatrix type="matrix" values="0 0 0 0 0 0 0 0 0 0 0 0 0 0 0 0 0 0 0.1 0"/>
<feBlend mode="normal" in2="BackgroundImageFix" result="effect1_dropShadow_2389_2728"/>
<feBlend mode="normal" in="SourceGraphic" in2="effect1_dropShadow_2389_2728" result="shape"/>
</filter>
<clipPath id="clip0_2389_2728">
<rect width="70" height="70" fill="white"/>
</clipPath>
</defs>
</svg>
