<svg width="70" height="70" viewBox="0 0 70 70" fill="none" xmlns="http://www.w3.org/2000/svg">
<g id="Benefits">
<g id="Property 1=English" clip-path="url(#clip0_2389_2728)">
<g id="Frame 48095973">
<g id="Frame 48095929">
<g id="Frame 48095910" filter="url(#filter0_d_2389_2728)">
<rect x="-150" y="-30" width="370" height="242" rx="16" fill="white"/>
<g id="Frame 48095928" clip-path="url(#clip1_2389_2728)">
<g id="Group">
<path id="Vector" d="M55.0967 25.0802C60.6227 25.0802 65.0993 29.5568 65.0993 35.0828C65.0993 40.6089 60.6227 45.0855 55.0967 45.0855V25.0802Z" fill="#FF7532" stroke="#FF7532" stroke-width="2.12286" stroke-linecap="round" stroke-linejoin="round"/>
<path id="Vector_2" d="M15.0876 25.0802C9.56153 25.0802 5.08496 29.5568 5.08496 35.0828C5.08496 40.6089 9.56153 45.0855 15.0876 45.0855V25.0802Z" fill="#FF7532" stroke="#FF7532" stroke-width="2.12286" stroke-linecap="round" stroke-linejoin="round"/>
<g id="Group_2">
<path id="Vector_3" d="M59.2854 25.9997C62.7217 27.5878 65.0993 31.0613 65.0993 35.0828C65.0993 40.6089 60.6227 45.0855 55.0967 45.0855V25.0802" stroke="#070851" stroke-width="2.12286" stroke-linecap="round" stroke-linejoin="round"/>
<path id="Vector_4" d="M10.8613 26.0183C7.44352 27.6065 5.0752 31.0707 5.0752 35.0922C5.0752 40.6183 9.55176 45.0949 15.0778 45.0949V25.0896" stroke="#070851" stroke-width="2.12286" stroke-linecap="round" stroke-linejoin="round"/>
<path id="Vector_5" d="M15.0869 25.0802C15.0869 14.028 24.0401 5.07489 35.0922 5.07489C46.1443 5.07489 55.0975 14.0373 55.0975 25.0802" stroke="#070851" stroke-width="2.12286" stroke-linecap="round" stroke-linejoin="round"/>
<path id="Vector_6" d="M39.9775 60.2149C48.327 60.2149 55.1069 53.4443 55.1069 45.0856" stroke="#070851" stroke-width="2.12286" stroke-linecap="round" stroke-linejoin="round"/>
<path id="Vector_7" d="M39.9775 60.2147C39.9775 62.908 37.7949 65.0999 35.0923 65.0999C32.3896 65.0999 30.207 62.9173 30.207 60.2147C30.207 57.512 32.3896 55.3295 35.0923 55.3295C37.7949 55.3295 39.9775 57.512 39.9775 60.2147Z" fill="white" stroke="white" stroke-width="9.02214" stroke-linecap="round" stroke-linejoin="round"/>
<path id="Vector_8" d="M39.9775 60.2147C39.9775 62.908 37.7949 65.0999 35.0923 65.0999C32.3896 65.0999 30.207 62.9173 30.207 60.2147C30.207 57.512 32.3896 55.3295 35.0923 55.3295C37.7949 55.3295 39.9775 57.512 39.9775 60.2147Z" fill="#FF7532" stroke="#070851" stroke-width="2.12286" stroke-linecap="round" stroke-linejoin="round"/>
<path id="Vector_9" d="M44.0543 42.0856C43.562 43.2465 42.8469 44.296 41.9739 45.1783C41.0916 46.0606 40.0421 46.7665 38.8811 47.2587C37.7202 47.751 36.4385 48.0203 35.0918 48.0203C33.7451 48.0203 32.4728 47.751 31.3118 47.2587C30.1509 46.7665 29.1014 46.0513 28.2191 45.1783C27.3368 44.296 26.6309 43.2465 26.1387 42.0856" stroke="#070851" stroke-width="2.12286" stroke-linecap="round" stroke-linejoin="round"/>
<path id="Vector_10" d="M41.1299 31.8879H44.9842" stroke="#070851" stroke-width="2.12286" stroke-linecap="round" stroke-linejoin="round"/>
<path id="Vector_11" d="M29.0555 31.8879H25.2012" stroke="#070851" stroke-width="2.12286" stroke-linecap="round" stroke-linejoin="round"/>
<g id="Group_3">
<g id="Vector_12">
<path d="M35.1023 9.44928C26.8457 9.44928 20.1494 16.4521 20.1494 25.0802H20.1587C20.1401 24.6715 20.1587 25.4888 20.1587 25.0802C24.4309 23.6406 26.9664 20.8636 28.666 17.4458C31.0343 22.266 37.9628 25.6931 45.012 25.6931C46.7581 25.6931 48.467 25.4795 50.0459 25.0895C50.0459 25.5074 50.0645 24.6715 50.0459 25.0895C50.0459 16.4614 43.3496 9.45858 35.093 9.45858L35.1023 9.44928Z" fill="#FF7532"/>
<path d="M50.0459 25.0895C48.467 25.4795 46.7581 25.6931 45.012 25.6931C37.9628 25.6931 31.0343 22.266 28.666 17.4458C26.9664 20.8636 24.4309 23.6406 20.1587 25.0802H20.1494C20.1494 16.4521 26.8457 9.44928 35.1023 9.44928L35.093 9.45858C43.3496 9.45858 50.0459 16.4614 50.0459 25.0895ZM20.1587 25.0802C20.1401 24.6715 20.1587 25.4888 20.1587 25.0802ZM50.0459 25.0895C50.0459 25.5074 50.0645 24.6715 50.0459 25.0895Z" stroke="#FF7532" stroke-width="2.12286" stroke-linecap="round" stroke-linejoin="round"/>
</g>
<path id="Vector_13" d="M20.1782 25.0802H20.1689C20.1689 16.4521 26.8652 9.44928 35.1218 9.44928C43.3784 9.44928 50.0747 16.4521 50.0747 25.0802" stroke="#070851" stroke-width="2.12286" stroke-linecap="round" stroke-linejoin="round"/>
<path id="Vector_14" d="M50.0454 25.0801C48.4665 25.4702 46.7761 25.6838 45.0301 25.6838C37.9716 25.6838 31.0431 22.2567 28.6748 17.4365" stroke="#070851" stroke-width="2.12286" stroke-linecap="round" stroke-linejoin="round"/>
</g>
</g>
</g>
</g>
</g>
</g>
</g>
</g>
</g>
<defs>
<filter id="filter0_d_2389_2728" x="-155" y="-35" width="380" height="252" filterUnits="userSpaceOnUse" color-interpolation-filters="sRGB">
<feFlood flood-opacity="0" result="BackgroundImageFix"/>
<feColorMatrix in="SourceAlpha" type="matrix" values="0 0 0 0 0 0 0 0 0 0 0 0 0 0 0 0 0 0 127 0" result="hardAlpha"/>
<feOffset/>
<feGaussianBlur stdDeviation="2.5"/>
<feComposite in2="hardAlpha" operator="out"/>
<feColorMatrix type="matrix" values="0 0 0 0 0 0 0 0 0 0 0 0 0 0 0 0 0 0 0.1 0"/>
<feBlend mode="normal" in2="BackgroundImageFix" result="effect1_dropShadow_2389_2728"/>
<feBlend mode="normal" in="SourceGraphic" in2="effect1_dropShadow_2389_2728" result="shape"/>
</filter>
<clipPath id="clip0_2389_2728">
<rect width="1170" height="680" fill="white" transform="translate(-150 -170)"/>
</clipPath>
<clipPath id="clip1_2389_2728">
<rect width="70" height="70" fill="white"/>
</clipPath>
</defs>
</svg>
