<svg width="70" height="70" viewBox="0 0 70 70" fill="none" xmlns="http://www.w3.org/2000/svg">
<g id="Benefits">
<g id="Property 1=English" clip-path="url(#clip0_2389_2728)">
<g id="Frame 48095973">
<g id="Frame 48095930">
<g id="Frame 48095913" filter="url(#filter0_d_2389_2728)">
<rect x="-150" y="-30" width="370" height="238" rx="16" fill="white"/>
<g id="Frame 48095928" clip-path="url(#clip1_2389_2728)">
<g id="Group">
<path id="Vector" d="M58.6735 20.0139H44.0138C41.629 20.0139 39.7031 21.9488 39.7031 24.3245V38.7052C39.7031 41.567 42.0249 43.8888 44.8867 43.8888H44.9227L46.4886 65.0999H56.2346L57.8005 43.8888C60.6622 43.8888 62.984 41.567 62.984 38.7052V24.3245C62.984 21.9398 61.0493 20.0139 58.6735 20.0139Z" fill="#FF7532" stroke="#FF7532" stroke-width="2" stroke-linecap="round" stroke-linejoin="round"/>
<path id="Vector_2" d="M57.18 31.9558L47.1639 25.0895V29.1841H39.7035H30.7314H23.2621V25.0895L13.2549 31.9558L23.2621 38.8133V34.7186H30.7314H39.7035H47.1639V38.8133L57.18 31.9558Z" fill="white"/>
<path id="Vector_3" d="M39.7031 29.1841H47.1635" stroke="#FF7532" stroke-width="2" stroke-linecap="round" stroke-linejoin="round"/>
<path id="Vector_4" d="M51.3033 15.5773C54.246 15.5773 56.6398 13.1835 56.6398 10.2318C56.6398 7.28002 54.246 4.88623 51.3033 4.88623C48.3605 4.88623 45.9668 7.28002 45.9668 10.2318C45.9668 13.1835 48.3605 15.5773 51.3033 15.5773Z" fill="white" stroke="white" stroke-width="2" stroke-linecap="round" stroke-linejoin="round"/>
<path id="Vector_5" d="M51.3033 15.5773C54.246 15.5773 56.6398 13.1835 56.6398 10.2318C56.6398 7.28002 54.246 4.88623 51.3033 4.88623C48.3605 4.88623 45.9668 7.28002 45.9668 10.2318C45.9668 13.1835 48.3605 15.5773 51.3033 15.5773Z" fill="#FF7532" stroke="#070851" stroke-width="2" stroke-linecap="round" stroke-linejoin="round"/>
<path id="Vector_6" d="M56.2344 65.1H65.7826" stroke="#070851" stroke-width="2" stroke-linecap="round" stroke-linejoin="round"/>
<g id="Group_2">
<path id="Vector_7" d="M26.4205 20.014H11.7608C9.37606 20.014 7.4502 21.9489 7.4502 24.3247V38.7054C7.4502 41.5671 9.772 43.8889 12.6337 43.8889L14.1996 65.1H23.9457L25.5116 43.8889H25.5476C28.4093 43.8889 30.7311 41.5671 30.7311 38.7054V24.3247C30.7311 21.9399 28.7963 20.014 26.4205 20.014Z" fill="white" stroke="white" stroke-width="2" stroke-linecap="round" stroke-linejoin="round"/>
<g id="Group_3">
<path id="Vector_8" d="M19.1314 15.5773C16.1886 15.5773 13.7949 13.1835 13.7949 10.2318C13.7949 7.28002 16.1886 4.88623 19.1314 4.88623C22.0741 4.88623 24.468 7.28002 24.468 10.2318C24.468 13.1835 22.0741 15.5773 19.1314 15.5773Z" fill="white" stroke="white" stroke-width="2" stroke-linecap="round" stroke-linejoin="round"/>
<path id="Vector_9" d="M19.1314 15.5773C16.1886 15.5773 13.7949 13.1835 13.7949 10.2318C13.7949 7.28002 16.1886 4.88623 19.1314 4.88623C22.0741 4.88623 24.468 7.28002 24.468 10.2318C24.468 13.1835 22.0741 15.5773 19.1314 15.5773Z" fill="white" stroke="#070851" stroke-width="2" stroke-linecap="round" stroke-linejoin="round"/>
<path id="Vector_10" d="M14.1995 65.1H4.65137" stroke="#070851" stroke-width="2" stroke-linecap="round" stroke-linejoin="round"/>
</g>
</g>
<path id="Vector_11" d="M23.9463 65.1H46.4893" stroke="#070851" stroke-width="2" stroke-linecap="round" stroke-linejoin="round"/>
<path id="Vector_12" d="M39.7035 29.1841H30.7314H23.2621V25.0895L13.2549 31.9558L23.2621 38.8133V34.7186" stroke="#070851" stroke-width="2" stroke-linecap="round" stroke-linejoin="round"/>
<path id="Vector_13" d="M30.7314 34.7186H39.7036H47.164V38.8133L57.1801 31.9558L47.164 25.0895V29.1841" stroke="#070851" stroke-width="2" stroke-linecap="round" stroke-linejoin="round"/>
<path id="Vector_14" d="M39.7031 38.4442V38.7052C39.7031 41.5669 42.0249 43.8887 44.8867 43.8887H44.9227L46.4886 65.0998" stroke="#070851" stroke-width="2" stroke-linejoin="round"/>
<path id="Vector_15" d="M56.2346 65.0999L57.8005 43.8888C60.6622 43.8888 62.984 41.567 62.984 38.7052V24.3245C62.984 21.9398 61.0493 20.0139 58.6735 20.0139H44.0138C41.629 20.0139 39.7031 21.9488 39.7031 24.3245V29.1841" stroke="#070851" stroke-width="2" stroke-linecap="round" stroke-linejoin="round"/>
<path id="Vector_16" d="M30.7317 34.7188V38.7054C30.7317 41.5671 28.4099 43.8889 25.5482 43.8889H25.5123L23.9463 65.1001" stroke="#070851" stroke-width="2" stroke-linecap="round" stroke-linejoin="round"/>
<path id="Vector_17" d="M14.1996 65.0999L12.6337 43.8888C9.772 43.8888 7.4502 41.567 7.4502 38.7052V24.3245C7.4502 21.9398 9.38506 20.0139 11.7608 20.0139H26.4205C28.8053 20.0139 30.7311 21.9488 30.7311 24.3245V25.4584" stroke="#070851" stroke-width="2" stroke-linejoin="round"/>
</g>
</g>
</g>
</g>
</g>
</g>
</g>
<defs>
<filter id="filter0_d_2389_2728" x="-155" y="-35" width="380" height="248" filterUnits="userSpaceOnUse" color-interpolation-filters="sRGB">
<feFlood flood-opacity="0" result="BackgroundImageFix"/>
<feColorMatrix in="SourceAlpha" type="matrix" values="0 0 0 0 0 0 0 0 0 0 0 0 0 0 0 0 0 0 127 0" result="hardAlpha"/>
<feOffset/>
<feGaussianBlur stdDeviation="2.5"/>
<feComposite in2="hardAlpha" operator="out"/>
<feColorMatrix type="matrix" values="0 0 0 0 0 0 0 0 0 0 0 0 0 0 0 0 0 0 0.1 0"/>
<feBlend mode="normal" in2="BackgroundImageFix" result="effect1_dropShadow_2389_2728"/>
<feBlend mode="normal" in="SourceGraphic" in2="effect1_dropShadow_2389_2728" result="shape"/>
</filter>
<clipPath id="clip0_2389_2728">
<rect width="1170" height="680" fill="white" transform="translate(-950 -432)"/>
</clipPath>
<clipPath id="clip1_2389_2728">
<rect width="70" height="70" fill="white"/>
</clipPath>
</defs>
</svg>
