<svg width="116" height="168" viewBox="0 0 116 168" fill="none" xmlns="http://www.w3.org/2000/svg">
<g id="FAQ">
<g id="Property 1=English">
<g id="Frame 48095979">
<g id="Group 12">
<path id="Vector 3" d="M115.358 3.14754C115.447 1.49244 114.179 0.0848706 112.524 0.00364487C110.87 -0.0775657 109.457 1.1983 109.367 2.85341L112.362 3.00048L115.358 3.14754ZM44.5847 132.552L41.588 132.699C41.6605 134.343 43.0451 135.616 44.6903 135.55C46.3356 135.483 47.6266 134.103 47.5832 132.457L44.5847 132.552ZM5.7817 103.76C5.16155 102.227 3.41352 101.493 1.87736 102.121C0.3412 102.749 -0.40137 104.501 0.218779 106.035L3.00024 104.898L5.7817 103.76ZM112.362 3.00048L109.367 2.85341C108.245 23.6204 104.885 51.198 98.6186 67.1533C97.0602 71.121 95.3984 74.1638 93.6908 76.1757C91.9891 78.1808 90.5127 78.8642 89.2561 78.8889C87.9541 78.9145 86.0302 78.2534 83.4266 75.6746C80.8388 73.1116 77.8809 68.9408 74.5785 62.7054L71.9263 64.1203L69.2742 65.5352C72.7105 72.0235 76 76.7849 79.1948 79.9492C82.3736 83.0977 85.7672 84.9589 89.344 84.8886C92.9662 84.8175 95.93 82.7868 98.256 80.0461C100.576 77.3124 102.53 73.5779 104.201 69.3234C110.852 52.3899 114.233 23.9601 115.358 3.14754L112.362 3.00048ZM71.9263 64.1203L74.5785 62.7054C70.3245 54.6732 66.5817 48.9064 63.2568 45.1417C60.0784 41.5428 56.6552 39.0557 53.0147 39.2854C49.1151 39.5315 46.7233 42.6984 45.2668 45.9119C43.7432 49.2737 42.7061 53.7955 41.9813 58.8876C39.0852 79.2329 40.7013 112.589 41.588 132.699L44.5847 132.552L47.5813 132.404C46.6828 112.026 45.1228 79.3576 47.9204 59.7044C48.619 54.7969 49.5598 50.9458 50.7286 48.367C51.9646 45.6398 52.98 45.2985 53.3625 45.2744C54.0042 45.2339 55.7381 45.7146 58.7522 49.1273C61.6197 52.3741 65.1047 57.6626 69.2742 65.5352L71.9263 64.1203ZM44.5847 132.552L47.5832 132.457C47.5832 132.457 47.5833 132.461 47.5833 132.462C47.5833 132.463 47.5835 132.472 47.5835 132.475C47.5836 132.482 47.584 132.514 47.5831 132.559C47.5825 132.583 47.5799 132.647 47.5777 132.686C47.5723 132.756 47.5423 132.99 47.5108 133.15C47.2896 133.788 44.6595 135.503 42.3341 134.499C41.9839 134.011 41.6935 133.316 41.6565 133.167C41.6426 133.101 41.6238 132.995 41.6182 132.958C41.6149 132.935 41.6096 132.894 41.6077 132.879C41.6041 132.849 41.6021 132.827 41.6016 132.821C41.6004 132.808 41.6004 132.806 41.6016 132.823C41.6063 132.887 41.6158 133.041 41.6281 133.286C41.6522 133.767 41.6842 134.541 41.71 135.534C41.7615 137.521 41.7871 140.362 41.6762 143.475C41.5649 146.597 41.3181 149.939 40.8376 152.946C40.3459 156.023 39.6522 158.458 38.7997 159.956C38.3837 160.687 38.0393 160.998 37.8527 161.113C37.7451 161.18 37.6511 161.222 37.3975 161.172C36.5743 161.011 34.7006 159.955 31.7021 156.093C25.8821 148.596 17.5372 132.829 5.7817 103.76L3.00024 104.898L0.218779 106.035C11.9781 135.113 20.5807 151.574 26.9569 159.788C30.0565 163.781 33.0931 166.451 36.2193 167.062C37.9404 167.398 39.5809 167.087 40.996 166.209C42.332 165.38 43.2984 164.155 44.0098 162.905C45.412 160.44 46.2392 157.133 46.7615 153.864C47.295 150.525 47.5554 146.916 47.6715 143.659C47.7879 140.392 47.7609 137.424 47.7071 135.348C47.6801 134.309 47.6463 133.487 47.6197 132.956C47.6066 132.695 47.5945 132.489 47.5849 132.358C47.5826 132.325 47.5794 132.284 47.5757 132.243C47.5739 132.223 47.5707 132.19 47.5661 132.151C47.5637 132.131 47.5579 132.087 47.5542 132.06C47.5481 132.02 47.5289 131.913 47.5146 131.844C47.4772 131.694 47.1865 130.998 46.836 130.51C44.5103 129.505 41.8799 131.221 41.6585 131.86C41.6267 132.021 41.5966 132.256 41.591 132.329C41.5886 132.37 41.5859 132.438 41.5852 132.465C41.5835 132.55 41.5856 132.626 41.5862 132.646L44.5847 132.552Z" fill="#FFC27A"/>
</g>
</g>
</g>
</g>
</svg>
