<svg width="45" height="49" viewBox="0 0 45 49" fill="none" xmlns="http://www.w3.org/2000/svg">
<g id="FAQ">
<g id="Property 1=English">
<g id="Frame 48095979">
<g id="Group 12">
<g id="StarFour">
<path id="Vector" d="M27.8492 31.295L23.778 43.5067C23.6783 43.7997 23.4987 44.0524 23.2634 44.2309C23.0282 44.4094 22.7485 44.5051 22.4619 44.5051C22.1753 44.5051 21.8956 44.4094 21.6603 44.2309C21.425 44.0524 21.2455 43.7997 21.1458 43.5067L17.0746 31.295C17.0034 31.0845 16.8913 30.8933 16.7459 30.7347C16.6005 30.5761 16.4252 30.4538 16.2322 30.3762L5.03643 25.9356C4.76777 25.8268 4.53605 25.6309 4.37243 25.3743C4.2088 25.1177 4.12109 24.8126 4.12109 24.5C4.12109 24.1874 4.2088 23.8824 4.37243 23.6257C4.53605 23.3691 4.76777 23.1733 5.03643 23.0645L16.2322 18.6239C16.4252 18.5463 16.6005 18.424 16.7459 18.2654C16.8913 18.1068 17.0034 17.9156 17.0746 17.7051L21.1458 5.49339C21.2455 5.20035 21.425 4.94761 21.6603 4.76913C21.8956 4.59066 22.1753 4.495 22.4619 4.495C22.7485 4.495 23.0282 4.59066 23.2634 4.76913C23.4987 4.94761 23.6783 5.20035 23.778 5.49339L27.8492 17.7051C27.9203 17.9156 28.0324 18.1068 28.1779 18.2654C28.3233 18.424 28.4985 18.5463 28.6915 18.6239L39.8873 23.0645C40.156 23.1733 40.3877 23.3691 40.5513 23.6257C40.715 23.8824 40.8027 24.1874 40.8027 24.5C40.8027 24.8126 40.715 25.1177 40.5513 25.3743C40.3877 25.6309 40.156 25.8268 39.8873 25.9356L28.6915 30.3762C28.4985 30.4538 28.3233 30.5761 28.1779 30.7347C28.0324 30.8933 27.9203 31.0845 27.8492 31.295V31.295Z" stroke="#FFC27A" stroke-width="3.0625" stroke-linecap="round" stroke-linejoin="round"/>
</g>
</g>
</g>
</g>
</g>
</svg>
