<svg width="27" height="27" viewBox="0 0 27 27" fill="none" xmlns="http://www.w3.org/2000/svg">
<g id="Journey">
<g id="Property 1=English" clip-path="url(#clip0_2389_2728)">
<g id="Frame 48095929">
<g id="Frame 48095910" filter="url(#filter0_d_2389_2728)">
<rect x="-30" y="-42.3876" width="535" height="248" rx="16" fill="white"/>
<rect x="-29.5" y="-41.8876" width="534" height="247" rx="15.5" stroke="#DDE1E6"/>
<g id="Frame 48095928" clip-path="url(#clip1_2389_2728)">
<g id="icon">
<g id="Group">
<path id="Vector" d="M0 8.37012V23.4301C0 24.7451 1.075 25.8201 2.39 25.8201H23.225C24.54 25.8201 25.615 24.7451 25.615 23.4301V8.37012H0Z" fill="white" stroke="white" stroke-width="0.8" stroke-linecap="round" stroke-linejoin="round"/>
<path id="Vector_2" d="M25.615 5.06006C25.615 3.74506 24.54 2.67004 23.225 2.67004H2.39C1.075 2.67004 0 3.74506 0 5.06006V8.37006H25.615V5.06006Z" fill="#FF7532" stroke="#FF7532" stroke-width="0.8" stroke-linejoin="round"/>
</g>
<path id="Vector_3" d="M9.23047 2.67004H16.3855" stroke="#060751" stroke-width="0.8" stroke-linejoin="round"/>
<path id="Vector_4" d="M15.1 25.8249H2.39C1.075 25.8249 0 24.7499 0 23.4349V5.06493C0 3.74993 1.075 2.67493 2.39 2.67493H5.175" stroke="#060751" stroke-width="0.8" stroke-linejoin="round"/>
<path id="Vector_5" d="M20.4404 2.67004H23.2254C24.5404 2.67004 25.6154 3.74506 25.6154 5.06006V15.3051" stroke="#060751" stroke-width="0.8" stroke-linejoin="round"/>
<g id="Group_2">
<path id="Vector_6" d="M18.415 4.94514V0.400146" stroke="#060751" stroke-width="0.8" stroke-linecap="round" stroke-linejoin="round"/>
<path id="Vector_7" d="M7.20508 0.400024V4.94502" stroke="#060751" stroke-width="0.8" stroke-linecap="round" stroke-linejoin="round"/>
</g>
<path id="Vector_8" d="M1.9248 8.37H23.6898" stroke="#060751" stroke-width="0.8" stroke-linejoin="round"/>
<path id="Vector_9" d="M18.415 15.1149V11.7999H21.73" stroke="#060751" stroke-width="0.8" stroke-linecap="round" stroke-linejoin="round"/>
<path id="Vector_10" d="M11.1504 15.1149V11.7999H14.4654" stroke="#060751" stroke-width="0.8" stroke-linecap="round" stroke-linejoin="round"/>
<path id="Vector_11" d="M3.88477 15.1149V11.7999H7.20477" stroke="#060751" stroke-width="0.8" stroke-linecap="round" stroke-linejoin="round"/>
<path id="Vector_12" d="M11.1504 22.3951V19.0751H14.4654" stroke="#060751" stroke-width="0.8" stroke-linecap="round" stroke-linejoin="round"/>
<path id="Vector_13" d="M3.88477 22.3951V19.0751H7.20477" stroke="#060751" stroke-width="0.8" stroke-linecap="round" stroke-linejoin="round"/>
</g>
</g>
</g>
</g>
</g>
</g>
<defs>
<filter id="filter0_d_2389_2728" x="-35" y="-47.3876" width="545" height="258" filterUnits="userSpaceOnUse" color-interpolation-filters="sRGB">
<feFlood flood-opacity="0" result="BackgroundImageFix"/>
<feColorMatrix in="SourceAlpha" type="matrix" values="0 0 0 0 0 0 0 0 0 0 0 0 0 0 0 0 0 0 127 0" result="hardAlpha"/>
<feOffset/>
<feGaussianBlur stdDeviation="2.5"/>
<feComposite in2="hardAlpha" operator="out"/>
<feColorMatrix type="matrix" values="0 0 0 0 0 0 0 0 0 0 0 0 0 0 0 0 0 0 0.1 0"/>
<feBlend mode="normal" in2="BackgroundImageFix" result="effect1_dropShadow_2389_2728"/>
<feBlend mode="normal" in="SourceGraphic" in2="effect1_dropShadow_2389_2728" result="shape"/>
</filter>
<clipPath id="clip0_2389_2728">
<rect width="1170" height="446" fill="white" transform="translate(-30 -200.388)"/>
</clipPath>
<clipPath id="clip1_2389_2728">
<rect width="475" height="51" fill="white" transform="translate(0 -12.3876)"/>
</clipPath>
</defs>
</svg>
