<svg width="40" height="40" viewBox="0 0 40 40" fill="none" xmlns="http://www.w3.org/2000/svg">
<g id="Journey">
<g id="Property 1=English">
<g id="Frame 48095929">
<g id="Group 281913">
<circle id="Ellipse 3" cx="20" cy="20" r="20" fill="#060751"/>
<path id="Vector" d="M11.1475 20.6553C11.1475 21.4878 11.8312 22.1635 12.6737 22.1635L23.6408 22.1635L20.1414 25.6214C19.8551 25.9042 19.6943 26.2879 19.6943 26.6879C19.6943 27.088 19.8551 27.4716 20.1414 27.7545C20.4277 28.0374 20.8159 28.1963 21.2208 28.1963C21.6256 28.1963 22.0139 28.0374 22.3002 27.7545L28.4052 21.7219C28.547 21.5818 28.6594 21.4155 28.7362 21.2325C28.8129 21.0495 28.8524 20.8534 28.8524 20.6553C28.8524 20.4572 28.8129 20.2611 28.7362 20.0781C28.6594 19.8951 28.547 19.7288 28.4052 19.5887L22.3002 13.5561C22.0139 13.2732 21.6256 13.1143 21.2208 13.1143C20.8159 13.1143 20.4277 13.2732 20.1414 13.5561C19.8551 13.839 19.6943 14.2226 19.6943 14.6227C19.6943 15.0227 19.8551 15.4064 20.1414 15.6892L23.6408 19.1471L12.6737 19.1471C11.8312 19.1471 11.1475 19.8228 11.1475 20.6553Z" fill="white"/>
</g>
</g>
</g>
</g>
</svg>
