<svg width="70" height="70" viewBox="0 0 70 70" fill="none" xmlns="http://www.w3.org/2000/svg">
<g id="3 steps">
<g id="Property 1=English">
<g id="Frame 48095987">
<g id="Frame 281967" filter="url(#filter0_d_2389_2728)">
<rect x="-150" y="-30" width="370" height="245" rx="16" fill="white" shape-rendering="crispEdges"/>
<rect x="-149.5" y="-29.5" width="369" height="244" rx="15.5" stroke="#DDE1E6" shape-rendering="crispEdges"/>
<g id="platform">
<g id="Group">
<g id="Group_2">
<path id="Vector" d="M30.4999 49.2186H38.4999C38.4999 49.2186 38.2999 51.2686 38.6999 53.2686C38.9999 54.8186 40.1499 56.1686 41.7999 57.0186C42.2499 57.2686 42.0499 57.8186 41.4999 57.8186H19.3999C18.8499 57.8186 18.5999 57.2686 19.0999 57.0186C20.7999 56.1686 21.8999 54.7686 22.1999 53.2686C22.5999 51.2686 22.3999 49.2186 22.3999 49.2186H30.3999H30.4999Z" stroke="#070851" stroke-width="1.8" stroke-linecap="round" stroke-linejoin="round"/>
<path id="Vector_2" d="M31.0492 45.9188C31.0492 46.2188 30.7992 46.4688 30.4992 46.4688C30.1992 46.4688 29.9492 46.2188 29.9492 45.9188C29.9492 45.6188 30.1992 45.3688 30.4992 45.3688C30.7992 45.3688 31.0492 45.6188 31.0492 45.9188Z" stroke="#070851" stroke-width="1.8" stroke-linecap="round" stroke-linejoin="round"/>
<path id="Vector_3" d="M49.0508 49.2188H5.75078C4.25078 49.2188 3.05078 48.0187 3.05078 46.5187V42.6188H13.7008" stroke="#070851" stroke-width="1.8" stroke-linecap="round" stroke-linejoin="round"/>
<path id="Vector_4" d="M49 42.6187H3V14.6187C3 13.0187 4.3 11.6687 5.95 11.6687H55.1C56.7 11.6687 58.05 12.9687 58.05 14.6187V28.2687" stroke="#070851" stroke-width="1.8" stroke-linecap="round" stroke-linejoin="round"/>
</g>
<path id="Vector_5" d="M65.1996 51.9686H50.8496" stroke="#070851" stroke-width="1.8" stroke-miterlimit="10"/>
<path id="Vector_6" d="M65.6 57.8687H50.4C49.65 57.8687 49 57.2686 49 56.4686V29.6187C49 28.8687 49.6 28.2186 50.4 28.2186H65.6C66.35 28.2186 67 28.8187 67 29.6187V56.4686C67 57.2186 66.4 57.8687 65.6 57.8687Z" stroke="#070851" stroke-width="1.8" stroke-miterlimit="10"/>
<path id="Vector_7" d="M58.5 54.9187C58.5 54.6687 58.3 54.4187 58 54.4187C57.7 54.4187 57.5 54.6187 57.5 54.9187C57.5 55.2187 57.7 55.4187 58 55.4187C58.3 55.4187 58.5 55.2187 58.5 54.9187Z" stroke="#070851" stroke-width="1.8" stroke-miterlimit="10"/>
<path id="Vector_8" d="M56.25 31.2687H58H59.8" stroke="#070851" stroke-width="1.8" stroke-linecap="round" stroke-linejoin="round"/>
<path id="Vector_9" d="M40.0996 30.8687L47.9496 20.5187" stroke="#FF7532" stroke-width="1.8" stroke-miterlimit="10"/>
<path id="Vector_10" d="M33.6504 27.2687L36.8004 30.9187" stroke="#FF7532" stroke-width="1.8" stroke-miterlimit="10"/>
<path id="Vector_11" d="M26.75 31.3187L30.25 27.2687" stroke="#FF7532" stroke-width="1.8" stroke-miterlimit="10"/>
<path id="Vector_12" d="M20.5508 27.3187L23.5508 31.2687" stroke="#FF7532" stroke-width="1.8" stroke-miterlimit="10"/>
<path id="Vector_13" d="M13.9492 31.4186L17.0992 27.2186" stroke="#FF7532" stroke-width="1.8" stroke-miterlimit="10"/>
<path id="Vector_14" d="M21.35 25.7686C21.35 24.3686 20.2 23.2186 18.8 23.2186C17.4 23.2186 16.25 24.3686 16.25 25.7686C16.25 27.1686 17.4 28.3186 18.8 28.3186C20.2 28.3186 21.35 27.1686 21.35 25.7686Z" stroke="#FF7532" stroke-width="1.8" stroke-miterlimit="10"/>
<path id="Vector_15" d="M27.6996 32.9687C27.6996 31.5687 26.5496 30.4187 25.1496 30.4187C23.7496 30.4187 22.5996 31.5687 22.5996 32.9687C22.5996 34.3687 23.7496 35.5187 25.1496 35.5187C26.5496 35.5187 27.6996 34.3687 27.6996 32.9687Z" stroke="#FF7532" stroke-width="1.8" stroke-miterlimit="10"/>
<path id="Vector_16" d="M34.5492 25.7686C34.5492 24.3686 33.3992 23.2186 31.9992 23.2186C30.5992 23.2186 29.4492 24.3686 29.4492 25.7686C29.4492 27.1686 30.5992 28.3186 31.9992 28.3186C33.3992 28.3186 34.5492 27.1686 34.5492 25.7686Z" stroke="#FF7532" stroke-width="1.8" stroke-miterlimit="10"/>
<path id="Vector_17" d="M41.0004 32.4687C41.0004 31.0687 39.8504 29.9187 38.4504 29.9187C37.0504 29.9187 35.9004 31.0687 35.9004 32.4687C35.9004 33.8687 37.0504 35.0187 38.4504 35.0187C39.8504 35.0187 41.0004 33.8687 41.0004 32.4687Z" stroke="#FF7532" stroke-width="1.8" stroke-miterlimit="10"/>
<path id="Vector_18" d="M52.1 18.9188C52.1 17.5188 50.95 16.3688 49.55 16.3688C48.15 16.3688 47 17.5188 47 18.9188C47 20.3188 48.15 21.4688 49.55 21.4688C50.95 21.4688 52.1 20.3188 52.1 18.9188Z" stroke="#FF7532" stroke-width="1.8" stroke-miterlimit="10"/>
<path id="Vector_19" d="M14.9008 32.9687C14.9008 31.5687 13.7508 30.4187 12.3508 30.4187C10.9508 30.4187 9.80078 31.5687 9.80078 32.9687C9.80078 34.3687 10.9508 35.5187 12.3508 35.5187C13.7508 35.5187 14.9008 34.3687 14.9008 32.9687Z" stroke="#FF7532" stroke-width="1.8" stroke-miterlimit="10"/>
</g>
</g>
</g>
</g>
</g>
</g>
<defs>
<filter id="filter0_d_2389_2728" x="-155" y="-35" width="380" height="255" filterUnits="userSpaceOnUse" color-interpolation-filters="sRGB">
<feFlood flood-opacity="0" result="BackgroundImageFix"/>
<feColorMatrix in="SourceAlpha" type="matrix" values="0 0 0 0 0 0 0 0 0 0 0 0 0 0 0 0 0 0 127 0" result="hardAlpha"/>
<feOffset/>
<feGaussianBlur stdDeviation="2.5"/>
<feComposite in2="hardAlpha" operator="out"/>
<feColorMatrix type="matrix" values="0 0 0 0 0 0 0 0 0 0 0 0 0 0 0 0 0 0 0.1 0"/>
<feBlend mode="normal" in2="BackgroundImageFix" result="effect1_dropShadow_2389_2728"/>
<feBlend mode="normal" in="SourceGraphic" in2="effect1_dropShadow_2389_2728" result="shape"/>
</filter>
</defs>
</svg>
