<svg width="70" height="70" viewBox="0 0 70 70" fill="none" xmlns="http://www.w3.org/2000/svg">
<g id="3 steps">
<g id="Property 1=English">
<g id="Frame 48095987">
<g id="Frame 281966" filter="url(#filter0_d_2389_2728)">
<rect x="-150" y="-30" width="370" height="245" rx="16" fill="white" shape-rendering="crispEdges"/>
<rect x="-149.5" y="-29.5" width="369" height="244" rx="15.5" stroke="#DDE1E6" shape-rendering="crispEdges"/>
<g id="support">
<g id="Group">
<path id="Vector" d="M12.9488 32.2867H17.5772V47.8126H12.9488C10.5926 47.8126 8.69922 45.9192 8.69922 43.563V36.4943C8.69922 34.1381 10.5926 32.2446 12.9488 32.2446V32.2867Z" stroke="#070851" stroke-width="1.8" stroke-linecap="round" stroke-linejoin="round"/>
<path id="Vector_2" d="M19.8502 50.0846C18.5879 50.0846 17.5781 49.0748 17.5781 47.8125V32.3287C17.5781 31.0665 18.5879 30.0566 19.8502 30.0566C21.1125 30.0566 22.1223 31.0665 22.1223 32.3287V47.8125C22.1223 49.0748 21.1125 50.0846 19.8502 50.0846Z" stroke="#070851" stroke-width="1.8" stroke-linecap="round" stroke-linejoin="round"/>
<path id="Vector_3" d="M56.7504 47.8546H52.1221V32.3288H56.7504C59.1066 32.3288 61 34.2222 61 36.5784V43.6471C61 46.0033 59.1066 47.8967 56.7504 47.8967V47.8546Z" stroke="#070851" stroke-width="1.8" stroke-linecap="round" stroke-linejoin="round"/>
<path id="Vector_4" d="M49.8482 50.0846C51.1105 50.0846 52.1203 49.0748 52.1203 47.8125V32.3287C52.1203 31.0665 51.1105 30.0566 49.8482 30.0566C48.5859 30.0566 47.5762 31.0665 47.5762 32.3287V47.8125C47.5762 49.0748 48.5859 50.0846 49.8482 50.0846Z" stroke="#070851" stroke-width="1.8" stroke-linecap="round" stroke-linejoin="round"/>
<path id="Vector_5" d="M56.2869 29.8042C56.2869 18.1493 46.8199 8.68225 35.1649 8.68225C23.51 8.68225 14.043 18.1493 14.043 29.8042" stroke="#070851" stroke-width="1.8" stroke-linecap="round" stroke-linejoin="round"/>
<path id="Vector_6" d="M56.2867 50.1688C56.2867 55.0917 52.2895 59.0888 47.3667 59.0888H41.7285" stroke="#FF7532" stroke-width="1.8" stroke-linecap="round" stroke-linejoin="round"/>
<path id="Vector_7" d="M39.1204 56.4802H35.1654C33.7348 56.4802 32.5566 57.6583 32.5566 59.0889C32.5566 60.5195 33.7348 61.6976 35.1654 61.6976H39.1204C40.551 61.6976 41.7291 60.5195 41.7291 59.0889C41.7291 57.6583 40.551 56.4802 39.1204 56.4802Z" stroke="#FF7532" stroke-width="1.8" stroke-linecap="round" stroke-linejoin="round"/>
</g>
</g>
</g>
</g>
</g>
</g>
<defs>
<filter id="filter0_d_2389_2728" x="-155" y="-35" width="380" height="255" filterUnits="userSpaceOnUse" color-interpolation-filters="sRGB">
<feFlood flood-opacity="0" result="BackgroundImageFix"/>
<feColorMatrix in="SourceAlpha" type="matrix" values="0 0 0 0 0 0 0 0 0 0 0 0 0 0 0 0 0 0 127 0" result="hardAlpha"/>
<feOffset/>
<feGaussianBlur stdDeviation="2.5"/>
<feComposite in2="hardAlpha" operator="out"/>
<feColorMatrix type="matrix" values="0 0 0 0 0 0 0 0 0 0 0 0 0 0 0 0 0 0 0.1 0"/>
<feBlend mode="normal" in2="BackgroundImageFix" result="effect1_dropShadow_2389_2728"/>
<feBlend mode="normal" in="SourceGraphic" in2="effect1_dropShadow_2389_2728" result="shape"/>
</filter>
</defs>
</svg>
