<svg width="33" height="33" viewBox="0 0 33 33" fill="none" xmlns="http://www.w3.org/2000/svg">
<g id="Testimonials">
<g id="Property 1=English">
<g id="Student Feedback">
<g id="Frame 48095978">
<g id="Frame 48095972">
<g id="Frame 48095941">
<g id="Frame 48095931">
<g id="Frame 48095908">
<rect x="-51.9201" y="-21.8215" width="135.946" height="75.7483" rx="23.3265" fill="white"/>
<rect x="-51.9201" y="-21.8215" width="135.946" height="75.7483" rx="23.3265" stroke="#DDE1E6" stroke-width="1.50493"/>
<g id="right-arrow (4) 1">
<g id="Group">
<path id="Vector" fill-rule="evenodd" clip-rule="evenodd" d="M4.01318 16.0527C4.01318 15.4986 4.46238 15.0494 5.01647 15.0494H27.0888C27.643 15.0494 28.0921 15.4986 28.0921 16.0527C28.0921 16.6068 27.643 17.056 27.0888 17.056H5.01647C4.46238 17.056 4.01318 16.6068 4.01318 16.0527Z" fill="#FF5F00"/>
<path id="Vector_2" fill-rule="evenodd" clip-rule="evenodd" d="M17.35 6.31363C17.7418 5.92182 18.3771 5.92182 18.7688 6.31363L27.7985 15.3432C28.1902 15.735 28.1902 16.3703 27.7985 16.7621L18.7688 25.7917C18.3771 26.1835 17.7418 26.1835 17.35 25.7917C16.9582 25.3999 16.9582 24.7646 17.35 24.3729L25.6702 16.0527L17.35 7.7325C16.9582 7.34069 16.9582 6.70544 17.35 6.31363Z" fill="#FF5F00"/>
</g>
</g>
</g>
</g>
</g>
</g>
</g>
</g>
</g>
</g>
</svg>
