<svg width="39" height="38" viewBox="0 0 39 38" fill="none" xmlns="http://www.w3.org/2000/svg">
<g id="Testimonials">
<g id="Property 1=English">
<g id="Student Feedback">
<g id="Frame 48095973">
<g id="1" filter="url(#filter0_d_2389_2728)">
<rect x="-446.796" y="-56.483" width="515.5" height="260" rx="16" fill="white"/>
<rect x="-446.296" y="-55.983" width="514.5" height="259" rx="15.5" stroke="#DDE1E6"/>
<g id="Frame 48095977">
<g id="Vector">
<path d="M10.751 0H6.45062C2.8936 0 0 3.55984 0 7.93583V13.2264C0 17.6024 2.8936 21.1622 6.45062 21.1622H10.751C11.4414 21.1622 12.0942 20.9931 12.7183 20.7446C11.8514 26.9749 7.45992 31.7433 2.15021 31.7433C0.961715 31.7433 0 32.9265 0 34.3886C0 35.8507 0.961715 37.0339 2.15021 37.0339C10.4487 37.0339 17.2016 28.7261 17.2016 18.5169V7.93583C17.2016 3.55984 14.308 0 10.751 0ZM32.2531 0H27.9527C24.3957 0 21.5021 3.55984 21.5021 7.93583V13.2264C21.5021 17.6024 24.3957 21.1622 27.9527 21.1622H32.2531C32.9434 21.1622 33.5962 20.9931 34.2204 20.7446C33.3534 26.9749 28.962 31.7433 23.6523 31.7433C22.4638 31.7433 21.5021 32.9265 21.5021 34.3886C21.5021 35.8507 22.4638 37.0339 23.6523 37.0339C31.9508 37.0339 38.7037 28.7261 38.7037 18.5169V7.93583C38.7037 3.55984 35.8101 0 32.2531 0Z" fill="#FF7532"/>
<path d="M6.4502 0.5H10.751C13.9399 0.5 16.701 3.73403 16.7012 7.93555V18.5166C16.7012 28.5514 10.0808 36.5341 2.15039 36.5342C1.32989 36.5342 0.500031 35.6764 0.5 34.3887C0.5 33.1009 1.32988 32.2432 2.15039 32.2432C7.78912 32.2431 12.3248 27.2029 13.2139 20.8135L13.332 19.9619L12.5332 20.2803C11.947 20.5136 11.3587 20.6621 10.751 20.6621H6.4502C3.26138 20.6618 0.500078 17.4279 0.5 13.2266V7.93555C0.500124 3.73422 3.26141 0.500286 6.4502 0.5ZM27.9531 0.5H32.2529C35.4419 0.5 38.204 3.73403 38.2041 7.93555V18.5166C38.2041 28.5514 31.5828 36.5341 23.6523 36.5342C22.8318 36.5342 22.002 35.6764 22.002 34.3887C22.002 33.1009 22.8318 32.2432 23.6523 32.2432C29.2911 32.2431 33.8267 27.2029 34.7158 20.8135L34.834 19.9619L34.0352 20.2803C33.4489 20.5136 32.8606 20.6621 32.2529 20.6621H27.9531C24.7641 20.6621 22.002 17.4281 22.002 13.2266V7.93555C22.0021 3.73403 24.7642 0.5 27.9531 0.5Z" stroke="black" stroke-opacity="0.1"/>
</g>
</g>
</g>
</g>
</g>
</g>
</g>
<defs>
<filter id="filter0_d_2389_2728" x="-451.796" y="-61.483" width="525.5" height="270" filterUnits="userSpaceOnUse" color-interpolation-filters="sRGB">
<feFlood flood-opacity="0" result="BackgroundImageFix"/>
<feColorMatrix in="SourceAlpha" type="matrix" values="0 0 0 0 0 0 0 0 0 0 0 0 0 0 0 0 0 0 127 0" result="hardAlpha"/>
<feOffset/>
<feGaussianBlur stdDeviation="2.5"/>
<feComposite in2="hardAlpha" operator="out"/>
<feColorMatrix type="matrix" values="0 0 0 0 0 0 0 0 0 0 0 0 0 0 0 0 0 0 0.1 0"/>
<feBlend mode="normal" in2="BackgroundImageFix" result="effect1_dropShadow_2389_2728"/>
<feBlend mode="normal" in="SourceGraphic" in2="effect1_dropShadow_2389_2728" result="shape"/>
</filter>
</defs>
</svg>
