<svg width="250" height="250" viewBox="0 0 250 250" fill="none" xmlns="http://www.w3.org/2000/svg">
<rect width="250" height="250" fill="white"/>
<path d="M177.193 141.231C171.552 141.231 166.461 140.027 161.921 137.619C157.449 135.212 153.906 131.772 151.292 127.3C148.747 122.829 147.474 117.601 147.474 111.616C147.474 105.699 148.781 100.505 151.395 96.0338C154.01 91.4935 157.587 88.0194 162.127 85.6117C166.668 83.2039 171.758 82 177.399 82C183.04 82 188.131 83.2039 192.671 85.6117C197.212 88.0194 200.789 91.4935 203.403 96.0338C206.017 100.505 207.324 105.699 207.324 111.616C207.324 117.532 205.983 122.76 203.3 127.3C200.686 131.772 197.074 135.212 192.465 137.619C187.925 140.027 182.834 141.231 177.193 141.231ZM177.193 125.959C180.564 125.959 183.419 124.721 185.758 122.244C188.165 119.768 189.369 116.225 189.369 111.616C189.369 107.006 188.2 103.464 185.861 100.987C183.591 98.5104 180.77 97.2721 177.399 97.2721C173.96 97.2721 171.105 98.5104 168.835 100.987C166.564 103.395 165.429 106.938 165.429 111.616C165.429 116.225 166.53 119.768 168.731 122.244C171.002 124.721 173.822 125.959 177.193 125.959Z" fill="#00D3D3"/>
<path d="M127.586 92.4221C129.65 89.2576 132.23 86.7811 135.325 84.9924C138.421 83.135 141.861 82.2063 145.644 82.2063V100.884H140.794C136.392 100.884 133.089 101.847 130.888 103.773C128.687 105.63 127.586 108.933 127.586 113.679V140.405H109.94V82.8254H127.586V92.4221Z" fill="#00D3D3"/>
<path d="M60.6455 90.9775C62.3653 88.2946 64.7387 86.1276 67.7656 84.4766C70.7925 82.8255 74.3354 82 78.3942 82C83.1409 82 87.4405 83.2039 91.2929 85.6117C95.1453 88.0194 98.1723 91.4591 100.374 95.9307C102.644 100.402 103.779 105.596 103.779 111.512C103.779 117.429 102.644 122.657 100.374 127.197C98.1723 131.669 95.1453 135.143 91.2929 137.619C87.4405 140.027 83.1409 141.231 78.3942 141.231C74.4042 141.231 70.8613 140.406 67.7656 138.755C64.7387 137.103 62.3653 134.971 60.6455 132.357V167.854H43V82.8255H60.6455V90.9775ZM85.8239 111.512C85.8239 107.11 84.5856 103.67 82.109 101.193C79.7012 98.648 76.7087 97.3753 73.1315 97.3753C69.623 97.3753 66.6305 98.648 64.154 101.193C61.7462 103.739 60.5423 107.213 60.5423 111.616C60.5423 116.018 61.7462 119.492 64.154 122.038C66.6305 124.583 69.623 125.856 73.1315 125.856C76.6399 125.856 79.6325 124.583 82.109 122.038C84.5856 119.424 85.8239 115.915 85.8239 111.512Z" fill="#00D3D3"/>
</svg>
