<svg width="250" height="250" viewBox="0 0 250 250" fill="none" xmlns="http://www.w3.org/2000/svg">
<rect width="250" height="250" fill="white"/>
<path d="M104.351 94.3496C107.504 94.3496 109.986 93.9161 111.799 93.0491C113.691 92.1033 115.07 90.9211 115.937 89.5024C116.883 88.0838 117.789 86.2316 118.656 83.946L127.029 83.9459V123.477L114.4 123.477V103.571H104.351V94.3496Z" fill="#313131"/>
<path d="M30 94.3495C33.1526 94.3495 35.6353 93.916 37.448 93.049C39.3396 92.1032 40.7189 90.921 41.5858 89.5023C42.5316 88.0837 43.438 86.2315 44.3049 83.9459H53.0534V166.25H40.0489V103.571H30V94.3495Z" fill="#313131"/>
<path fill-rule="evenodd" clip-rule="evenodd" d="M64.8018 88.4382C61.4128 92.0637 59.7183 97.1867 59.7183 103.807V146.84C59.7183 153.461 61.4128 158.584 64.8018 162.209C68.1909 165.835 73.0774 167.647 79.4614 167.647C85.8455 167.647 90.732 165.835 94.1211 162.209C97.5101 158.584 99.2046 153.461 99.2046 146.84V103.807C99.2046 97.1867 97.5101 92.0637 94.1211 88.4382C90.732 84.8127 85.8455 83 79.4614 83C73.0774 83 68.1909 84.8127 64.8018 88.4382ZM79.4614 155.825C74.969 155.825 72.7227 153.106 72.7227 147.668V103.669H67.7562L79.239 92.1862L90.7217 103.669H86.2001V147.668C86.2001 153.106 83.9539 155.825 79.4614 155.825Z" fill="#313131"/>
<path d="M168.684 122.928C174.01 122.928 178.234 124.541 181.358 127.767C184.533 130.993 186.12 135.474 186.12 141.209V166.25H173.062V142.976C173.062 140.211 172.32 138.086 170.835 136.6C169.401 135.064 167.404 134.296 164.843 134.296C162.283 134.296 160.26 135.064 158.775 136.6C157.341 138.086 156.624 140.211 156.624 142.976V166.25H143.566V142.976C143.566 140.211 142.824 138.086 141.339 136.6C139.905 135.064 137.908 134.296 135.347 134.296C132.787 134.296 130.764 135.064 129.279 136.6C127.845 138.086 127.128 140.211 127.128 142.976V166.25H114.398V123.389H127.029V128.766C128.361 126.973 130.201 125.565 132.352 124.541C134.502 123.466 136.935 122.928 139.649 122.928C142.875 122.928 145.743 123.619 148.252 125.002C150.812 126.384 152.809 128.356 154.243 130.916C155.728 128.561 157.751 126.64 160.311 125.155C162.872 123.67 165.663 122.928 168.684 122.928Z" fill="#03CD03"/>
<path d="M219.195 155.112V166.25H212.513C207.75 166.25 204.038 165.098 201.375 162.794C198.712 160.438 197.381 156.623 197.381 151.348V134.296H192.157V123.389H197.381V112.942H210.516V123.389H219.119V134.296H210.516V151.502C210.516 152.782 210.823 153.704 211.437 154.267C212.052 154.831 213.076 155.112 214.51 155.112H219.195Z" fill="#03CD03"/>
</svg>
