<svg width="250" height="250" viewBox="0 0 250 250" fill="none" xmlns="http://www.w3.org/2000/svg">
<rect width="250" height="250" fill="white"/>
<path d="M91.1825 138.893C91.1498 138.188 91.1171 137.5 91.1001 136.811C90.8541 128.572 92.9196 120.424 96.8714 113.193L101.897 103.979L115.219 81.8459H161.33L177.519 55H108.979C102.937 55 97.3554 58.197 94.2892 63.4019L76.541 93.569C72.8352 99.8649 72.8352 107.685 76.541 113.98L91.1825 138.893Z" fill="#2BBDF2"/>
<path d="M91.1001 136.812C91.1171 137.5 91.1498 138.189 91.1825 138.894L95.6588 146.51C97.1748 149.092 99.5359 151.077 102.339 152.126C103.807 152.683 105.363 152.962 106.929 152.962H131.408L101.896 103.98L96.8701 113.194C92.9196 120.424 90.8542 128.572 91.1001 136.812Z" fill="#1591CC"/>
<path d="M158.664 111.768C156.983 106.195 153.885 101.932 148.82 99.4723C146.197 98.193 143.279 97.6279 140.36 97.6279H120.137L148.558 146.108L157.436 130.418C159.394 124.253 159.927 118.039 158.664 111.768Z" fill="#1591CC"/>
<path d="M158.664 111.769C159.927 118.04 159.394 124.253 157.435 130.418L148.557 146.109L135.506 169.152H88.9849L73 195.178H142.524C148.557 195.178 154.099 191.874 156.975 186.578L175.141 153.059C177.379 148.928 177.305 143.919 174.953 139.852L158.664 111.769Z" fill="#2BBDF2"/>
</svg>
