<svg width="250" height="250" viewBox="0 0 250 250" fill="none" xmlns="http://www.w3.org/2000/svg">
<rect width="250" height="250" fill="white"/>
<path d="M148.792 107.964C142.871 107.964 138.579 109.621 135.917 112.934C133.309 116.194 132.006 120.676 132.006 126.38C132.006 129.15 132.332 131.676 132.983 133.958C133.635 136.185 134.613 138.114 135.917 139.744C137.221 141.373 138.851 142.65 140.806 143.574C142.762 144.443 145.044 144.877 147.651 144.877C149.064 144.877 150.259 144.85 151.237 144.796C152.269 144.742 153.165 144.633 153.926 144.47V124.832H166.638V152.782C165.117 153.379 162.672 154.004 159.304 154.656C155.936 155.362 151.78 155.715 146.836 155.715C142.599 155.715 138.742 155.063 135.265 153.76C131.843 152.456 128.909 150.554 126.464 148.055C124.02 145.556 122.118 142.487 120.76 138.847C119.457 135.208 118.805 131.052 118.805 126.38C118.805 121.654 119.538 117.47 121.005 113.831C122.472 110.191 124.482 107.122 127.035 104.623C129.588 102.069 132.576 100.141 135.998 98.837C139.475 97.5332 143.169 96.8813 147.081 96.8813C149.743 96.8813 152.133 97.0715 154.252 97.4518C156.425 97.7777 158.272 98.1851 159.793 98.6741C161.368 99.1087 162.645 99.5704 163.623 100.059C164.655 100.548 165.388 100.929 165.823 101.2L162.156 111.386C160.418 110.463 158.408 109.675 156.126 109.023C153.899 108.317 151.454 107.964 148.792 107.964Z" fill="#414141"/>
<path d="M116.283 143.737V154.656H78.5541V98.1851H91.2662V143.737H116.283Z" fill="#414141"/>
<path d="M68.7738 98.1851V109.023H51.7429V154.656H39.0309V109.023H22V98.1851H68.7738Z" fill="#414141"/>
<g clip-path="url(#clip0_5431_595)">
<path d="M212.585 173.104C214.286 170.994 216.368 167.95 217.37 166.488C218.562 164.728 219.658 162.926 220.658 161.085C221.509 159.488 221.541 159.424 221.927 158.638C218.44 165.16 218.372 165.283 216.123 168.49C214.987 169.974 213.516 171.994 212.317 173.428C212.396 173.331 212.503 173.203 212.582 173.106" fill="url(#paint0_linear_5431_595)"/>
<path d="M191.146 190.33C192.244 189.386 194.445 187.665 198.691 184.842C200.48 183.67 202.225 182.408 203.913 181.053C205.175 180.051 207.288 178.373 208.231 177.822C208.203 177.87 208.165 177.932 208.137 177.981C202.13 183.516 201.898 183.732 195.872 187.8C194.085 188.833 191.72 190.247 189.883 191.194C190.262 190.936 190.802 190.634 191.146 190.33Z" fill="url(#paint1_linear_5431_595)"/>
<path d="M215.081 95.3093C216.592 99.3026 217.683 101.73 218.793 102.32C220.117 102.488 221.081 102.265 221.697 101.701C221.818 101.256 221.783 99.6682 218.874 94.534C217.775 92.6795 216.583 90.8579 215.298 89.0827C211.98 84.6445 210.482 83.4551 210.471 83.4463C210.318 83.5873 210.077 83.6423 209.746 83.6005C209.752 83.7304 209.755 83.7657 210.18 84.5872C211.206 86.5717 211.543 87.2633 212.674 89.6157C213.562 91.4725 214.365 93.3711 215.081 95.3049" fill="url(#paint2_linear_5431_595)"/>
<path d="M219.628 120.095C219.766 122.998 220.191 126.962 222.307 127.857C224.667 128.156 226.39 127.76 227.486 126.753C227.986 125.921 228.418 123.806 227.644 118.461C227.302 116.419 226.866 114.388 226.336 112.37C225.959 111.053 224.952 107.551 223.76 106.498C223.698 106.503 223.617 106.509 223.558 106.514C222.839 107.172 221.708 107.435 220.16 107.236C219.538 107.412 218.874 108.318 219.273 113.811C219.474 115.895 219.591 117.991 219.626 120.095" fill="url(#paint3_linear_5431_595)"/>
<path d="M216.011 145.612C214.908 149.962 215.36 152.543 217.355 153.281C220.443 153.673 222.697 153.153 224.133 151.838C225.18 150.517 226.176 147.735 227.175 143.336C227.596 141.325 227.923 139.297 228.155 137.257C228.306 135.649 228.62 132.302 227.8 131.68C227.725 131.713 227.627 131.755 227.552 131.788C226.375 132.865 224.527 133.293 221.997 132.971C220.185 133.161 218.762 135.264 217.651 139.4C217.186 141.486 216.64 143.561 216.013 145.614" fill="url(#paint4_linear_5431_595)"/>
<path d="M204.496 169.113C201.523 173.776 202.632 175.335 204.088 175.822C207.503 176.256 209.996 175.681 211.583 174.225C211.809 173.992 212.105 173.672 212.317 173.426C213.464 171.948 215.042 170.014 216.123 168.488C218.858 164.25 220.793 160.966 221.927 158.635C222.631 157.14 222.708 156.898 222.758 156.431C222.646 156.468 222.497 156.517 222.385 156.554C220.904 157.911 218.576 158.448 215.388 158.043C212.902 158.131 210.502 159.966 208.054 163.653C206.944 165.516 205.758 167.338 204.496 169.111" fill="url(#paint5_linear_5431_595)"/>
<path d="M185.878 187.454C180.931 191.115 183.43 191.762 183.982 191.855C184.539 191.949 187.443 192.357 189.883 191.194C191.69 190.192 194.116 188.89 195.872 187.8C202.494 183.225 202.755 183.044 208.137 177.981C205.671 180.291 202.049 179.873 200.502 179.692C197.716 179.67 194.489 181.02 190.911 183.703C189.267 185.049 187.588 186.3 185.88 187.454" fill="url(#paint6_linear_5431_595)"/>
<path d="M206.572 90.4439C206.412 92.8601 206.477 95.5516 208.185 97.2036C210.274 98.6617 212.273 99.8687 214.097 100.75C214.818 100.862 215.796 100.265 214.226 95.023C213.595 93.1178 212.881 91.25 212.08 89.4219C209.908 84.7216 208.582 83.2238 208.569 83.2106C208.113 82.9904 207.613 82.6886 207.091 82.3252C207.063 82.3274 207.023 82.3318 206.997 82.334C206.883 82.6864 206.811 84.0036 206.782 86.2524C206.782 87.6004 206.71 88.999 206.569 90.4417" fill="url(#paint7_linear_5431_595)"/>
<path d="M201.637 109.809C200.434 113.723 200.991 116.557 203.389 118.731C207.113 121.333 210.682 123.487 213.935 125.057C216.217 125.674 217.526 123.8 217.826 119.491C217.861 117.41 217.815 115.337 217.688 113.28C217.151 108.21 215.752 106.197 214.674 105.401C212.541 104.371 210.2 102.959 207.758 101.252C206.688 100.741 205.072 100.547 203.428 104.752C202.891 106.412 202.293 108.102 201.637 109.811" fill="url(#paint8_linear_5431_595)"/>
<path d="M190.96 131.291C187.531 138.284 190.561 141.88 206.398 149.618C207.521 149.966 210.941 151.026 213.503 144.772C214.174 142.735 214.77 140.678 215.287 138.61C216.061 134.363 215.32 131.537 213.019 129.969C209.531 128.284 205.704 125.976 201.707 123.185C198.825 121.652 196.328 122.546 194.072 125.921C193.086 127.709 192.047 129.502 190.962 131.291" fill="url(#paint9_linear_5431_595)"/>
<path d="M175.608 152.596C172.98 156.4 173.342 159.679 176.713 162.618C182.104 166.382 187.268 169.499 191.975 171.772C195.425 172.919 198.575 171.732 201.604 168.144C202.885 166.375 204.09 164.56 205.224 162.706C207.231 158.77 206.87 156.089 204.086 154.263C199.693 152.142 194.872 149.235 189.842 145.72C186.144 143.667 182.849 144.244 179.773 147.484C178.425 149.208 177.035 150.915 175.611 152.598" fill="url(#paint10_linear_5431_595)"/>
<path d="M197.106 81.6513C196.26 82.1579 193.684 83.6975 195.491 86.204C197.578 88.3669 199.752 90.4263 201.929 92.3051C203.562 93.3183 204.746 92.3976 205.447 89.5629C205.701 88.2083 205.888 86.9 206.006 85.6445C206.19 82.2107 205.539 81.1138 205.533 81.1028C204.989 80.6337 204.445 80.1205 203.926 79.5786C203.685 79.4465 202.554 79.2923 200.234 80.1689C199.246 80.5984 198.202 81.094 197.106 81.6513Z" fill="url(#paint11_linear_5431_595)"/>
<path d="M181.619 91.217C178.787 93.6288 178.5 96.2102 180.744 99.111C184.467 102.97 188.347 106.642 192.227 109.992C195.083 111.93 197.38 111.26 199.254 107.946C200.002 106.307 200.695 104.695 201.328 103.109C202.354 99.8731 202.054 97.3203 200.434 95.5208C197.889 93.3227 195.346 90.9152 192.904 88.3845C190.997 86.8383 188.605 86.8339 185.793 88.3735C184.436 89.2721 183.042 90.2214 181.617 91.217" fill="url(#paint12_linear_5431_595)"/>
<path d="M190.096 72.0194C185.376 71.1032 184.767 72.0877 185.089 73.0745C186.06 74.6779 187.244 76.4113 188.64 78.2483C189 78.7218 189.366 79.1932 189.741 79.6623C191.696 81.5191 194.151 81.072 196.072 80.4751C197.271 80.0368 198.421 79.6623 199.518 79.354C200.12 79.1668 202.117 78.5236 202.516 78.0721C202.508 78.0346 202.499 77.984 202.49 77.9443C202.396 77.8276 202.304 77.7087 202.216 77.5919C201.867 77.1338 201.572 76.6999 201.33 76.299C201.319 76.288 199.912 75.1361 195.388 73.504C193.667 72.9291 191.902 72.4335 190.1 72.0194" fill="url(#paint13_linear_5431_595)"/>
<path d="M166.8 70.8519C162.649 71.559 161.143 73.1426 162.193 75.6932C163.924 78.5543 166.038 81.6445 168.526 84.922C169.166 85.7656 169.821 86.6069 170.488 87.4461C173.03 90.0055 175.957 90.4262 179.431 88.7324C180.939 87.8316 182.419 86.9814 183.868 86.1862C187.454 83.8405 186.904 81.9529 186.181 80.7371C185.742 80.1864 185.313 79.6358 184.894 79.083C183.263 76.9332 181.878 74.9069 180.742 73.0303C179.355 71.3828 176.665 70.5106 172.743 70.4379C170.777 70.5017 168.795 70.6405 166.803 70.8542" fill="url(#paint14_linear_5431_595)"/>
<path d="M188.787 66.0218C183.362 63.306 182.123 63.6496 181.84 63.9227C181.711 64.9337 181.93 66.2509 182.489 67.8213C183.36 69.079 185.865 69.9974 189.629 71.0745C191.477 71.5833 193.29 72.1758 195.059 72.8498C196.909 73.5546 198.709 74.3872 200.592 75.0083C200.537 74.5942 200.482 74.266 200.515 74.0127C200.506 73.9995 199.167 72.4974 194.476 69.3521C192.619 68.1495 190.718 67.0394 188.785 66.0218" fill="url(#paint15_linear_5431_595)"/>
<path d="M164.03 58.1696C159.619 57.7335 157.052 58.1366 156.399 59.37C156.169 61.174 156.557 63.5219 157.559 66.3236C159.045 68.764 162.982 68.9358 165.814 68.8521C167.846 68.7156 169.867 68.6539 171.873 68.6737C177.095 68.5614 177.73 67.6583 177.7 66.8808C177.044 65.0439 176.788 63.5043 176.941 62.3193C176.785 61.859 175.83 60.6365 170.303 59.2621C168.223 58.8062 166.132 58.4406 164.032 58.1674" fill="url(#paint16_linear_5431_595)"/>
<path d="M138.595 59.3854C134.215 60.555 131.764 61.9514 131.104 63.6562C130.802 66.0174 131.313 69.09 132.621 72.7572C133.969 75.1074 136.736 75.6008 141.081 74.2616C143.08 73.5149 145.097 72.8431 147.122 72.244C151.103 70.8322 152.878 69.1076 152.552 66.9755C151.48 63.9712 151.061 61.4515 151.309 59.5176C151.063 58.2247 148.928 57.8084 144.783 58.2423C142.703 58.5308 140.638 58.9119 138.595 59.3854Z" fill="url(#paint17_linear_5431_595)"/>
<path d="M115.22 69.6758C111.389 72.4819 109.319 74.7197 108.714 76.7175C108.381 79.3275 108.944 82.7261 110.391 86.781C111.761 89.2633 114.35 89.2787 118.083 86.8317C119.828 85.5167 121.619 84.2701 123.447 83.0917C127.031 80.4486 128.498 77.7791 127.932 74.9334C126.582 71.1494 126.056 67.9777 126.367 65.5394C126.214 64.0857 124.449 64.3192 120.642 66.2949C118.789 67.3301 116.979 68.4556 115.218 69.6758" fill="url(#paint18_linear_5431_595)"/>
</g>
<defs>
<linearGradient id="paint0_linear_5431_595" x1="237.309" y1="135.183" x2="193.622" y2="202.378" gradientUnits="userSpaceOnUse">
<stop stop-color="#00B4EE"/>
<stop offset="1" stop-color="#005DAC"/>
</linearGradient>
<linearGradient id="paint1_linear_5431_595" x1="232.739" y1="132.211" x2="189.052" y2="199.407" gradientUnits="userSpaceOnUse">
<stop stop-color="#00B4EE"/>
<stop offset="1" stop-color="#005DAC"/>
</linearGradient>
<linearGradient id="paint2_linear_5431_595" x1="202.786" y1="112.736" x2="159.099" y2="179.932" gradientUnits="userSpaceOnUse">
<stop stop-color="#00B4EE"/>
<stop offset="1" stop-color="#005DAC"/>
</linearGradient>
<linearGradient id="paint3_linear_5431_595" x1="219.461" y1="123.579" x2="175.774" y2="190.775" gradientUnits="userSpaceOnUse">
<stop stop-color="#00B4EE"/>
<stop offset="1" stop-color="#005DAC"/>
</linearGradient>
<linearGradient id="paint4_linear_5431_595" x1="230.091" y1="130.489" x2="186.404" y2="197.684" gradientUnits="userSpaceOnUse">
<stop stop-color="#00B4EE"/>
<stop offset="1" stop-color="#005DAC"/>
</linearGradient>
<linearGradient id="paint5_linear_5431_595" x1="233.539" y1="132.731" x2="189.852" y2="199.926" gradientUnits="userSpaceOnUse">
<stop stop-color="#00B4EE"/>
<stop offset="1" stop-color="#005DAC"/>
</linearGradient>
<linearGradient id="paint6_linear_5431_595" x1="230.106" y1="130.5" x2="186.419" y2="197.695" gradientUnits="userSpaceOnUse">
<stop stop-color="#00B4EE"/>
<stop offset="1" stop-color="#005DAC"/>
</linearGradient>
<linearGradient id="paint7_linear_5431_595" x1="198.825" y1="110.161" x2="155.138" y2="177.357" gradientUnits="userSpaceOnUse">
<stop stop-color="#00B4EE"/>
<stop offset="1" stop-color="#005DAC"/>
</linearGradient>
<linearGradient id="paint8_linear_5431_595" x1="208.545" y1="116.483" x2="164.858" y2="183.678" gradientUnits="userSpaceOnUse">
<stop stop-color="#00B4EE"/>
<stop offset="1" stop-color="#005DAC"/>
</linearGradient>
<linearGradient id="paint9_linear_5431_595" x1="213.863" y1="119.938" x2="170.176" y2="187.134" gradientUnits="userSpaceOnUse">
<stop stop-color="#00B4EE"/>
<stop offset="1" stop-color="#005DAC"/>
</linearGradient>
<linearGradient id="paint10_linear_5431_595" x1="214.461" y1="120.328" x2="170.774" y2="187.522" gradientUnits="userSpaceOnUse">
<stop stop-color="#00B4EE"/>
<stop offset="1" stop-color="#005DAC"/>
</linearGradient>
<linearGradient id="paint11_linear_5431_595" x1="189.311" y1="103.977" x2="145.624" y2="171.172" gradientUnits="userSpaceOnUse">
<stop stop-color="#00B4EE"/>
<stop offset="1" stop-color="#005DAC"/>
</linearGradient>
<linearGradient id="paint12_linear_5431_595" x1="187.956" y1="103.095" x2="144.269" y2="170.291" gradientUnits="userSpaceOnUse">
<stop stop-color="#00B4EE"/>
<stop offset="1" stop-color="#005DAC"/>
</linearGradient>
<linearGradient id="paint13_linear_5431_595" x1="179.412" y1="97.5406" x2="135.725" y2="164.736" gradientUnits="userSpaceOnUse">
<stop stop-color="#00B4EE"/>
<stop offset="1" stop-color="#005DAC"/>
</linearGradient>
<linearGradient id="paint14_linear_5431_595" x1="167.107" y1="89.5408" x2="123.42" y2="156.736" gradientUnits="userSpaceOnUse">
<stop stop-color="#00B4EE"/>
<stop offset="1" stop-color="#005DAC"/>
</linearGradient>
<linearGradient id="paint15_linear_5431_595" x1="174.99" y1="94.6662" x2="131.303" y2="161.86" gradientUnits="userSpaceOnUse">
<stop stop-color="#00B4EE"/>
<stop offset="1" stop-color="#005DAC"/>
</linearGradient>
<linearGradient id="paint16_linear_5431_595" x1="155.152" y1="81.768" x2="111.463" y2="148.963" gradientUnits="userSpaceOnUse">
<stop stop-color="#00B4EE"/>
<stop offset="1" stop-color="#005DAC"/>
</linearGradient>
<linearGradient id="paint17_linear_5431_595" x1="138.588" y1="70.9996" x2="94.9013" y2="138.195" gradientUnits="userSpaceOnUse">
<stop stop-color="#00B4EE"/>
<stop offset="1" stop-color="#005DAC"/>
</linearGradient>
<linearGradient id="paint18_linear_5431_595" x1="127.113" y1="63.5373" x2="83.4257" y2="130.733" gradientUnits="userSpaceOnUse">
<stop stop-color="#00B4EE"/>
<stop offset="1" stop-color="#005DAC"/>
</linearGradient>
<clipPath id="clip0_5431_595">
<rect width="119.721" height="134" fill="white" transform="matrix(-1 0 0 1 228.341 58)"/>
</clipPath>
</defs>
</svg>
