<svg width="250" height="250" viewBox="0 0 250 250" fill="none" xmlns="http://www.w3.org/2000/svg">
<rect width="250" height="250" fill="white"/>
<path d="M167.444 124.999C167.444 128.942 165.323 132.616 161.908 134.589L74.6866 184.948V156.563L129.355 124.999L74.6866 93.4343V65.0492L161.906 115.406C165.323 117.379 167.442 121.055 167.442 124.997L167.444 124.999ZM216.075 124.999C216.075 142.965 206.786 159.056 191.226 168.039L93.3617 224.544C87.063 228.18 80.1507 230 73.2404 230C66.3302 230 59.4178 228.182 53.1191 224.544C40.5219 217.271 33 204.242 33 189.695V60.307C33 45.7576 40.5218 32.7288 53.1213 25.4552C65.7207 18.1816 80.7644 18.1816 93.3638 25.4552L191.228 81.9601C206.788 90.9433 216.077 107.034 216.077 125.003L216.075 124.999ZM197.699 124.999C197.699 113.675 191.844 103.532 182.037 97.8707L84.1728 41.368C80.7495 39.3908 76.9928 38.4033 73.2383 38.4033C69.4837 38.4033 65.7292 39.3908 62.3059 41.3659C55.4594 45.3202 51.3714 52.3984 51.3714 60.3049V189.692C51.3714 197.597 55.4572 204.677 62.3038 208.629C69.1503 212.582 77.3241 212.584 84.1706 208.629L182.035 152.124C191.842 146.463 197.697 136.322 197.697 124.997L197.699 124.999Z" fill="#00AB5E"/>
</svg>
