<svg width="512" height="512" viewBox="0 0 512 512" fill="none" xmlns="http://www.w3.org/2000/svg">
  <rect width="512" height="512" fill="#171717"/>
  <g transform="translate(116.94 97.28) scale(1.90689)">
    <path d="M99.2694 154.11C105.543 154.11 111.594 153.155 117.288 151.38C105 160.844 89.6126 166.471 72.9201 166.471C32.6485 166.471 0 133.737 0 93.3629V0C18.144 0 33.3667 12.5243 37.5415 29.4224C48.0188 23.5817 60.0852 20.2559 72.9201 20.2559C89.6126 20.2559 105 25.878 117.288 35.3423C111.596 33.5692 105.543 32.612 99.2694 32.612C65.8021 32.612 38.6741 59.8122 38.6741 93.3612C38.6741 126.91 65.8004 154.11 99.2694 154.11Z" fill="#63ECAE"/>
    <path d="M145.844 93.5385V93.7269C145.844 94.0903 145.839 94.4503 145.83 94.8103C145.825 94.9247 145.822 95.034 145.822 95.1433C145.005 121.529 123.414 142.66 96.907 142.66C83.5402 142.66 71.4201 137.289 62.5889 128.571C64.8508 129.027 67.1899 129.259 69.5827 129.259C89.3627 129.259 105.398 113.184 105.398 93.3534C105.398 73.5231 89.3627 57.4476 69.5827 57.4476C67.408 57.4476 65.2787 57.6411 63.2097 58.0179C71.9839 49.6639 83.8506 44.5381 96.907 44.5381C123.907 44.5381 145.808 66.4678 145.844 93.5368V93.5385Z" fill="#3ED08E"/>
  </g>
</svg>
