<svg width="300" height="300" viewBox="0 0 300 300" fill="none" xmlns="http://www.w3.org/2000/svg">
<rect width="300" height="300" rx="66" fill="url(#tile)"/>
<path fill-rule="evenodd" clip-rule="evenodd" d="M263.849 131.342C252.279 162.655 217.68 221.477 161.176 252.565C161.176 252.565 111.862 285.89 81.644 238.698C51.5385 191.618 37.2624 135.468 34.5267 118.142C31.7909 100.816 24.6908 44.0039 76.3643 38.4124C104.785 35.2812 139.721 36.8468 172.634 44.1157C167.242 48.3652 163.648 54.8513 163.76 62.0083C164.209 76.8816 170.837 85.8279 186.788 86.3871C202.74 86.9462 212.738 74.8687 212.738 62.0083C212.738 59.9954 212.513 57.9825 211.951 56.1932C223.859 61.0019 234.867 66.817 244.528 73.6386C244.64 73.5267 279.801 88.2882 263.849 131.342ZM177.689 96.1162C148.483 90.6366 159.267 121.054 135.901 156.392C112.76 191.954 86.699 206.827 98.2694 213.649C109.727 220.47 146.573 208.84 169.826 173.39C193.079 138.052 190.945 98.6883 177.689 96.1162Z" fill="white"/>
<defs>
<radialGradient id="tile" cx="0" cy="0" r="1" gradientUnits="userSpaceOnUse" gradientTransform="translate(150 70) scale(280 280)">
<stop stop-color="#E71E25"/>
<stop offset="1" stop-color="#9E181C"/>
</radialGradient>
</defs>
</svg>
