<svg width="650" height="130" viewBox="0 0 650 130" fill="none" xmlns="http://www.w3.org/2000/svg">
<path d="M157.112 13.9938C157.112 13.2168 157.279 12.4954 157.558 11.8849C157.836 11.2745 158.227 10.775 158.728 10.3865C159.23 9.99803 159.732 9.66504 160.345 9.49855C160.958 9.27657 161.571 9.22107 162.185 9.22107C162.798 9.22107 163.467 9.33206 164.024 9.49855C164.638 9.72054 165.195 9.99803 165.641 10.3865C166.143 10.775 166.533 11.2745 166.812 11.8849C167.09 12.4954 167.258 13.2168 167.258 13.9938V58.4469C167.258 59.2238 167.09 59.9453 166.812 60.5557C166.533 61.1662 166.143 61.6657 165.641 62.0542C165.139 62.4426 164.582 62.7756 163.969 62.9421C163.355 63.1641 162.742 63.2196 162.073 63.2196C161.46 63.2196 160.791 63.1086 160.233 62.9421C159.62 62.7201 159.063 62.4426 158.617 62.0542C158.171 61.6657 157.781 61.1662 157.446 60.5557C157.167 59.9453 157 59.2793 157 58.4469V13.9938H157.112Z" fill="white"/>
<path d="M175.842 15.2145C175.842 14.271 176.009 13.4385 176.288 12.6616C176.566 11.9401 176.957 11.2742 177.514 10.7747C178.016 10.2752 178.573 9.88674 179.242 9.60926C179.911 9.33177 180.58 9.22078 181.305 9.22078C182.253 9.22078 183.256 9.44277 184.204 9.94224C185.151 10.4417 186.043 11.1632 186.824 12.1066L213.471 50.011V13.494C213.471 12.7726 213.583 12.1621 213.861 11.6072C214.14 11.0522 214.475 10.6082 214.865 10.2752C215.311 9.94224 215.757 9.66476 216.314 9.44277C216.872 9.27628 217.429 9.16528 217.987 9.16528C218.544 9.16528 219.102 9.27628 219.603 9.44277C220.161 9.60926 220.607 9.88674 221.053 10.2752C221.499 10.6637 221.833 11.1077 222.056 11.6072C222.335 12.1621 222.447 12.7726 222.447 13.494V57.3366C222.447 58.2801 222.279 59.1125 222.001 59.8895C221.722 60.611 221.276 61.2769 220.774 61.7764C220.272 62.2759 219.659 62.6644 218.99 62.9418C218.321 63.2193 217.597 63.3303 216.872 63.3303C215.924 63.3303 214.976 63.1083 214.029 62.6089C213.081 62.1649 212.189 61.3879 211.353 60.389L184.873 22.7065V59.057C184.873 59.7785 184.761 60.389 184.483 60.8884C184.204 61.4434 183.869 61.8874 183.479 62.2204C183.033 62.6089 182.587 62.8308 182.03 63.0528C181.472 63.2193 180.915 63.3303 180.357 63.3303C179.8 63.3303 179.242 63.2193 178.741 63.0528C178.239 62.8863 177.737 62.6089 177.291 62.2759C176.845 61.9429 176.511 61.4989 176.288 60.9439C176.009 60.4445 175.897 59.7785 175.897 59.057V15.2145H175.842Z" fill="white"/>
<path d="M233.373 16.8241C232.704 16.8241 232.147 16.7132 231.645 16.4912C231.143 16.2692 230.753 15.9917 230.419 15.6587C230.084 15.3257 229.861 14.8818 229.694 14.4378C229.527 13.9938 229.471 13.5498 229.471 13.0504C229.471 12.5509 229.527 12.1069 229.694 11.6629C229.861 11.219 230.084 10.775 230.419 10.442C230.753 10.109 231.143 9.77604 231.645 9.55405C232.147 9.33206 232.704 9.22107 233.373 9.22107H269.386C269.999 9.22107 270.557 9.33206 271.059 9.55405C271.56 9.77604 271.951 10.0535 272.285 10.442C272.62 10.775 272.842 11.219 273.01 11.6629C273.177 12.1069 273.233 12.5509 273.233 13.0504C273.233 13.5498 273.177 13.9938 273.01 14.4378C272.842 14.8818 272.62 15.2702 272.285 15.6587C271.951 16.0472 271.56 16.3247 271.059 16.5467C270.557 16.7686 269.999 16.8796 269.386 16.8796H256.564V58.5578C256.564 59.3348 256.397 60.0562 256.118 60.6667C255.84 61.2772 255.449 61.7766 254.948 62.2206C254.446 62.6091 253.944 62.9421 253.331 63.1641C252.718 63.3861 252.104 63.4416 251.491 63.4416C250.878 63.4416 250.209 63.3306 249.596 63.1641C248.983 62.9421 248.425 62.6646 247.979 62.2206C247.477 61.8321 247.087 61.2772 246.808 60.6667C246.53 60.0562 246.362 59.3348 246.362 58.5578V16.8241H233.373Z" fill="white"/>
<path d="M285.889 63.3306C285.22 63.3306 284.607 63.2196 283.994 62.9421C283.381 62.6646 282.879 62.3316 282.433 61.8877C281.987 61.4437 281.597 60.9442 281.318 60.3337C281.039 59.7233 280.872 59.1128 280.872 58.4468V14.0493C280.872 13.4388 280.984 12.8284 281.262 12.2179C281.485 11.6074 281.82 11.108 282.266 10.664C282.712 10.22 283.213 9.83153 283.827 9.60955C284.384 9.33206 285.053 9.22107 285.722 9.22107H313.484C314.098 9.22107 314.655 9.33206 315.157 9.55405C315.603 9.77604 315.993 10.0535 316.328 10.3865C316.662 10.7195 316.885 11.108 317.052 11.5519C317.219 11.9959 317.275 12.4399 317.275 12.9394C317.275 13.3833 317.219 13.8273 317.052 14.2713C316.885 14.7153 316.662 15.1037 316.328 15.4922C315.993 15.8252 315.603 16.1027 315.157 16.3247C314.711 16.5467 314.153 16.6577 313.484 16.6577H290.851V31.9193H312.035C312.648 31.9193 313.206 32.0303 313.707 32.2523C314.209 32.4743 314.599 32.7518 314.934 33.0847C315.268 33.4177 315.491 33.8062 315.659 34.2502C315.826 34.6942 315.882 35.1381 315.882 35.6376C315.882 36.0816 315.826 36.5256 315.659 36.9695C315.491 37.4135 315.268 37.802 314.934 38.1905C314.599 38.5234 314.209 38.8009 313.763 39.0229C313.317 39.2449 312.76 39.3559 312.091 39.3559H290.907V55.894H314.376C314.99 55.894 315.547 56.005 316.049 56.227C316.495 56.449 316.885 56.7264 317.219 57.0594C317.554 57.3924 317.777 57.7809 317.944 58.2249C318.111 58.6688 318.167 59.1128 318.167 59.6123C318.167 60.0563 318.111 60.5002 317.944 60.9442C317.777 61.3882 317.554 61.7767 317.219 62.1651C316.885 62.4981 316.495 62.7756 316.049 62.9976C315.603 63.2196 315.045 63.3306 314.376 63.3306H285.889V63.3306Z" fill="white"/>
<path d="M327.532 14.1603C327.532 13.4943 327.643 12.8284 327.922 12.2179C328.201 11.6074 328.535 11.108 328.981 10.664C329.427 10.22 329.985 9.88703 330.598 9.60955C331.211 9.33206 331.88 9.22107 332.549 9.22107H349.719C352.284 9.22107 354.737 9.44306 357.134 9.83153C359.531 10.22 361.593 10.9415 363.433 11.9959C365.273 13.0504 366.722 14.4378 367.837 16.2137C368.952 17.9896 369.51 20.265 369.51 23.0398C369.51 24.5382 369.287 25.9811 368.785 27.3131C368.339 28.645 367.614 29.8104 366.666 30.8649C365.719 31.9193 364.492 32.8073 363.043 33.5842C361.593 34.3612 359.865 34.9162 357.858 35.3046V35.4711C359.754 35.7486 361.315 36.1926 362.597 36.803C363.823 37.4135 364.827 38.1905 365.607 39.1339C366.388 40.0774 366.945 41.2428 367.335 42.5747C367.726 43.9067 368.004 45.4051 368.227 47.07C368.395 48.5684 368.562 50.0113 368.673 51.3432C368.785 52.6752 368.896 53.8961 369.008 54.895C369.119 56.116 369.175 57.2259 369.287 58.2249V58.6688C369.287 59.4458 369.119 60.1118 368.841 60.6667C368.562 61.2217 368.172 61.7212 367.726 62.1096C367.28 62.4981 366.722 62.7756 366.109 62.9976C365.496 63.2196 364.883 63.2751 364.269 63.2751C363.712 63.2751 363.099 63.1641 362.541 62.9976C361.984 62.8311 361.426 62.5536 360.98 62.2206C360.534 61.8877 360.144 61.4437 359.81 60.8887C359.475 60.3337 359.308 59.7233 359.196 58.9463C358.918 56.2825 358.695 53.8961 358.527 51.8982C358.36 49.9003 358.137 48.1799 357.914 46.737C357.691 45.2941 357.357 44.1286 356.966 43.1852C356.576 42.2417 356.019 41.5203 355.294 41.0208C354.569 40.5213 353.622 40.1329 352.507 39.9109C351.392 39.6889 349.998 39.5779 348.27 39.5779H337.734V58.5023C337.734 59.2793 337.566 60.0008 337.288 60.6112C337.009 61.2217 336.619 61.7212 336.117 62.1096C335.615 62.4981 335.113 62.7756 334.5 62.9976C333.887 63.2196 333.274 63.2751 332.661 63.2751C332.047 63.2751 331.434 63.1641 330.821 62.9976C330.208 62.7756 329.706 62.4981 329.204 62.1096C328.758 61.7212 328.368 61.2217 328.089 60.6112C327.81 60.0008 327.643 59.3348 327.643 58.5023V14.1603H327.532ZM345.761 32.6963C347.322 32.6963 348.939 32.6408 350.5 32.4743C352.116 32.3078 353.566 31.9193 354.848 31.3643C356.13 30.8094 357.189 29.9214 358.026 28.867C358.862 27.757 359.252 26.2586 359.252 24.3717C359.252 22.4848 358.918 20.9864 358.193 19.932C357.468 18.8775 356.576 18.0451 355.461 17.4901C354.346 16.9351 353.12 16.6022 351.726 16.4357C350.332 16.2692 348.995 16.2137 347.712 16.2137H337.622V32.7518H345.761V32.6963Z" fill="white"/>
<path d="M381.105 15.2145C381.105 14.271 381.272 13.4385 381.551 12.6616C381.829 11.9401 382.22 11.2742 382.777 10.7747C383.279 10.2752 383.836 9.88674 384.505 9.60926C385.174 9.33177 385.843 9.22078 386.568 9.22078C387.516 9.22078 388.519 9.44277 389.467 9.94224C390.414 10.4417 391.306 11.1632 392.087 12.1066L418.734 50.011V13.494C418.734 12.7726 418.846 12.1621 419.124 11.6072C419.403 11.0522 419.738 10.6082 420.128 10.2752C420.574 9.94224 421.02 9.66476 421.577 9.44277C422.135 9.27628 422.692 9.16528 423.25 9.16528C423.807 9.16528 424.365 9.27628 424.866 9.44277C425.424 9.60926 425.87 9.88674 426.316 10.2752C426.762 10.6637 427.096 11.1077 427.319 11.6072C427.598 12.1621 427.709 12.7726 427.709 13.494V57.3366C427.709 58.2801 427.542 59.1125 427.264 59.8895C426.985 60.611 426.539 61.2769 426.037 61.7764C425.535 62.2759 424.922 62.6644 424.253 62.9418C423.584 63.2193 422.859 63.3303 422.135 63.3303C421.187 63.3303 420.239 63.1083 419.292 62.6089C418.344 62.1649 417.452 61.3879 416.616 60.389L390.136 22.7065V59.057C390.136 59.7785 390.024 60.389 389.745 60.8884C389.467 61.4434 389.132 61.8874 388.742 62.2204C388.296 62.6089 387.85 62.8308 387.293 63.0528C386.735 63.2193 386.178 63.3303 385.62 63.3303C385.063 63.3303 384.505 63.2193 384.003 63.0528C383.446 62.8863 383 62.6089 382.554 62.2759C382.108 61.9429 381.774 61.4989 381.551 60.9439C381.272 60.4445 381.16 59.7785 381.16 59.057V15.2145H381.105Z" fill="white"/>
<path d="M436.461 36.3034C436.461 32.0857 437.019 28.2564 438.189 24.7601C439.36 21.2638 441.032 18.3224 443.262 15.8251C445.492 13.3277 448.224 11.4408 451.513 10.0534C454.802 8.66596 458.537 8 462.83 8C467.122 8 470.913 8.66596 474.202 10.0534C477.491 11.4408 480.223 13.3277 482.453 15.8251C484.683 18.3224 486.355 21.2638 487.47 24.7601C488.585 28.2564 489.142 32.0857 489.142 36.3034C489.142 40.5212 488.585 44.3505 487.47 47.7913C486.355 51.2321 484.683 54.229 482.453 56.7263C480.223 59.2237 477.491 61.1106 474.202 62.498C470.913 63.8854 467.122 64.5514 462.83 64.5514C458.537 64.5514 454.802 63.8854 451.513 62.498C448.224 61.1106 445.492 59.2237 443.262 56.7263C441.032 54.229 439.36 51.2876 438.189 47.7913C437.074 44.3505 436.461 40.5212 436.461 36.3034ZM447.276 36.3034C447.276 39.3003 447.555 42.0751 448.168 44.628C448.781 47.1808 449.673 49.3452 450.955 51.2321C452.238 53.0635 453.854 54.5064 455.805 55.5609C457.757 56.6153 460.098 57.1148 462.83 57.1148C465.561 57.1148 467.903 56.6153 469.854 55.5609C471.805 54.5064 473.422 53.0635 474.704 51.2321C475.986 49.4007 476.934 47.1808 477.547 44.628C478.16 42.0751 478.439 39.3003 478.439 36.3034C478.439 33.3066 478.16 30.5318 477.547 27.9789C476.934 25.426 476.042 23.2062 474.76 21.3748C473.477 19.5434 471.861 18.0449 469.91 16.9905C467.958 15.9361 465.617 15.4366 462.885 15.4366C460.154 15.4366 457.812 15.9361 455.861 16.9905C453.91 18.0449 452.293 19.4879 451.011 21.3748C449.729 23.2062 448.837 25.426 448.224 27.9789C447.555 30.5873 447.276 33.3066 447.276 36.3034Z" fill="white"/>
<path d="M520.807 55.5055H520.975L535.357 12.6619C535.692 11.6074 536.305 10.7195 537.141 10.1645C537.977 9.55405 538.925 9.27657 539.929 9.27657C540.542 9.27657 541.155 9.38756 541.713 9.60955C542.27 9.83153 542.772 10.1645 543.218 10.4975C543.664 10.886 543.998 11.33 544.221 11.8294C544.5 12.3289 544.611 12.9394 544.611 13.5498C544.611 13.7718 544.556 13.9938 544.556 14.2158C544.556 14.4378 544.5 14.6598 544.388 14.9373L529.392 56.8374C529.002 58.0584 528.556 59.0573 527.999 59.8898C527.441 60.7222 526.828 61.3882 526.103 61.8877C525.379 62.3871 524.598 62.7756 523.706 62.9976C522.814 63.2196 521.867 63.3306 520.752 63.3306C519.692 63.3306 518.745 63.2196 517.908 63.0531C517.072 62.8311 516.236 62.4981 515.567 61.9986C514.842 61.4992 514.229 60.8332 513.672 60.0008C513.114 59.1683 512.668 58.1139 512.222 56.8374L497.003 15.1037C496.836 14.6598 496.78 14.2158 496.78 13.7163C496.78 13.1059 496.892 12.4954 497.171 11.9404C497.449 11.3854 497.784 10.886 498.23 10.4975C498.676 10.109 499.233 9.77604 499.791 9.55405C500.404 9.33206 501.017 9.22107 501.686 9.22107C502.689 9.22107 503.637 9.49855 504.473 10.109C505.31 10.7195 505.867 11.4964 506.202 12.5509L520.807 55.5055Z" fill="white"/>
<path d="M553.309 14.1046C553.309 13.3277 553.476 12.6062 553.755 11.9958C554.034 11.3853 554.424 10.8858 554.87 10.4973C555.316 10.1089 555.873 9.77588 556.487 9.60939C557.1 9.38741 557.713 9.33191 558.382 9.33191C558.995 9.33191 559.664 9.4429 560.222 9.60939C560.835 9.83138 561.392 10.1089 561.838 10.4973C562.34 10.8858 562.73 11.3853 563.009 11.9958C563.288 12.6062 563.455 13.3277 563.455 14.1046V44.5725C563.455 46.6813 563.789 48.5682 564.514 50.0667C565.239 51.6206 566.131 52.897 567.302 53.8959C568.472 54.8949 569.754 55.6718 571.204 56.1713C572.653 56.6708 574.158 56.8928 575.664 56.8928C577.225 56.8928 578.73 56.6708 580.179 56.1713C581.629 55.6718 582.966 54.9504 584.081 53.8959C585.252 52.897 586.144 51.6206 586.869 50.0667C587.594 48.5127 587.928 46.6813 587.928 44.5725V14.1046C587.928 13.3277 588.095 12.6062 588.374 11.9958C588.653 11.3853 589.043 10.8858 589.545 10.4973C590.046 10.1089 590.548 9.77588 591.161 9.60939C591.775 9.38741 592.388 9.33191 593.057 9.33191C593.67 9.33191 594.339 9.4429 594.896 9.60939C595.51 9.83138 596.067 10.1089 596.513 10.4973C597.015 10.8858 597.405 11.3853 597.684 11.9958C597.962 12.6062 598.13 13.3277 598.13 14.1046V44.8499C598.13 48.1798 597.517 51.0656 596.346 53.5075C595.175 55.9493 593.558 58.0027 591.496 59.6676C589.489 61.277 587.092 62.498 584.36 63.3304C581.629 64.1074 578.73 64.5514 575.664 64.5514C572.597 64.5514 569.699 64.1629 566.967 63.3304C564.235 62.5535 561.894 61.3325 559.831 59.6676C557.824 58.0582 556.208 56.0048 555.037 53.5075C553.866 51.0656 553.253 48.1798 553.253 44.8499V14.1046H553.309Z" fill="white"/>
<path d="M617.863 22.8178C617.863 24.3162 618.253 25.5927 619.09 26.5916C619.926 27.5906 621.041 28.4785 622.379 29.1445C623.772 29.8659 625.333 30.4764 627.117 31.0314C628.901 31.5863 630.741 32.1413 632.581 32.6408C634.978 33.3622 637.263 34.1392 639.326 35.0272C641.389 35.8596 643.228 36.914 644.734 38.135C646.239 39.3559 647.465 40.7988 648.357 42.4637C649.249 44.1287 649.695 46.182 649.695 48.5129C649.695 51.0103 649.193 53.2856 648.134 55.2835C647.075 57.2814 645.626 58.9463 643.73 60.3893C641.835 61.7767 639.605 62.8311 636.929 63.6081C634.309 64.3295 631.354 64.718 628.121 64.718C625.724 64.718 623.438 64.496 621.264 64.1076C619.09 63.7191 617.139 63.1641 615.299 62.4426C613.515 61.7212 611.954 60.8887 610.616 59.9453C609.278 59.0018 608.219 57.9474 607.438 56.782C607.215 56.3935 607.16 56.005 607.16 55.5055C607.16 55.0615 607.271 54.5621 607.438 54.1181C607.661 53.6186 607.884 53.2301 608.219 52.8417C608.553 52.4532 608.888 52.1202 609.278 51.8982C609.668 51.6207 610.059 51.5097 610.449 51.5097C610.895 51.5097 611.341 51.6762 611.787 51.8982C612.233 52.1757 612.679 52.4532 613.125 52.7307C613.961 53.2856 614.853 53.7851 615.912 54.2846C616.971 54.7841 618.142 55.2835 619.368 55.672C620.651 56.0605 621.989 56.3935 623.438 56.671C624.887 56.9484 626.448 57.0594 628.065 57.0594C629.682 57.0594 631.187 56.8929 632.581 56.6155C633.974 56.338 635.201 55.8385 636.204 55.228C637.208 54.6176 638.044 53.8406 638.601 52.8972C639.159 51.9537 639.493 50.8438 639.493 49.5673C639.493 47.9024 639.047 46.5705 638.211 45.5161C637.375 44.4616 636.26 43.5737 634.922 42.8522C633.528 42.1308 631.967 41.4648 630.239 40.9653C628.511 40.4658 626.671 39.9109 624.887 39.3559C624.218 39.1339 623.382 38.8564 622.434 38.5235C621.487 38.1905 620.539 37.8575 619.591 37.469C618.644 37.0805 617.752 36.6921 616.86 36.2481C616.024 35.8596 615.299 35.4156 614.797 35.0826C610.17 32.8073 607.829 28.9225 607.829 23.4838C607.829 21.0974 608.33 18.933 609.39 17.0461C610.449 15.1592 611.898 13.5498 613.738 12.2179C615.578 10.886 617.752 9.88703 620.316 9.22107C622.825 8.55511 625.556 8.16663 628.511 8.16663C632.413 8.16663 635.925 8.7216 638.992 9.83153C642.058 10.9415 644.734 12.6064 646.963 14.8818C647.298 15.2147 647.521 15.6032 647.632 15.9917C647.744 16.3802 647.8 16.8242 647.8 17.2681C647.8 17.7121 647.744 18.1561 647.632 18.6001C647.521 19.044 647.298 19.488 647.019 19.821C646.74 20.2095 646.35 20.4869 645.96 20.7644C645.514 20.9864 644.957 21.0974 644.343 21.0974C643.619 21.0974 642.838 20.7089 641.946 19.9875C641.277 19.488 640.441 19.044 639.549 18.5446C638.657 18.0451 637.654 17.6011 636.539 17.2681C635.424 16.8796 634.253 16.6022 633.027 16.3247C631.8 16.1027 630.462 15.9917 629.124 15.9917C627.786 15.9917 626.448 16.1027 625.11 16.3802C623.772 16.6577 622.546 17.0461 621.487 17.6011C620.428 18.1561 619.536 18.8775 618.867 19.7655C618.198 20.4869 617.863 21.5414 617.863 22.8178Z" fill="white"/>
<path d="M183.656 95.2045H180.17C179.963 94.2017 179.603 93.3206 179.087 92.5614C178.581 91.8022 177.962 91.1648 177.231 90.6493C176.51 90.1245 175.708 89.7308 174.827 89.4684C173.946 89.2059 173.028 89.0747 172.072 89.0747C170.328 89.0747 168.749 89.5152 167.334 90.3963C165.928 91.2773 164.808 92.5755 163.973 94.2907C163.149 96.0059 162.736 98.1101 162.736 100.603C162.736 103.096 163.149 105.201 163.973 106.916C164.808 108.631 165.928 109.929 167.334 110.81C168.749 111.691 170.328 112.132 172.072 112.132C173.028 112.132 173.946 112.001 174.827 111.738C175.708 111.476 176.51 111.087 177.231 110.571C177.962 110.046 178.581 109.404 179.087 108.645C179.603 107.877 179.963 106.996 180.17 106.002H183.656C183.394 107.474 182.916 108.79 182.222 109.953C181.529 111.115 180.666 112.104 179.635 112.919C178.604 113.725 177.447 114.339 176.163 114.761C174.888 115.183 173.524 115.394 172.072 115.394C169.616 115.394 167.432 114.794 165.52 113.594C163.608 112.394 162.104 110.688 161.007 108.476C159.91 106.265 159.362 103.64 159.362 100.603C159.362 97.5665 159.91 94.9421 161.007 92.7301C162.104 90.5181 163.608 88.8123 165.52 87.6125C167.432 86.4128 169.616 85.813 172.072 85.813C173.524 85.813 174.888 86.0238 176.163 86.4456C177.447 86.8674 178.604 87.486 179.635 88.3014C180.666 89.1075 181.529 90.0917 182.222 91.2539C182.916 92.4067 183.394 93.7236 183.656 95.2045ZM188.841 115V93.405H192.046V96.6667H192.271C192.665 95.5982 193.377 94.7312 194.408 94.0657C195.439 93.4003 196.601 93.0675 197.895 93.0675C198.139 93.0675 198.443 93.0722 198.809 93.0816C199.174 93.091 199.451 93.105 199.638 93.1238V96.498C199.526 96.4699 199.268 96.4277 198.865 96.3715C198.471 96.3059 198.054 96.2731 197.614 96.2731C196.564 96.2731 195.627 96.4933 194.802 96.9338C193.986 97.365 193.34 97.9648 192.862 98.7334C192.393 99.4926 192.159 100.36 192.159 101.334V115H188.841ZM211.968 115.45C209.887 115.45 208.093 114.991 206.584 114.072C205.084 113.144 203.926 111.851 203.111 110.192C202.305 108.523 201.902 106.583 201.902 104.371C201.902 102.159 202.305 100.21 203.111 98.5225C203.926 96.826 205.06 95.5045 206.513 94.5578C207.975 93.6018 209.681 93.1238 211.631 93.1238C212.756 93.1238 213.866 93.3112 214.963 93.6861C216.059 94.0611 217.058 94.6703 217.957 95.5138C218.857 96.348 219.574 97.454 220.109 98.8318C220.643 100.21 220.91 101.906 220.91 103.921V105.327H204.264V102.459H217.536C217.536 101.241 217.292 100.153 216.805 99.1974C216.327 98.2413 215.642 97.4868 214.752 96.9338C213.871 96.3808 212.831 96.1043 211.631 96.1043C210.309 96.1043 209.166 96.4324 208.2 97.0885C207.244 97.7352 206.509 98.5788 205.993 99.6192C205.478 100.66 205.22 101.775 205.22 102.965V104.877C205.22 106.508 205.501 107.891 206.063 109.025C206.635 110.15 207.427 111.007 208.439 111.598C209.452 112.179 210.628 112.469 211.968 112.469C212.84 112.469 213.627 112.347 214.33 112.104C215.043 111.851 215.656 111.476 216.172 110.979C216.687 110.473 217.086 109.845 217.367 109.095L220.573 109.995C220.235 111.082 219.668 112.038 218.871 112.863C218.075 113.678 217.09 114.316 215.919 114.775C214.747 115.225 213.43 115.45 211.968 115.45ZM232.312 115.506C230.944 115.506 229.702 115.248 228.586 114.733C227.471 114.208 226.585 113.453 225.929 112.469C225.273 111.476 224.945 110.276 224.945 108.87C224.945 107.633 225.189 106.63 225.676 105.861C226.163 105.084 226.815 104.474 227.63 104.034C228.446 103.593 229.345 103.265 230.33 103.05C231.323 102.825 232.321 102.647 233.324 102.515C234.636 102.347 235.7 102.22 236.516 102.136C237.341 102.042 237.94 101.887 238.315 101.672C238.7 101.456 238.892 101.081 238.892 100.547V100.435C238.892 99.0474 238.512 97.9695 237.753 97.201C237.003 96.4324 235.864 96.0481 234.337 96.0481C232.753 96.0481 231.511 96.3949 230.611 97.0885C229.711 97.7821 229.078 98.5225 228.713 99.3099L225.564 98.1851C226.126 96.8729 226.876 95.8513 227.813 95.1202C228.76 94.3797 229.791 93.8642 230.906 93.5737C232.031 93.2737 233.137 93.1238 234.224 93.1238C234.918 93.1238 235.714 93.2081 236.614 93.3768C237.523 93.5362 238.4 93.8689 239.243 94.375C240.096 94.8812 240.804 95.6451 241.366 96.6667C241.929 97.6884 242.21 99.0568 242.21 100.772V115H238.892V112.076H238.723C238.498 112.544 238.123 113.046 237.598 113.58C237.073 114.114 236.375 114.569 235.503 114.944C234.632 115.319 233.568 115.506 232.312 115.506ZM232.818 112.526C234.13 112.526 235.236 112.268 236.136 111.752C237.045 111.237 237.73 110.571 238.189 109.756C238.657 108.94 238.892 108.083 238.892 107.183V104.146C238.751 104.315 238.442 104.47 237.964 104.61C237.495 104.741 236.952 104.859 236.333 104.962C235.724 105.055 235.129 105.14 234.547 105.215C233.976 105.28 233.512 105.337 233.156 105.383C232.293 105.496 231.487 105.679 230.737 105.932C229.997 106.175 229.397 106.546 228.938 107.042C228.488 107.53 228.263 108.195 228.263 109.039C228.263 110.192 228.689 111.063 229.542 111.654C230.405 112.235 231.497 112.526 232.818 112.526ZM257.657 93.405V96.2168H246.466V93.405H257.657ZM249.728 88.2311H253.046V108.814C253.046 109.751 253.182 110.454 253.454 110.923C253.735 111.382 254.091 111.691 254.522 111.851C254.963 112.001 255.427 112.076 255.914 112.076C256.28 112.076 256.579 112.057 256.814 112.019C257.048 111.973 257.236 111.935 257.376 111.907L258.051 114.888C257.826 114.972 257.512 115.056 257.109 115.141C256.706 115.234 256.195 115.281 255.577 115.281C254.639 115.281 253.721 115.08 252.821 114.677C251.931 114.274 251.19 113.66 250.6 112.835C250.018 112.01 249.728 110.97 249.728 109.714V88.2311ZM262.648 115V93.405H265.966V115H262.648ZM264.336 89.8058C263.689 89.8058 263.131 89.5855 262.662 89.145C262.203 88.7045 261.974 88.1749 261.974 87.5563C261.974 86.9377 262.203 86.4081 262.662 85.9676C263.131 85.5271 263.689 85.3068 264.336 85.3068C264.982 85.3068 265.535 85.5271 265.994 85.9676C266.463 86.4081 266.697 86.9377 266.697 87.5563C266.697 88.1749 266.463 88.7045 265.994 89.145C265.535 89.5855 264.982 89.8058 264.336 89.8058ZM289.702 93.405L281.716 115H278.342L270.356 93.405H273.956L279.917 110.614H280.142L286.103 93.405H289.702ZM302.362 115.45C300.282 115.45 298.487 114.991 296.978 114.072C295.478 113.144 294.32 111.851 293.505 110.192C292.699 108.523 292.296 106.583 292.296 104.371C292.296 102.159 292.699 100.21 293.505 98.5225C294.32 96.826 295.455 95.5045 296.907 94.5578C298.369 93.6018 300.075 93.1238 302.025 93.1238C303.15 93.1238 304.26 93.3112 305.357 93.6861C306.454 94.0611 307.452 94.6703 308.352 95.5138C309.251 96.348 309.968 97.454 310.503 98.8318C311.037 100.21 311.304 101.906 311.304 103.921V105.327H294.658V102.459H307.93C307.93 101.241 307.686 100.153 307.199 99.1974C306.721 98.2413 306.036 97.4868 305.146 96.9338C304.265 96.3808 303.225 96.1043 302.025 96.1043C300.703 96.1043 299.56 96.4324 298.594 97.0885C297.638 97.7352 296.903 98.5788 296.387 99.6192C295.872 100.66 295.614 101.775 295.614 102.965V104.877C295.614 106.508 295.895 107.891 296.457 109.025C297.029 110.15 297.821 111.007 298.833 111.598C299.846 112.179 301.022 112.469 302.362 112.469C303.234 112.469 304.021 112.347 304.724 112.104C305.437 111.851 306.051 111.476 306.566 110.979C307.082 110.473 307.48 109.845 307.761 109.095L310.967 109.995C310.629 111.082 310.062 112.038 309.265 112.863C308.469 113.678 307.485 114.316 306.313 114.775C305.141 115.225 303.824 115.45 302.362 115.45ZM327.936 115V86.2066H338.003C340.008 86.2066 341.663 86.5534 342.965 87.247C344.268 87.9312 345.238 88.8544 345.876 90.0167C346.513 91.1695 346.832 92.4489 346.832 93.8549C346.832 95.0921 346.612 96.1137 346.171 96.9198C345.74 97.7258 345.168 98.3632 344.456 98.8318C343.753 99.3005 342.989 99.6473 342.164 99.8722V100.153C343.045 100.21 343.931 100.519 344.821 101.081C345.712 101.644 346.457 102.45 347.057 103.5C347.657 104.549 347.957 105.833 347.957 107.352C347.957 108.795 347.628 110.093 346.972 111.246C346.316 112.399 345.281 113.313 343.865 113.988C342.45 114.663 340.608 115 338.34 115H327.936ZM331.423 111.907H338.34C340.618 111.907 342.234 111.466 343.19 110.585C344.156 109.695 344.639 108.617 344.639 107.352C344.639 106.377 344.39 105.477 343.893 104.652C343.397 103.818 342.689 103.153 341.77 102.656C340.852 102.15 339.765 101.897 338.509 101.897H331.423V111.907ZM331.423 98.86H337.89C338.94 98.86 339.887 98.6538 340.73 98.2413C341.583 97.8289 342.258 97.2478 342.755 96.498C343.261 95.7482 343.514 94.8671 343.514 93.8549C343.514 92.5895 343.073 91.5163 342.192 90.6353C341.311 89.7449 339.915 89.2997 338.003 89.2997H331.423V98.86ZM366.845 106.171V93.405H370.163V115H366.845V111.345H366.62C366.114 112.441 365.327 113.374 364.258 114.142C363.19 114.902 361.84 115.281 360.209 115.281C358.86 115.281 357.66 114.986 356.61 114.395C355.56 113.796 354.735 112.896 354.136 111.696C353.536 110.487 353.236 108.964 353.236 107.127V93.405H356.554V106.902C356.554 108.476 356.994 109.732 357.875 110.67C358.766 111.607 359.9 112.076 361.278 112.076C362.103 112.076 362.941 111.865 363.794 111.443C364.657 111.021 365.378 110.374 365.959 109.503C366.55 108.631 366.845 107.52 366.845 106.171ZM376.24 115V93.405H379.558V115H376.24ZM377.927 89.8058C377.281 89.8058 376.723 89.5855 376.254 89.145C375.795 88.7045 375.565 88.1749 375.565 87.5563C375.565 86.9377 375.795 86.4081 376.254 85.9676C376.723 85.5271 377.281 85.3068 377.927 85.3068C378.574 85.3068 379.127 85.5271 379.586 85.9676C380.055 86.4081 380.289 86.9377 380.289 87.5563C380.289 88.1749 380.055 88.7045 379.586 89.145C379.127 89.5855 378.574 89.8058 377.927 89.8058ZM388.953 86.2066V115H385.635V86.2066H388.953ZM403.185 115.45C401.385 115.45 399.797 114.995 398.419 114.086C397.041 113.168 395.963 111.874 395.185 110.206C394.407 108.528 394.018 106.546 394.018 104.259C394.018 101.99 394.407 100.022 395.185 98.3538C395.963 96.6855 397.046 95.3967 398.433 94.4875C399.82 93.5784 401.423 93.1238 403.241 93.1238C404.647 93.1238 405.758 93.3581 406.573 93.8267C407.398 94.286 408.026 94.8109 408.457 95.4014C408.898 95.9825 409.24 96.4605 409.483 96.8354H409.765V86.2066H413.083V115H409.877V111.682H409.483C409.24 112.076 408.893 112.572 408.443 113.172C407.993 113.763 407.351 114.292 406.517 114.761C405.683 115.22 404.572 115.45 403.185 115.45ZM403.635 112.469C404.966 112.469 406.09 112.123 407.009 111.429C407.928 110.726 408.626 109.756 409.104 108.519C409.582 107.272 409.821 105.833 409.821 104.202C409.821 102.59 409.587 101.18 409.118 99.9706C408.649 98.7522 407.956 97.8055 407.037 97.1307C406.119 96.4464 404.984 96.1043 403.635 96.1043C402.229 96.1043 401.057 96.4652 400.12 97.1869C399.192 97.8992 398.494 98.8693 398.025 100.097C397.566 101.316 397.336 102.684 397.336 104.202C397.336 105.74 397.571 107.136 398.039 108.392C398.517 109.639 399.22 110.632 400.148 111.373C401.085 112.104 402.248 112.469 403.635 112.469ZM428.674 115.45C426.594 115.45 424.799 114.991 423.29 114.072C421.79 113.144 420.632 111.851 419.817 110.192C419.011 108.523 418.608 106.583 418.608 104.371C418.608 102.159 419.011 100.21 419.817 98.5225C420.632 96.826 421.767 95.5045 423.219 94.5578C424.681 93.6018 426.387 93.1238 428.337 93.1238C429.462 93.1238 430.572 93.3112 431.669 93.6861C432.766 94.0611 433.764 94.6703 434.664 95.5138C435.563 96.348 436.28 97.454 436.815 98.8318C437.349 100.21 437.616 101.906 437.616 103.921V105.327H420.97V102.459H434.242C434.242 101.241 433.998 100.153 433.511 99.1974C433.033 98.2413 432.348 97.4868 431.458 96.9338C430.577 96.3808 429.537 96.1043 428.337 96.1043C427.015 96.1043 425.872 96.4324 424.906 97.0885C423.95 97.7352 423.215 98.5788 422.699 99.6192C422.184 100.66 421.926 101.775 421.926 102.965V104.877C421.926 106.508 422.207 107.891 422.769 109.025C423.341 110.15 424.133 111.007 425.145 111.598C426.158 112.179 427.334 112.469 428.674 112.469C429.546 112.469 430.333 112.347 431.036 112.104C431.749 111.851 432.363 111.476 432.878 110.979C433.394 110.473 433.792 109.845 434.073 109.095L437.279 109.995C436.941 111.082 436.374 112.038 435.577 112.863C434.781 113.678 433.797 114.316 432.625 114.775C431.453 115.225 430.136 115.45 428.674 115.45ZM442.663 115V93.405H445.869V96.6667H446.094C446.487 95.5982 447.2 94.7312 448.231 94.0657C449.262 93.4003 450.424 93.0675 451.717 93.0675C451.961 93.0675 452.266 93.0722 452.631 93.0816C452.997 93.091 453.273 93.105 453.461 93.1238V96.498C453.348 96.4699 453.091 96.4277 452.688 96.3715C452.294 96.3059 451.877 96.2731 451.436 96.2731C450.387 96.2731 449.449 96.4933 448.624 96.9338C447.809 97.365 447.162 97.9648 446.684 98.7334C446.216 99.4926 445.981 100.36 445.981 101.334V115H442.663Z" fill="white"/>
<path fill-rule="evenodd" clip-rule="evenodd" d="M132.212 54.0023C125.598 71.9033 105.818 105.532 73.5148 123.305C73.5148 123.305 45.3219 142.356 28.0466 115.377C10.8355 88.4617 2.67395 56.361 1.10993 46.4558C-0.45409 36.5505 -4.51321 4.07141 25.0282 0.874804C41.276 -0.915293 61.2487 -0.0202445 80.0653 4.13534C76.9827 6.56476 74.9276 10.2728 74.9919 14.3645C75.2487 22.8674 79.0377 27.982 88.1571 28.3017C97.2764 28.6213 102.992 21.7166 102.992 14.3645C102.992 13.2137 102.864 12.0629 102.542 11.04C109.35 13.7891 115.643 17.1135 121.166 21.0134C121.231 20.9495 141.332 29.3885 132.212 54.0023ZM82.9552 33.8637C66.2579 30.7311 72.423 48.1206 59.0652 68.3231C45.8357 88.6535 30.9365 97.1565 37.5513 101.056C44.1018 104.956 65.1661 98.3072 78.4598 78.0408C91.7534 57.8383 90.5332 35.3342 82.9552 33.8637Z" fill="url(#paint0_radial_5564_384)"/>
<defs>
<radialGradient id="paint0_radial_5564_384" cx="0" cy="0" r="1" gradientUnits="userSpaceOnUse" gradientTransform="translate(54.4456 40.3371) scale(67.819 64.3272)">
<stop stop-color="#E71E25"/>
<stop offset="0.8627" stop-color="#9E181C"/>
</radialGradient>
</defs>
</svg>
