<svg width="658" height="133" viewBox="0 0 658 133" fill="none" xmlns="http://www.w3.org/2000/svg">
<path d="M634.535 91.4326C630.235 91.4326 626.31 90.3266 622.758 88.1145C619.237 85.9025 616.418 82.9427 614.299 79.2352C612.212 75.4966 611.168 71.3685 611.168 66.8509C611.168 63.4238 611.776 60.2304 612.991 57.2706C614.206 54.2797 615.872 51.6626 617.991 49.4194C620.141 47.1451 622.633 45.3692 625.468 44.0918C628.303 42.8145 631.326 42.1758 634.535 42.1758C637.993 42.1758 641.171 42.8612 644.068 44.232C646.997 45.6029 649.505 47.5189 651.592 49.9802C653.711 52.4415 655.3 55.3234 656.359 58.6259C657.449 61.9283 657.901 65.4956 657.714 69.3278H618.084C618.458 72.2875 619.393 74.9358 620.888 77.2724C622.415 79.6091 624.347 81.4628 626.683 82.8337C629.051 84.1734 631.668 84.8588 634.535 84.8899C637.65 84.8899 640.454 84.0799 642.947 82.4598C645.47 80.8397 647.495 78.6121 649.022 75.777L655.658 77.3192C653.789 81.4628 650.969 84.8588 647.199 87.507C643.429 90.1241 639.208 91.4326 634.535 91.4326ZM617.898 64.0469H651.125C650.907 61.1495 650.019 58.5012 648.461 56.1023C646.934 53.6722 644.956 51.7405 642.526 50.3074C640.096 48.8431 637.432 48.1109 634.535 48.1109C631.637 48.1109 628.989 48.8275 626.59 50.2606C624.191 51.6626 622.228 53.5787 620.702 56.0088C619.175 58.4078 618.24 61.0872 617.898 64.0469Z" fill="#63637F"/>
<path d="M596.573 20.1191H603.116V90.219H596.573V81.4798C594.953 84.4708 592.725 86.8853 589.89 88.7235C587.086 90.5305 583.753 91.434 579.889 91.434C576.493 91.434 573.315 90.7953 570.356 89.518C567.396 88.2406 564.779 86.4803 562.505 84.2371C560.261 81.9628 558.501 79.3457 557.224 76.3859C555.946 73.4262 555.308 70.2483 555.308 66.8523C555.308 63.4564 555.946 60.2785 557.224 57.3188C558.501 54.3279 560.261 51.7108 562.505 49.4676C564.779 47.1932 567.396 45.4174 570.356 44.14C573.315 42.8626 576.493 42.224 579.889 42.224C583.753 42.224 587.086 43.143 589.89 44.9812C592.725 46.7882 594.953 49.1716 596.573 52.1314V20.1191ZM579.936 85.0783C583.27 85.0783 586.136 84.2683 588.535 82.6482C590.934 80.9969 592.772 78.7849 594.049 76.0121C595.358 73.2392 596.012 70.186 596.012 66.8523C596.012 63.4252 595.358 60.3409 594.049 57.5992C592.741 54.8263 590.887 52.6299 588.488 51.0098C586.089 49.3897 583.239 48.5797 579.936 48.5797C576.634 48.5797 573.627 49.4053 570.917 51.0565C568.206 52.6766 566.041 54.8731 564.421 57.6459C562.801 60.4187 561.99 63.4876 561.99 66.8523C561.99 70.2483 562.816 73.3327 564.467 76.1055C566.119 78.8472 568.299 81.0281 571.01 82.6482C573.752 84.2683 576.727 85.0783 579.936 85.0783Z" fill="#63637F"/>
<path d="M543.13 43.4843H549.672V90.2175H543.13L542.896 81.5251C541.37 84.4849 539.235 86.8839 536.494 88.7221C533.752 90.5291 530.481 91.4326 526.68 91.4326C523.253 91.4326 520.044 90.7939 517.053 89.5165C514.062 88.208 511.429 86.4166 509.155 84.1422C506.88 81.8679 505.105 79.2352 503.827 76.2443C502.55 73.2534 501.911 70.0444 501.911 66.6172C501.911 63.2525 502.534 60.0902 503.78 57.1304C505.058 54.1706 506.803 51.5692 509.015 49.326C511.258 47.0828 513.844 45.3381 516.772 44.0918C519.732 42.8145 522.894 42.1758 526.259 42.1758C530.154 42.1758 533.55 43.1104 536.447 44.9798C539.344 46.8179 541.65 49.2325 543.363 52.2234L543.13 43.4843ZM526.54 85.0769C529.873 85.0769 532.739 84.2668 535.138 82.6467C537.537 80.9955 539.376 78.7835 540.653 76.0106C541.962 73.2378 542.616 70.1845 542.616 66.8509C542.616 63.4238 541.962 60.3394 540.653 57.5977C539.344 54.8249 537.491 52.6284 535.092 51.0084C532.693 49.3883 529.842 48.5782 526.54 48.5782C523.237 48.5782 520.215 49.4038 517.473 51.0551C514.763 52.6752 512.597 54.8716 510.977 57.6445C509.388 60.4173 508.594 63.4861 508.594 66.8509C508.594 70.2469 509.42 73.3313 511.071 76.1041C512.722 78.8458 514.903 81.0267 517.613 82.6467C520.355 84.2668 523.331 85.0769 526.54 85.0769Z" fill="#63637F"/>
<path d="M474.412 90.2175V43.4843H480.954V49.9335C482.606 47.5657 484.755 45.6808 487.403 44.2788C490.052 42.8768 492.934 42.1758 496.049 42.1758C497.856 42.1758 499.601 42.4094 501.283 42.8768L498.619 49.3727C497.311 48.9677 496.034 48.7652 494.787 48.7652C492.264 48.7652 489.943 49.3883 487.824 50.6345C485.737 51.8807 484.07 53.5475 482.824 55.6349C481.577 57.7224 480.954 60.0434 480.954 62.5982V90.2175H474.412Z" fill="#63637F"/>
<path d="M466.072 50.0294H454.903L454.856 90.2199H448.313L448.36 50.0294H439.901V43.4867H448.36L448.313 28.8125H454.856L454.903 43.4867H466.072V50.0294Z" fill="#63637F"/>
<path d="M432.849 60.4952V90.2175H419.95V64.0469C419.95 62.3957 419.545 60.9158 418.735 59.6073C417.956 58.2676 416.897 57.2083 415.557 56.4294C414.249 55.6505 412.785 55.2611 411.165 55.2611C409.544 55.2611 408.065 55.6505 406.725 56.4294C405.385 57.2083 404.326 58.2676 403.547 59.6073C402.768 60.9158 402.379 62.3957 402.379 64.0469V90.2175H389.48L389.434 43.4843H402.332L402.379 46.9426C403.936 45.4471 405.759 44.2788 407.846 43.4376C409.965 42.5964 412.193 42.1758 414.529 42.1758C417.925 42.1758 420.994 43.0014 423.736 44.6526C426.509 46.3039 428.721 48.5159 430.372 51.2888C432.023 54.0304 432.849 57.0992 432.849 60.4952Z" fill="#060751"/>
<path d="M365.793 43.4853H378.692V90.2185H365.793V43.4853ZM372.336 38.111C370.466 38.111 368.893 37.4879 367.616 36.2416C366.338 34.9954 365.7 33.4532 365.7 31.6151C365.7 29.7769 366.338 28.2347 367.616 26.9885C368.893 25.7422 370.451 25.1191 372.289 25.1191C374.127 25.1191 375.669 25.7422 376.916 26.9885C378.193 28.2347 378.832 29.7769 378.832 31.6151C378.832 33.4532 378.209 34.9954 376.962 36.2416C375.747 37.4879 374.205 38.111 372.336 38.111Z" fill="#060751"/>
<path d="M343.505 43.4843H356.403V90.2175H343.458L342.85 85.3573C341.635 87.1643 340.078 88.6286 338.177 89.7502C336.277 90.8718 334.049 91.4326 331.494 91.4326C328.005 91.4326 324.749 90.7783 321.727 89.4698C318.705 88.1613 316.041 86.3542 313.736 84.0487C311.43 81.7432 309.623 79.0794 308.314 76.0574C307.037 73.0041 306.398 69.7328 306.398 66.2434C306.398 62.9097 307.006 59.7942 308.221 56.8967C309.436 53.9993 311.15 51.4445 313.362 49.2325C315.574 47.0205 318.113 45.2913 320.979 44.0451C323.877 42.7989 326.992 42.1758 330.326 42.1758C333.192 42.1758 335.762 42.7833 338.037 43.9984C340.342 45.2134 342.352 46.7556 344.065 48.625L343.505 43.4843ZM331.167 79.0483C333.286 79.0483 335.202 78.5031 336.915 77.4126C338.629 76.3222 339.984 74.8579 340.981 73.0197C341.978 71.1504 342.476 69.0941 342.476 66.8509C342.476 64.5766 341.978 62.5203 340.981 60.6821C339.984 58.844 338.629 57.3797 336.915 56.2892C335.202 55.1988 333.286 54.6535 331.167 54.6535C329.017 54.6535 327.07 55.1988 325.325 56.2892C323.581 57.3797 322.194 58.8595 321.166 60.7289C320.138 62.567 319.624 64.6077 319.624 66.8509C319.624 69.0941 320.138 71.1504 321.166 73.0197C322.225 74.8579 323.627 76.3222 325.372 77.4126C327.117 78.5031 329.048 79.0483 331.167 79.0483Z" fill="#060751"/>
<path d="M276.116 90.2175L276.069 43.4843H288.968L289.014 46.9426C290.572 45.4471 292.395 44.2788 294.482 43.4376C296.601 42.5964 298.828 42.1758 301.165 42.1758C302.879 42.1758 304.592 42.425 306.306 42.9235L301.212 55.9621C300.09 55.4947 298.953 55.2611 297.8 55.2611C296.18 55.2611 294.7 55.6505 293.361 56.4294C292.021 57.2083 290.962 58.2676 290.183 59.6073C289.404 60.9158 289.014 62.3957 289.014 64.0469V90.2175H276.116Z" fill="#060751"/>
<path d="M244.262 42.1772C248.811 42.1772 252.939 43.2832 256.647 45.4953C260.385 47.7073 263.361 50.6827 265.573 54.4213C267.785 58.1288 268.891 62.2413 268.891 66.7589C268.891 70.1548 268.252 73.3483 266.975 76.3392C265.697 79.3301 263.921 81.9628 261.647 84.2371C259.404 86.4803 256.787 88.2406 253.796 89.518C250.836 90.7953 247.658 91.434 244.262 91.434C241.583 91.434 239.199 90.8421 237.112 89.6582C235.025 88.4742 233.233 86.9788 231.738 85.1718V90.219H218.839V20.1191H231.738V48.4395C233.233 46.6013 235.025 45.1058 237.112 43.9531C239.199 42.7692 241.583 42.1772 244.262 42.1772ZM244.075 78.9563C246.225 78.9563 248.172 78.411 249.917 77.3206C251.693 76.2301 253.095 74.7658 254.123 72.9277C255.151 71.0583 255.665 69.0021 255.665 66.7589C255.665 64.5157 255.135 62.475 254.076 60.6368C253.048 58.7987 251.646 57.3344 249.87 56.2439C248.126 55.1223 246.194 54.5615 244.075 54.5615C241.957 54.5615 240.041 55.1223 238.327 56.2439C236.645 57.3344 235.305 58.8142 234.308 60.6836C233.342 62.5217 232.859 64.5468 232.859 66.7589C232.859 69.0332 233.342 71.0895 234.308 72.9277C235.305 74.7658 236.645 76.2301 238.327 77.3206C240.041 78.411 241.957 78.9563 244.075 78.9563Z" fill="#060751"/>
<g clip-path="url(#clip0_5482_379)">
<path fill-rule="evenodd" clip-rule="evenodd" d="M161.622 76.2457C161.622 76.2457 161.699 76.323 161.734 76.3574C167.18 81.8035 176.01 81.8035 181.465 76.3574C186.911 70.9113 186.911 62.0807 181.465 56.626C176.019 51.1799 167.188 51.1799 161.734 56.626C161.699 56.6603 161.656 56.7033 161.622 56.7377C152.585 65.6541 138.06 65.6541 129.023 56.7377C128.988 56.7033 128.945 56.6603 128.911 56.626C123.465 51.1799 114.634 51.1799 109.18 56.626C109.145 56.6603 109.102 56.7033 109.068 56.7377C100.04 65.6456 85.4797 65.6971 76.4688 56.7377C73.7973 54.0833 70.2753 52.5371 66.4957 52.5371C62.7161 52.5371 59.134 54.049 56.4969 56.7634C56.4969 56.7634 56.4883 56.772 56.4797 56.7806C47.4515 65.6456 32.9171 65.6799 23.9233 56.7377C21.2518 54.0833 17.7299 52.5371 13.9503 52.5371C6.24498 52.5371 0 58.7821 0 66.4874C0 74.1927 6.24498 80.4376 13.9503 80.4376C17.7299 80.4376 21.2604 78.8914 23.9233 76.2371C32.9085 67.2948 47.4515 67.3292 56.4797 76.1942C56.4797 76.1942 56.4883 76.2027 56.4969 76.2113C59.134 78.9172 62.7161 80.4376 66.4957 80.4376C70.2753 80.4376 73.8058 78.8914 76.4688 76.2371C85.4797 67.2777 100.04 67.3292 109.068 76.2371C109.102 76.2715 109.145 76.3144 109.18 76.3488C114.626 81.7949 123.456 81.7949 128.911 76.3488C128.945 76.3144 128.988 76.2715 129.023 76.2371C138.06 67.3206 152.585 67.3206 161.622 76.2371V76.2457Z" fill="#FF7532"/>
<path fill-rule="evenodd" clip-rule="evenodd" d="M128.911 128.91C134.357 123.464 134.357 114.633 128.911 109.178C123.465 103.732 114.634 103.732 109.18 109.178C103.734 114.624 103.734 123.455 109.18 128.91C114.626 134.356 123.456 134.356 128.911 128.91Z" fill="#FF7532"/>
<path fill-rule="evenodd" clip-rule="evenodd" d="M92.773 26.2773C88.9934 26.2773 85.4629 27.8236 82.8 30.4779C73.8062 39.4287 59.2031 39.4287 50.2007 30.4779C47.5292 27.8236 44.0072 26.2773 40.2276 26.2773C32.5223 26.2773 26.2773 32.5223 26.2773 40.2276C26.2773 47.9329 32.5223 54.1779 40.2276 54.1779C44.0072 54.1779 47.5378 52.6317 50.2007 49.9773C59.2031 41.0265 73.7976 41.0265 82.8 49.9773C85.4715 52.6317 88.9934 54.1779 92.773 54.1779C96.5527 54.1779 100.083 52.6317 102.746 49.9773C111.74 41.0265 126.343 41.0265 135.345 49.9773C138.017 52.6317 141.539 54.1779 145.318 54.1779C153.024 54.1779 159.269 47.9329 159.269 40.2276C159.269 32.5223 153.024 26.2773 145.318 26.2773C141.539 26.2773 138.008 27.8236 135.345 30.4779C126.343 39.4287 111.748 39.4287 102.746 30.4779C100.075 27.8236 96.5527 26.2773 92.773 26.2773Z" fill="#FFA072"/>
<path fill-rule="evenodd" clip-rule="evenodd" d="M135.345 83.0232C126.317 91.9311 111.757 91.9826 102.746 83.0232C100.074 80.3689 96.5522 78.8227 92.7725 78.8227C85.0672 78.8227 78.8223 85.0676 78.8223 92.7729C78.8223 100.478 85.0672 106.723 92.7725 106.723C96.5522 106.723 100.083 105.177 102.746 102.523C111.757 93.5632 126.317 93.6147 135.345 102.523C135.379 102.557 135.422 102.6 135.457 102.634C140.903 108.08 149.733 108.08 155.188 102.634C160.634 97.1882 160.634 88.3576 155.188 82.9029C149.742 77.4568 140.911 77.4568 135.457 82.9029C135.422 82.9373 135.379 82.9802 135.345 83.0146V83.0232Z" fill="#FFA072"/>
<path fill-rule="evenodd" clip-rule="evenodd" d="M109.068 4.20093C100.04 13.1088 85.4797 13.1604 76.4687 4.20093C73.8058 1.5466 70.2753 0.000389113 66.4957 0.000389113C58.7904 0.000389113 52.5454 6.24537 52.5454 13.9507C52.5454 21.6559 58.7904 27.9009 66.4957 27.9009C70.2753 27.9009 73.8058 26.3547 76.4687 23.7004C85.4797 14.7409 100.04 14.7925 109.068 23.7004C109.102 23.7347 109.145 23.7777 109.18 23.8121C114.626 29.2582 123.456 29.2582 128.911 23.8121C134.357 18.3659 134.357 9.53536 128.911 4.08067C123.465 -1.36543 114.634 -1.36543 109.18 4.08067C109.145 4.11503 109.102 4.15798 109.068 4.19234V4.20093Z" fill="#FF7532"/>
</g>
<defs>
<clipPath id="clip0_5482_379">
<rect width="185.545" height="133" fill="white"/>
</clipPath>
</defs>
</svg>
