<svg width="200" height="41" viewBox="0 0 200 41" fill="none" xmlns="http://www.w3.org/2000/svg">
<path d="M192.368 27.7725C191.065 27.7725 189.875 27.4372 188.798 26.7666C187.731 26.096 186.876 25.1987 186.234 24.0747C185.601 22.9413 185.285 21.6898 185.285 20.3202C185.285 19.2812 185.469 18.3131 185.837 17.4158C186.205 16.5091 186.711 15.7157 187.353 15.0356C188.005 14.3461 188.76 13.8077 189.62 13.4205C190.479 13.0332 191.396 12.8396 192.368 12.8396C193.417 12.8396 194.38 13.0474 195.259 13.463C196.147 13.8786 196.907 14.4595 197.54 15.2056C198.182 15.9518 198.664 16.8255 198.985 17.8267C199.315 18.8279 199.452 19.9094 199.396 21.0711H187.381C187.495 21.9684 187.778 22.7713 188.231 23.4797C188.694 24.188 189.28 24.75 189.988 25.1656C190.706 25.5718 191.5 25.7796 192.368 25.789C193.313 25.789 194.163 25.5434 194.919 25.0523C195.684 24.5611 196.298 23.8858 196.761 23.0263L198.772 23.4938C198.206 24.75 197.351 25.7796 196.208 26.5824C195.065 27.3758 193.785 27.7725 192.368 27.7725ZM187.325 19.4702H197.398C197.332 18.5917 197.063 17.7889 196.59 17.0616C196.128 16.3249 195.528 15.7393 194.791 15.3048C194.054 14.8609 193.247 14.6389 192.368 14.6389C191.49 14.6389 190.687 14.8562 189.96 15.2906C189.233 15.7157 188.638 16.2966 188.175 17.0333C187.712 17.7606 187.429 18.5729 187.325 19.4702Z" fill="#63637F"/>
<path d="M180.86 6.15234H182.843V27.4041H180.86V24.7547C180.369 25.6615 179.693 26.3935 178.834 26.9507C177.984 27.4986 176.973 27.7725 175.802 27.7725C174.772 27.7725 173.809 27.5789 172.912 27.1916C172.014 26.8043 171.221 26.2707 170.531 25.5906C169.851 24.9011 169.318 24.1077 168.93 23.2104C168.543 22.3131 168.35 21.3497 168.35 20.3202C168.35 19.2907 168.543 18.3272 168.93 17.43C169.318 16.5232 169.851 15.7298 170.531 15.0498C171.221 14.3603 172.014 13.8219 172.912 13.4346C173.809 13.0474 174.772 12.8537 175.802 12.8537C176.973 12.8537 177.984 13.1324 178.834 13.6896C179.693 14.2375 180.369 14.96 180.86 15.8573V6.15234ZM175.816 25.8457C176.827 25.8457 177.696 25.6001 178.423 25.1089C179.15 24.6083 179.707 23.9377 180.095 23.0971C180.491 22.2565 180.69 21.3308 180.69 20.3202C180.69 19.2812 180.491 18.3461 180.095 17.515C179.698 16.6743 179.136 16.0084 178.409 15.5173C177.681 15.0261 176.817 14.7806 175.816 14.7806C174.815 14.7806 173.903 15.0309 173.082 15.5315C172.26 16.0226 171.603 16.6885 171.112 17.5291C170.621 18.3698 170.376 19.3001 170.376 20.3202C170.376 21.3497 170.626 22.2848 171.126 23.1254C171.627 23.9566 172.288 24.6178 173.11 25.1089C173.941 25.6001 174.843 25.8457 175.816 25.8457Z" fill="#63637F"/>
<path d="M164.658 13.2363H166.641V27.4041H164.658L164.587 24.7689C164.124 25.6662 163.477 26.3935 162.646 26.9508C161.815 27.4986 160.823 27.7725 159.671 27.7725C158.632 27.7725 157.659 27.5789 156.752 27.1916C155.845 26.7949 155.047 26.2518 154.358 25.5623C153.668 24.8728 153.13 24.0747 152.743 23.168C152.355 22.2612 152.162 21.2884 152.162 20.2494C152.162 19.2293 152.351 18.2706 152.728 17.3733C153.116 16.476 153.645 15.6873 154.315 15.0073C154.995 14.3272 155.779 13.7983 156.667 13.4205C157.564 13.0332 158.523 12.8396 159.543 12.8396C160.724 12.8396 161.753 13.123 162.632 13.6897C163.51 14.2469 164.209 14.9789 164.729 15.8857L164.658 13.2363ZM159.628 25.8457C160.639 25.8457 161.508 25.6001 162.235 25.109C162.962 24.6084 163.52 23.9377 163.907 23.0971C164.304 22.2565 164.502 21.3309 164.502 20.3202C164.502 19.2812 164.304 18.3462 163.907 17.515C163.51 16.6744 162.948 16.0085 162.221 15.5173C161.494 15.0262 160.629 14.7806 159.628 14.7806C158.627 14.7806 157.711 15.0309 156.88 15.5315C156.058 16.0226 155.401 16.6885 154.91 17.5292C154.429 18.3698 154.188 19.3001 154.188 20.3202C154.188 21.3498 154.438 22.2848 154.939 23.1255C155.439 23.9566 156.1 24.6178 156.922 25.109C157.753 25.6001 158.655 25.8457 159.628 25.8457Z" fill="#63637F"/>
<path d="M143.825 27.4041V13.2363H145.808V15.1915C146.309 14.4736 146.961 13.9022 147.763 13.4772C148.566 13.0521 149.44 12.8396 150.384 12.8396C150.932 12.8396 151.461 12.9104 151.971 13.0521L151.164 15.0214C150.767 14.8987 150.38 14.8373 150.002 14.8373C149.237 14.8373 148.533 15.0262 147.891 15.404C147.258 15.7818 146.753 16.2871 146.375 16.9199C145.997 17.5528 145.808 18.2564 145.808 19.0309V27.4041H143.825Z" fill="#63637F"/>
<path d="M141.296 15.2198H137.91L137.896 27.4042H135.913L135.927 15.2198H133.362V13.2363H135.927L135.913 8.7876H137.896L137.91 13.2363H141.296V15.2198Z" fill="#63637F"/>
<path d="M131.224 18.3934V27.4041H127.314V19.4702C127.314 18.9696 127.191 18.5209 126.946 18.1242C126.71 17.7181 126.389 17.3969 125.982 17.1608C125.586 16.9247 125.142 16.8066 124.651 16.8066C124.159 16.8066 123.711 16.9247 123.305 17.1608C122.899 17.3969 122.577 17.7181 122.341 18.1242C122.105 18.5209 121.987 18.9696 121.987 19.4702V27.4041H118.077L118.063 13.2363H121.973L121.987 14.2847C122.459 13.8313 123.012 13.4772 123.645 13.2221C124.287 12.9671 124.962 12.8396 125.671 12.8396C126.7 12.8396 127.631 13.0899 128.462 13.5905C129.302 14.0911 129.973 14.7617 130.474 15.6023C130.974 16.4335 131.224 17.3639 131.224 18.3934Z" fill="#060751"/>
<path d="M110.896 13.2363H114.806V27.4041H110.896V13.2363ZM112.879 11.607C112.312 11.607 111.835 11.4181 111.448 11.0403C111.061 10.6625 110.867 10.1949 110.867 9.63766C110.867 9.0804 111.061 8.61286 111.448 8.23505C111.835 7.85724 112.308 7.66833 112.865 7.66833C113.422 7.66833 113.89 7.85724 114.268 8.23505C114.655 8.61286 114.848 9.0804 114.848 9.63766C114.848 10.1949 114.66 10.6625 114.282 11.0403C113.913 11.4181 113.446 11.607 112.879 11.607Z" fill="#060751"/>
<path d="M104.138 13.2363H108.049V27.4041H104.124L103.94 25.9307C103.572 26.4785 103.099 26.9224 102.523 27.2625C101.947 27.6025 101.272 27.7725 100.497 27.7725C99.4394 27.7725 98.4524 27.5742 97.5362 27.1775C96.62 26.7808 95.8125 26.2329 95.1135 25.534C94.4146 24.835 93.8667 24.0275 93.47 23.1113C93.0828 22.1857 92.8892 21.1939 92.8892 20.136C92.8892 19.1254 93.0733 18.1809 93.4417 17.3025C93.8101 16.4241 94.3296 15.6496 95.0002 14.9789C95.6708 14.3083 96.4406 13.7841 97.3095 13.4063C98.1879 13.0285 99.1325 12.8396 100.143 12.8396C101.012 12.8396 101.791 13.0238 102.481 13.3921C103.18 13.7605 103.789 14.228 104.308 14.7948L104.138 13.2363ZM100.398 24.018C101.04 24.018 101.621 23.8527 102.141 23.5222C102.66 23.1916 103.071 22.7476 103.373 22.1904C103.676 21.6237 103.827 21.0003 103.827 20.3202C103.827 19.6307 103.676 19.0073 103.373 18.4501C103.071 17.8928 102.66 17.4489 102.141 17.1183C101.621 16.7877 101.04 16.6224 100.398 16.6224C99.7464 16.6224 99.1561 16.7877 98.6271 17.1183C98.0982 17.4489 97.6779 17.8975 97.3662 18.4642C97.0545 19.0215 96.8987 19.6402 96.8987 20.3202C96.8987 21.0003 97.0545 21.6237 97.3662 22.1904C97.6873 22.7476 98.1124 23.1916 98.6413 23.5222C99.1702 23.8527 99.7558 24.018 100.398 24.018Z" fill="#060751"/>
<path d="M83.7086 27.4041L83.6945 13.2363H87.6048L87.619 14.2847C88.0912 13.8313 88.6438 13.4772 89.2766 13.2221C89.9189 12.9671 90.5942 12.8396 91.3026 12.8396C91.8221 12.8396 92.3416 12.9152 92.8611 13.0663L91.3168 17.0191C90.9767 16.8774 90.632 16.8066 90.2825 16.8066C89.7914 16.8066 89.3427 16.9247 88.9366 17.1608C88.5304 17.3969 88.2093 17.7181 87.9731 18.1242C87.737 18.5209 87.619 18.9696 87.619 19.4702V27.4041H83.7086Z" fill="#060751"/>
<path d="M74.0517 12.8396C75.4307 12.8396 76.6822 13.1749 77.8061 13.8455C78.9396 14.5161 79.8416 15.4181 80.5122 16.5515C81.1828 17.6755 81.5181 18.9223 81.5181 20.2919C81.5181 21.3214 81.3245 22.2895 80.9372 23.1963C80.55 24.103 80.0116 24.9011 79.3221 25.5906C78.6421 26.2707 77.8487 26.8043 76.9419 27.1916C76.0446 27.5789 75.0812 27.7725 74.0517 27.7725C73.2394 27.7725 72.5168 27.593 71.884 27.2341C71.2512 26.8752 70.7081 26.4218 70.2547 25.874V27.4041H66.3444V6.15234H70.2547V14.7381C70.7081 14.1808 71.2512 13.7274 71.884 13.3779C72.5168 13.019 73.2394 12.8396 74.0517 12.8396ZM73.995 23.9897C74.6467 23.9897 75.237 23.8244 75.766 23.4938C76.3044 23.1632 76.7294 22.7193 77.0411 22.162C77.3528 21.5953 77.5086 20.9719 77.5086 20.2919C77.5086 19.6118 77.3481 18.9931 77.0269 18.4359C76.7152 17.8786 76.2902 17.4347 75.7518 17.1041C75.2229 16.7641 74.6373 16.594 73.995 16.594C73.3527 16.594 72.7718 16.7641 72.2524 17.1041C71.7423 17.4347 71.3362 17.8833 71.0339 18.45C70.7411 19.0073 70.5947 19.6212 70.5947 20.2919C70.5947 20.9814 70.7411 21.6047 71.0339 22.162C71.3362 22.7193 71.7423 23.1632 72.2524 23.4938C72.7718 23.8244 73.3527 23.9897 73.995 23.9897Z" fill="#060751"/>
<g clip-path="url(#clip0_2581_3735)">
<path fill-rule="evenodd" clip-rule="evenodd" d="M48.9981 23.1148C48.9981 23.1148 49.0215 23.1383 49.0319 23.1487C50.683 24.7998 53.3601 24.7998 55.0138 23.1487C56.6648 21.4976 56.6648 18.8205 55.0138 17.1668C53.3627 15.5158 50.6856 15.5158 49.0319 17.1668C49.0215 17.1773 49.0085 17.1903 48.9981 17.2007C46.2584 19.9039 41.8547 19.9039 39.1151 17.2007C39.1047 17.1903 39.0917 17.1773 39.0813 17.1668C37.4302 15.5158 34.7531 15.5158 33.0994 17.1668C33.089 17.1773 33.076 17.1903 33.0656 17.2007C30.3285 19.9013 25.9144 19.9169 23.1826 17.2007C22.3727 16.396 21.305 15.9272 20.1591 15.9272C19.0133 15.9272 17.9273 16.3856 17.1278 17.2085C17.1278 17.2085 17.1252 17.2111 17.1226 17.2137C14.3856 19.9013 9.9793 19.9117 7.2527 17.2007C6.4428 16.396 5.37507 15.9272 4.22923 15.9272C1.89326 15.9272 0 17.8205 0 20.1565C0 22.4924 1.89326 24.3857 4.22923 24.3857C5.37507 24.3857 6.4454 23.9169 7.2527 23.1122C9.9767 20.4013 14.3856 20.4117 17.1226 23.0992C17.1226 23.0992 17.1252 23.1018 17.1278 23.1044C17.9273 23.9248 19.0133 24.3857 20.1591 24.3857C21.305 24.3857 22.3753 23.9169 23.1826 23.1122C25.9144 20.3961 30.3285 20.4117 33.0656 23.1122C33.076 23.1227 33.089 23.1357 33.0994 23.1461C34.7505 24.7972 37.4276 24.7972 39.0813 23.1461C39.0917 23.1357 39.1047 23.1227 39.1151 23.1122C41.8547 20.4091 46.2584 20.4091 48.9981 23.1122V23.1148Z" fill="#FF7532"/>
<path fill-rule="evenodd" clip-rule="evenodd" d="M39.0812 39.0812C40.7323 37.4302 40.7323 34.7531 39.0812 33.0994C37.4302 31.4483 34.7531 31.4483 33.0994 33.0994C31.4483 34.7504 31.4483 37.4276 33.0994 39.0812C34.7504 40.7323 37.4276 40.7323 39.0812 39.0812Z" fill="#FF7532"/>
<path fill-rule="evenodd" clip-rule="evenodd" d="M28.1254 7.96631C26.9796 7.96631 25.9093 8.43506 25.102 9.23976C22.3754 11.9533 17.9482 11.9533 15.219 9.23976C14.4091 8.43506 13.3414 7.96631 12.1955 7.96631C9.85956 7.96631 7.96631 9.85956 7.96631 12.1955C7.96631 14.5315 9.85956 16.4248 12.1955 16.4248C13.3414 16.4248 14.4117 15.956 15.219 15.1513C17.9482 12.4377 22.3728 12.4377 25.102 15.1513C25.9119 15.956 26.9796 16.4248 28.1254 16.4248C29.2713 16.4248 30.3416 15.956 31.1489 15.1513C33.8755 12.4377 38.3027 12.4377 41.0319 15.1513C41.8418 15.956 42.9095 16.4248 44.0553 16.4248C46.3913 16.4248 48.2846 14.5315 48.2846 12.1955C48.2846 9.85956 46.3913 7.96631 44.0553 7.96631C42.9095 7.96631 41.8392 8.43506 41.0319 9.23976C38.3027 11.9533 33.8781 11.9533 31.1489 9.23976C30.339 8.43506 29.2713 7.96631 28.1254 7.96631Z" fill="#FFA072"/>
<path fill-rule="evenodd" clip-rule="evenodd" d="M41.0318 25.1695C38.2948 27.8701 33.8807 27.8857 31.1489 25.1695C30.339 24.3648 29.2713 23.8961 28.1254 23.8961C25.7894 23.8961 23.8962 25.7893 23.8962 28.1253C23.8962 30.4613 25.7894 32.3545 28.1254 32.3545C29.2713 32.3545 30.3416 31.8858 31.1489 31.0811C33.8807 28.3649 38.2948 28.3805 41.0318 31.0811C41.0422 31.0915 41.0553 31.1045 41.0657 31.1149C42.7167 32.766 45.3939 32.766 47.0475 31.1149C48.6986 29.4639 48.6986 26.7867 47.0475 25.1331C45.3965 23.482 42.7194 23.482 41.0657 25.1331C41.0553 25.1435 41.0422 25.1565 41.0318 25.1669V25.1695Z" fill="#FFA072"/>
<path fill-rule="evenodd" clip-rule="evenodd" d="M33.0655 1.27341C30.3285 3.97397 25.9144 3.9896 23.1826 1.27341C22.3753 0.468716 21.3049 -4.06422e-05 20.1591 -4.06422e-05C17.8231 -4.06422e-05 15.9299 1.89321 15.9299 4.22918C15.9299 6.56515 17.8231 8.45841 20.1591 8.45841C21.3049 8.45841 22.3753 7.98965 23.1826 7.18496C25.9144 4.46877 30.3285 4.4844 33.0655 7.18496C33.0759 7.19537 33.089 7.20839 33.0994 7.21881C34.7504 8.86987 37.4276 8.86987 39.0812 7.21881C40.7323 5.56774 40.7323 2.89062 39.0812 1.23696C37.4302 -0.414109 34.753 -0.414109 33.0994 1.23696C33.089 1.24737 33.0759 1.26039 33.0655 1.27081V1.27341Z" fill="#FF7532"/>
</g>
<defs>
<clipPath id="clip0_2581_3735">
<rect width="56.2508" height="40.3209" fill="white"/>
</clipPath>
</defs>
</svg>
