<svg width="800" height="800" viewBox="0 0 800 800" fill="none" xmlns="http://www.w3.org/2000/svg">
<rect width="800" height="800" fill="white"/>
<path d="M173.414 541.802C178.751 541.802 183.596 543.1 187.946 545.696C192.333 548.292 195.825 551.783 198.421 556.17C201.016 560.521 202.314 565.347 202.314 570.648C202.314 574.633 201.565 578.381 200.066 581.89C198.567 585.4 196.483 588.489 193.814 591.158C191.182 593.791 188.111 595.856 184.601 597.355C181.128 598.854 177.399 599.604 173.414 599.604C170.269 599.604 167.473 598.909 165.023 597.52C162.574 596.13 160.471 594.376 158.717 592.255V598.178H143.581V515.918H158.717V549.151C160.471 546.994 162.574 545.239 165.023 543.886C167.473 542.497 170.269 541.802 173.414 541.802ZM173.194 584.961C175.717 584.961 178.002 584.322 180.049 583.042C182.133 581.762 183.778 580.044 184.985 577.887C186.191 575.693 186.795 573.28 186.795 570.648C186.795 568.016 186.173 565.621 184.93 563.464C183.724 561.307 182.078 559.589 179.994 558.309C177.947 556.993 175.68 556.335 173.194 556.335C170.708 556.335 168.46 556.993 166.449 558.309C164.475 559.589 162.903 561.325 161.733 563.519C160.599 565.676 160.033 568.052 160.033 570.648C160.033 573.317 160.599 575.73 161.733 577.887C162.903 580.044 164.475 581.762 166.449 583.042C168.46 584.322 170.708 584.961 173.194 584.961ZM210.793 598.178L210.738 543.338H225.874L225.929 547.396C227.757 545.641 229.895 544.27 232.345 543.283C234.831 542.296 237.445 541.802 240.187 541.802C242.198 541.802 244.209 542.095 246.219 542.68L240.242 557.98C238.926 557.432 237.591 557.158 236.239 557.158C234.338 557.158 232.601 557.615 231.029 558.529C229.457 559.443 228.214 560.686 227.3 562.258C226.386 563.793 225.929 565.53 225.929 567.467V598.178H210.793ZM289.871 543.338H305.007V598.178H289.816L289.103 592.474C287.677 594.595 285.849 596.313 283.619 597.629C281.389 598.945 278.775 599.604 275.777 599.604C271.683 599.604 267.862 598.836 264.316 597.3C260.769 595.765 257.644 593.644 254.938 590.939C252.233 588.233 250.112 585.108 248.577 581.561C247.078 577.978 246.328 574.14 246.328 570.045C246.328 566.133 247.041 562.477 248.467 559.077C249.893 555.677 251.904 552.679 254.499 550.083C257.095 547.487 260.075 545.458 263.438 543.996C266.838 542.534 270.494 541.802 274.406 541.802C277.77 541.802 280.786 542.515 283.455 543.941C286.16 545.367 288.518 547.177 290.529 549.37L289.871 543.338ZM275.393 585.071C277.879 585.071 280.128 584.431 282.139 583.152C284.149 581.872 285.74 580.154 286.91 577.997C288.08 575.803 288.665 573.39 288.665 570.758C288.665 568.089 288.08 565.676 286.91 563.519C285.74 561.362 284.149 559.644 282.139 558.364C280.128 557.084 277.879 556.445 275.393 556.445C272.871 556.445 270.586 557.084 268.538 558.364C266.491 559.644 264.864 561.38 263.658 563.574C262.451 565.731 261.848 568.126 261.848 570.758C261.848 573.39 262.451 575.803 263.658 577.997C264.901 580.154 266.546 581.872 268.593 583.152C270.641 584.431 272.907 585.071 275.393 585.071ZM316.026 543.338H331.162V598.178H316.026V543.338ZM323.704 537.031C321.51 537.031 319.664 536.3 318.165 534.838C316.666 533.375 315.917 531.566 315.917 529.409C315.917 527.252 316.666 525.442 318.165 523.979C319.664 522.517 321.492 521.786 323.649 521.786C325.806 521.786 327.616 522.517 329.078 523.979C330.577 525.442 331.327 527.252 331.327 529.409C331.327 531.566 330.595 533.375 329.133 534.838C327.707 536.3 325.897 537.031 323.704 537.031ZM394.714 563.3V598.178H379.578V567.467C379.578 565.53 379.103 563.793 378.152 562.258C377.238 560.686 375.995 559.443 374.423 558.529C372.887 557.615 371.169 557.158 369.268 557.158C367.367 557.158 365.63 557.615 364.058 558.529C362.486 559.443 361.243 560.686 360.329 562.258C359.415 563.793 358.958 565.53 358.958 567.467V598.178H343.822L343.767 543.338H358.903L358.958 547.396C360.786 545.641 362.925 544.27 365.374 543.283C367.86 542.296 370.474 541.802 373.216 541.802C377.201 541.802 380.803 542.771 384.02 544.709C387.274 546.647 389.869 549.242 391.807 552.496C393.745 555.713 394.714 559.315 394.714 563.3Z" fill="#060751"/>
<path d="M433.7 551.016H420.593L420.538 598.178H412.86L412.915 551.016H402.989V543.338H412.915L412.86 526.118H420.538L420.593 543.338H433.7V551.016ZM443.486 598.178V543.338H451.163V550.906C453.101 548.127 455.624 545.915 458.731 544.27C461.839 542.625 465.221 541.802 468.877 541.802C470.997 541.802 473.045 542.077 475.019 542.625L471.893 550.248C470.357 549.772 468.858 549.535 467.396 549.535C464.435 549.535 461.711 550.266 459.225 551.728C456.775 553.191 454.819 555.147 453.357 557.596C451.895 560.046 451.163 562.77 451.163 565.767V598.178H443.486ZM524.124 543.338H531.802V598.178H524.124L523.85 587.978C522.059 591.451 519.554 594.266 516.337 596.423C513.12 598.543 509.281 599.604 504.821 599.604C500.799 599.604 497.034 598.854 493.524 597.355C490.014 595.82 486.925 593.717 484.256 591.049C481.587 588.38 479.503 585.29 478.004 581.781C476.505 578.271 475.756 574.505 475.756 570.484C475.756 566.535 476.487 562.824 477.949 559.351C479.448 555.878 481.496 552.825 484.091 550.193C486.724 547.561 489.758 545.513 493.195 544.051C496.668 542.552 500.379 541.802 504.327 541.802C508.897 541.802 512.882 542.899 516.282 545.093C519.682 547.25 522.388 550.083 524.399 553.593L524.124 543.338ZM504.656 592.145C508.568 592.145 511.932 591.195 514.747 589.294C517.562 587.356 519.719 584.76 521.218 581.506C522.753 578.253 523.521 574.67 523.521 570.758C523.521 566.736 522.753 563.117 521.218 559.9C519.682 556.646 517.507 554.068 514.692 552.167C511.877 550.266 508.532 549.315 504.656 549.315C500.781 549.315 497.235 550.284 494.017 552.222C490.837 554.123 488.296 556.701 486.395 559.954C484.53 563.208 483.598 566.809 483.598 570.758C483.598 574.743 484.567 578.362 486.504 581.616C488.442 584.833 491.001 587.393 494.182 589.294C497.399 591.195 500.891 592.145 504.656 592.145ZM586.838 515.918H594.516V598.178H586.838V587.923C584.937 591.432 582.323 594.266 578.996 596.423C575.706 598.543 571.794 599.604 567.26 599.604C563.275 599.604 559.546 598.854 556.073 597.355C552.6 595.856 549.529 593.791 546.86 591.158C544.227 588.489 542.162 585.418 540.663 581.945C539.164 578.472 538.414 574.743 538.414 570.758C538.414 566.773 539.164 563.044 540.663 559.571C542.162 556.061 544.227 552.99 546.86 550.357C549.529 547.689 552.6 545.605 556.073 544.106C559.546 542.607 563.275 541.857 567.26 541.857C571.794 541.857 575.706 542.936 578.996 545.093C582.323 547.213 584.937 550.01 586.838 553.483V515.918ZM567.315 592.145C571.227 592.145 574.59 591.195 577.406 589.294C580.221 587.356 582.378 584.76 583.877 581.506C585.412 578.253 586.18 574.67 586.18 570.758C586.18 566.736 585.412 563.117 583.877 559.9C582.341 556.646 580.166 554.068 577.351 552.167C574.536 550.266 571.19 549.315 567.315 549.315C563.44 549.315 559.912 550.284 556.731 552.222C553.55 554.123 551.009 556.701 549.108 559.954C547.207 563.208 546.257 566.809 546.257 570.758C546.257 574.743 547.225 578.362 549.163 581.616C551.101 584.833 553.66 587.393 556.841 589.294C560.058 591.195 563.549 592.145 567.315 592.145ZM631.385 599.604C626.34 599.604 621.733 598.306 617.565 595.71C613.434 593.114 610.125 589.641 607.639 585.29C605.19 580.903 603.965 576.059 603.965 570.758C603.965 566.736 604.678 562.989 606.104 559.516C607.53 556.006 609.486 552.935 611.972 550.303C614.494 547.634 617.419 545.55 620.746 544.051C624.073 542.552 627.619 541.802 631.385 541.802C635.443 541.802 639.172 542.607 642.572 544.215C646.009 545.824 648.952 548.072 651.402 550.961C653.888 553.849 655.752 557.231 656.995 561.106C658.275 564.981 658.805 569.167 658.586 573.664H612.081C612.52 577.138 613.617 580.245 615.372 582.987C617.163 585.729 619.43 587.904 622.172 589.513C624.951 591.085 628.022 591.889 631.385 591.926C635.041 591.926 638.331 590.975 641.256 589.074C644.218 587.173 646.594 584.559 648.385 581.232L656.173 583.042C653.979 587.904 650.67 591.889 646.247 594.997C641.823 598.068 636.869 599.604 631.385 599.604ZM611.862 567.467H650.853C650.597 564.067 649.555 560.96 647.727 558.145C645.936 555.293 643.614 553.026 640.763 551.345C637.911 549.626 634.785 548.767 631.385 548.767C627.985 548.767 624.877 549.608 622.062 551.29C619.247 552.935 616.944 555.183 615.152 558.035C613.361 560.85 612.264 563.994 611.862 567.467Z" fill="#63637F"/>
<g clip-path="url(#clip0_5482_415)">
<path fill-rule="evenodd" clip-rule="evenodd" d="M555.011 344.826C555.011 344.826 555.185 345 555.262 345.077C567.535 357.35 587.436 357.35 599.728 345.077C612.002 332.804 612.002 312.904 599.728 300.611C587.455 288.338 567.555 288.338 555.262 300.611C555.185 300.689 555.088 300.785 555.011 300.863C534.646 320.957 501.911 320.957 481.546 300.863C481.468 300.785 481.371 300.689 481.294 300.611C469.021 288.338 449.12 288.338 436.828 300.611C436.75 300.689 436.653 300.785 436.576 300.863C416.23 320.937 383.418 321.054 363.111 300.863C357.091 294.881 349.154 291.396 340.636 291.396C332.118 291.396 324.046 294.804 318.103 300.921C318.103 300.921 318.083 300.94 318.064 300.96C297.718 320.937 264.964 321.015 244.696 300.863C238.675 294.881 230.738 291.396 222.221 291.396C204.856 291.396 190.783 305.47 190.783 322.834C190.783 340.199 204.856 354.272 222.221 354.272C230.738 354.272 238.695 350.788 244.696 344.806C264.945 324.654 297.718 324.732 318.064 344.709C318.064 344.709 318.083 344.729 318.103 344.748C324.046 350.846 332.118 354.272 340.636 354.272C349.154 354.272 357.11 350.788 363.111 344.806C383.418 324.615 416.23 324.732 436.576 344.806C436.653 344.884 436.75 344.98 436.828 345.058C449.101 357.331 469.001 357.331 481.294 345.058C481.371 344.98 481.468 344.884 481.546 344.806C501.911 324.712 534.646 324.712 555.011 344.806V344.826Z" fill="#FF7532"/>
<path fill-rule="evenodd" clip-rule="evenodd" d="M481.294 463.509C493.567 451.236 493.567 431.335 481.294 419.043C469.02 406.77 449.12 406.77 436.827 419.043C424.554 431.316 424.554 451.216 436.827 463.509C449.101 475.782 469.001 475.782 481.294 463.509Z" fill="#FF7532"/>
<path fill-rule="evenodd" clip-rule="evenodd" d="M399.853 232.217C391.335 232.217 383.379 235.701 377.378 241.683C357.109 261.854 324.2 261.854 303.913 241.683C297.892 235.701 289.955 232.217 281.438 232.217C264.073 232.217 250 246.29 250 263.655C250 281.019 264.073 295.093 281.438 295.093C289.955 295.093 297.911 291.608 303.913 285.627C324.2 265.455 357.09 265.455 377.378 285.627C383.398 291.608 391.335 295.093 399.853 295.093C408.37 295.093 416.327 291.608 422.328 285.627C442.596 265.455 475.505 265.455 495.793 285.627C501.813 291.608 509.75 295.093 518.268 295.093C535.632 295.093 549.706 281.019 549.706 263.655C549.706 246.29 535.632 232.217 518.268 232.217C509.75 232.217 501.794 235.701 495.793 241.683C475.505 261.854 442.615 261.854 422.328 241.683C416.307 235.701 408.37 232.217 399.853 232.217Z" fill="#FFA072"/>
<path fill-rule="evenodd" clip-rule="evenodd" d="M495.793 360.097C475.447 380.172 442.635 380.288 422.328 360.097C416.308 354.115 408.371 350.631 399.853 350.631C382.489 350.631 368.415 364.704 368.415 382.069C368.415 399.433 382.489 413.507 399.853 413.507C408.371 413.507 416.327 410.022 422.328 404.041C442.635 383.85 475.447 383.966 495.793 404.041C495.871 404.118 495.967 404.215 496.045 404.292C508.318 416.565 528.218 416.565 540.511 404.292C552.784 392.019 552.784 372.119 540.511 359.826C528.238 347.553 508.337 347.553 496.045 359.826C495.967 359.903 495.871 360 495.793 360.078V360.097Z" fill="#FFA072"/>
<path fill-rule="evenodd" clip-rule="evenodd" d="M436.575 182.466C416.23 202.541 383.417 202.657 363.11 182.466C357.109 176.484 349.153 173 340.635 173C323.271 173 309.197 187.073 309.197 204.438C309.197 221.802 323.271 235.876 340.635 235.876C349.153 235.876 357.109 232.391 363.11 226.41C383.417 206.219 416.23 206.335 436.575 226.41C436.653 226.487 436.75 226.584 436.827 226.661C449.1 238.935 469.001 238.935 481.293 226.661C493.566 214.388 493.566 194.488 481.293 182.195C469.02 169.922 449.12 169.922 436.827 182.195C436.75 182.273 436.653 182.369 436.575 182.447V182.466Z" fill="#FF7532"/>
</g>
<defs>
<clipPath id="clip0_5482_415">
<rect width="418.141" height="299.726" fill="white" transform="translate(190.783 173)"/>
</clipPath>
</defs>
</svg>
