<svg width="250" height="250" viewBox="0 0 250 250" fill="none" xmlns="http://www.w3.org/2000/svg">
<g clip-path="url(#clip0_5482_324)">
<path fill-rule="evenodd" clip-rule="evenodd" d="M197.6 135.405C197.6 135.405 197.682 135.487 197.718 135.524C203.501 141.339 212.876 141.339 218.668 135.524C224.45 129.709 224.45 120.281 218.668 114.457C212.886 108.643 203.51 108.643 197.718 114.457C197.682 114.494 197.636 114.54 197.6 114.577C188.005 124.096 172.583 124.096 162.988 114.577C162.951 114.54 162.906 114.494 162.869 114.457C157.087 108.643 147.711 108.643 141.92 114.457C141.883 114.494 141.838 114.54 141.801 114.577C132.216 124.087 116.757 124.142 107.19 114.577C104.353 111.743 100.614 110.092 96.6008 110.092C92.5878 110.092 88.7846 111.706 85.9847 114.604C85.9847 114.604 85.9756 114.613 85.9664 114.622C76.3809 124.087 60.9493 124.124 51.4002 114.577C48.5638 111.743 44.8244 110.092 40.8115 110.092C32.6305 110.092 26 116.759 26 124.986C26 133.213 32.6305 139.88 40.8115 139.88C44.8244 139.88 48.5729 138.229 51.4002 135.396C60.9401 125.848 76.3809 125.885 85.9664 135.35C85.9664 135.35 85.9756 135.359 85.9847 135.368C88.7846 138.257 92.5878 139.88 96.6008 139.88C100.614 139.88 104.362 138.229 107.19 135.396C116.757 125.83 132.216 125.885 141.801 135.396C141.838 135.432 141.883 135.478 141.92 135.515C147.702 141.329 157.078 141.329 162.869 135.515C162.906 135.478 162.951 135.432 162.988 135.396C172.583 125.876 188.005 125.876 197.6 135.396V135.405Z" fill="#FF7532"/>
<path fill-rule="evenodd" clip-rule="evenodd" d="M162.869 191.635C168.652 185.82 168.652 176.392 162.869 170.568C157.087 164.753 147.711 164.753 141.92 170.568C136.138 176.383 136.138 185.811 141.92 191.635C147.702 197.449 157.078 197.449 162.869 191.635Z" fill="#FF7532"/>
<path fill-rule="evenodd" clip-rule="evenodd" d="M124.5 82.0547C120.487 82.0547 116.739 83.7055 113.911 86.5395C104.362 96.096 88.8578 96.096 79.2996 86.5395C76.4632 83.7055 72.7239 82.0547 68.7109 82.0547C60.5299 82.0547 53.8994 88.7223 53.8994 96.949C53.8994 105.176 60.5299 111.843 68.7109 111.843C72.7239 111.843 76.4723 110.192 79.2996 107.358C88.8578 97.8019 104.353 97.8019 113.911 107.358C116.748 110.192 120.487 111.843 124.5 111.843C128.513 111.843 132.262 110.192 135.089 107.358C144.638 97.8019 160.143 97.8019 169.701 107.358C172.537 110.192 176.277 111.843 180.29 111.843C188.47 111.843 195.101 105.176 195.101 96.949C195.101 88.7223 188.47 82.0547 180.29 82.0547C176.277 82.0547 172.528 83.7055 169.701 86.5395C160.143 96.096 144.647 96.096 135.089 86.5395C132.253 83.7055 128.513 82.0547 124.5 82.0547Z" fill="#FFA072"/>
<path fill-rule="evenodd" clip-rule="evenodd" d="M169.701 142.642C160.115 152.152 144.656 152.207 135.089 142.642C132.252 139.808 128.513 138.157 124.5 138.157C116.319 138.157 109.688 144.824 109.688 153.051C109.688 161.278 116.319 167.945 124.5 167.945C128.513 167.945 132.261 166.295 135.089 163.461C144.656 153.895 160.115 153.95 169.701 163.461C169.737 163.497 169.783 163.543 169.819 163.58C175.601 169.395 184.977 169.395 190.769 163.58C196.551 157.765 196.551 148.337 190.769 142.513C184.986 136.699 175.611 136.699 169.819 142.513C169.783 142.55 169.737 142.596 169.701 142.633V142.642Z" fill="#FFA072"/>
<path fill-rule="evenodd" clip-rule="evenodd" d="M141.801 58.4855C132.216 67.9962 116.757 68.0512 107.19 58.4855C104.362 55.6515 100.614 54.0007 96.6008 54.0007C88.4198 54.0007 81.7893 60.6682 81.7893 68.8949C81.7893 77.1217 88.4198 83.7892 96.6008 83.7892C100.614 83.7892 104.362 82.1384 107.19 79.3044C116.757 69.7387 132.216 69.7937 141.801 79.3044C141.838 79.3411 141.883 79.387 141.92 79.4237C147.702 85.2383 157.078 85.2383 162.869 79.4237C168.652 73.609 168.652 64.1809 162.869 58.3571C157.087 52.5424 147.711 52.5424 141.92 58.3571C141.883 58.3938 141.838 58.4396 141.801 58.4763V58.4855Z" fill="#FF7532"/>
</g>
<defs>
<clipPath id="clip0_5482_324">
<rect width="197" height="142" fill="white" transform="translate(26 54)"/>
</clipPath>
</defs>
</svg>
