<svg width="250" height="250" viewBox="0 0 250 250" fill="none" xmlns="http://www.w3.org/2000/svg">
<rect width="250" height="250" fill="white"/>
<g clip-path="url(#clip0_5665_345)">
<path fill-rule="evenodd" clip-rule="evenodd" d="M198.6 135.405C198.6 135.405 198.682 135.487 198.718 135.524C204.501 141.339 213.876 141.339 219.668 135.524C225.45 129.709 225.45 120.281 219.668 114.457C213.886 108.643 204.51 108.643 198.718 114.457C198.682 114.494 198.636 114.54 198.6 114.577C189.005 124.096 173.583 124.096 163.988 114.577C163.951 114.54 163.906 114.494 163.869 114.457C158.087 108.643 148.711 108.643 142.92 114.457C142.883 114.494 142.838 114.54 142.801 114.577C133.216 124.087 117.757 124.142 108.19 114.577C105.353 111.743 101.614 110.092 97.6008 110.092C93.5878 110.092 89.7846 111.706 86.9847 114.604C86.9847 114.604 86.9756 114.613 86.9664 114.622C77.3809 124.087 61.9493 124.124 52.4002 114.577C49.5638 111.743 45.8244 110.092 41.8115 110.092C33.6305 110.092 27 116.759 27 124.986C27 133.213 33.6305 139.88 41.8115 139.88C45.8244 139.88 49.5729 138.229 52.4002 135.396C61.9401 125.848 77.3809 125.885 86.9664 135.35C86.9664 135.35 86.9756 135.359 86.9847 135.368C89.7846 138.257 93.5878 139.88 97.6008 139.88C101.614 139.88 105.362 138.229 108.19 135.396C117.757 125.83 133.216 125.885 142.801 135.396C142.838 135.432 142.883 135.478 142.92 135.515C148.702 141.329 158.078 141.329 163.869 135.515C163.906 135.478 163.951 135.432 163.988 135.396C173.583 125.876 189.005 125.876 198.6 135.396V135.405Z" fill="#FF7532"/>
<path fill-rule="evenodd" clip-rule="evenodd" d="M163.869 191.635C169.652 185.82 169.652 176.392 163.869 170.568C158.087 164.753 148.711 164.753 142.92 170.568C137.138 176.383 137.138 185.811 142.92 191.635C148.702 197.449 158.078 197.449 163.869 191.635Z" fill="#FF7532"/>
<path fill-rule="evenodd" clip-rule="evenodd" d="M125.5 82.0557C121.487 82.0557 117.739 83.7065 114.911 86.5405C105.362 96.097 89.8578 96.097 80.2996 86.5405C77.4632 83.7065 73.7239 82.0557 69.7109 82.0557C61.5299 82.0557 54.8994 88.7232 54.8994 96.9499C54.8994 105.177 61.5299 111.844 69.7109 111.844C73.7239 111.844 77.4723 110.193 80.2996 107.359C89.8578 97.8029 105.353 97.8029 114.911 107.359C117.748 110.193 121.487 111.844 125.5 111.844C129.513 111.844 133.262 110.193 136.089 107.359C145.638 97.8029 161.143 97.8029 170.701 107.359C173.537 110.193 177.277 111.844 181.29 111.844C189.47 111.844 196.101 105.177 196.101 96.9499C196.101 88.7232 189.47 82.0557 181.29 82.0557C177.277 82.0557 173.528 83.7065 170.701 86.5405C161.143 96.097 145.647 96.097 136.089 86.5405C133.253 83.7065 129.513 82.0557 125.5 82.0557Z" fill="#FFA072"/>
<path fill-rule="evenodd" clip-rule="evenodd" d="M170.701 142.641C161.115 152.151 145.656 152.206 136.089 142.641C133.252 139.807 129.513 138.156 125.5 138.156C117.319 138.156 110.688 144.824 110.688 153.05C110.688 161.277 117.319 167.944 125.5 167.944C129.513 167.944 133.261 166.294 136.089 163.46C145.656 153.894 161.115 153.949 170.701 163.46C170.737 163.496 170.783 163.542 170.819 163.579C176.601 169.394 185.977 169.394 191.769 163.579C197.551 157.764 197.551 148.336 191.769 142.512C185.986 136.698 176.611 136.698 170.819 142.512C170.783 142.549 170.737 142.595 170.701 142.632V142.641Z" fill="#FFA072"/>
<path fill-rule="evenodd" clip-rule="evenodd" d="M142.801 58.4845C133.216 67.9952 117.757 68.0502 108.19 58.4845C105.362 55.6505 101.614 53.9997 97.6008 53.9997C89.4198 53.9997 82.7893 60.6673 82.7893 68.894C82.7893 77.1207 89.4198 83.7882 97.6008 83.7882C101.614 83.7882 105.362 82.1374 108.19 79.3035C117.757 69.7377 133.216 69.7928 142.801 79.3035C142.838 79.3401 142.883 79.386 142.92 79.4227C148.702 85.2373 158.078 85.2373 163.869 79.4227C169.652 73.608 169.652 64.1799 163.869 58.3561C158.087 52.5415 148.711 52.5415 142.92 58.3561C142.883 58.3928 142.838 58.4386 142.801 58.4753V58.4845Z" fill="#FF7532"/>
</g>
<defs>
<clipPath id="clip0_5665_345">
<rect width="197" height="142" fill="white" transform="translate(27 54)"/>
</clipPath>
</defs>
</svg>
