<svg width="250" height="250" viewBox="0 0 250 250" fill="none" xmlns="http://www.w3.org/2000/svg">
<rect width="250" height="250" fill="white"/>
<path d="M182.636 61C187.091 61 191.292 61.8597 195.239 63.5792C199.186 65.2596 202.625 67.5652 205.556 70.4961C208.487 73.427 210.792 76.8659 212.473 80.8128C214.192 84.7598 215.052 88.9607 215.052 93.4157C215.052 97.9097 214.192 102.13 212.473 106.077C210.792 110.024 208.487 113.463 205.556 116.394C202.625 119.325 199.186 121.65 195.239 123.369C191.292 125.05 187.091 125.89 182.636 125.89C178.142 125.89 173.922 125.05 169.975 123.369C166.028 121.65 162.589 119.325 159.658 116.394C156.727 113.463 154.402 110.024 152.683 106.077C151.002 102.13 150.162 97.9097 150.162 93.4157C150.162 88.9607 151.002 84.7598 152.683 80.8128C154.402 76.8659 156.727 73.427 159.658 70.4961C162.589 67.5652 166.028 65.2596 169.975 63.5792C173.922 61.8597 178.142 61 182.636 61ZM182.636 74.5993C180.135 74.5993 177.771 75.0878 175.544 76.0648C173.355 77.0418 171.44 78.3704 169.799 80.0508C168.158 81.7312 166.849 83.7242 165.872 86.0298C164.934 88.3355 164.465 90.7974 164.465 93.4157C164.465 96.073 164.934 98.5545 165.872 100.86C166.849 103.127 168.158 105.12 169.799 106.839C171.44 108.52 173.355 109.848 175.544 110.825C177.771 111.802 180.135 112.291 182.636 112.291C185.098 112.291 187.423 111.802 189.612 110.825C191.839 109.848 193.774 108.52 195.415 106.839C197.056 105.12 198.346 103.127 199.284 100.86C200.261 98.5545 200.749 96.073 200.749 93.4157C200.749 90.7974 200.261 88.3355 199.284 86.0298C198.346 83.7242 197.056 81.7312 195.415 80.0508C193.774 78.3704 191.839 77.0418 189.612 76.0648C187.423 75.0878 185.098 74.5993 182.636 74.5993Z" fill="#0050F9"/>
<path d="M115.485 61C119.94 61 124.141 61.8597 128.088 63.5792C132.034 65.2596 135.473 67.5652 138.404 70.4961C141.335 73.427 143.641 76.8659 145.321 80.8128C147.041 84.7598 147.9 88.9607 147.9 93.4157C147.9 97.9097 147.041 102.13 145.321 106.077C143.641 110.024 141.335 113.463 138.404 116.394C135.473 119.325 132.034 121.65 128.088 123.369C124.141 125.05 119.94 125.89 115.485 125.89C110.991 125.89 106.77 125.05 102.823 123.369C98.8763 121.65 95.4374 119.325 92.5065 116.394C89.5756 113.463 87.2504 110.024 85.5309 106.077C83.8506 102.13 83.0104 97.9097 83.0104 93.4157C83.0104 88.9607 83.8506 84.7598 85.5309 80.8128C87.2504 76.8659 89.5756 73.427 92.5065 70.4961C95.4374 67.5652 98.8763 65.2596 102.823 63.5792C106.77 61.8597 110.991 61 115.485 61ZM115.485 74.5993C112.984 74.5993 110.619 75.0878 108.392 76.0648C106.204 77.0418 104.289 78.3704 102.647 80.0508C101.006 81.7312 99.6969 83.7242 98.72 86.0298C97.7821 88.3355 97.3131 90.7974 97.3131 93.4157C97.3131 96.073 97.7821 98.5545 98.72 100.86C99.6969 103.127 101.006 105.12 102.647 106.839C104.289 108.52 106.204 109.848 108.392 110.825C110.619 111.802 112.984 112.291 115.485 112.291C117.947 112.291 120.272 111.802 122.46 110.825C124.688 109.848 126.622 108.52 128.263 106.839C129.905 105.12 131.194 103.127 132.132 100.86C133.109 98.5545 133.598 96.073 133.598 93.4157C133.598 90.7974 133.109 88.3355 132.132 86.0298C131.194 83.7242 129.905 81.7312 128.263 80.0508C126.622 78.3704 124.688 77.0418 122.46 76.0648C120.272 75.0878 117.947 74.5993 115.485 74.5993Z" fill="#0050F9"/>
<path d="M34.8207 66.4515C38.455 64.6929 42.4605 63.3447 46.8373 62.4068C51.2141 61.4689 55.5323 61 59.7919 61C63.0354 61 66.064 61.3126 68.8776 61.9379C71.6913 62.5241 74.1337 63.501 76.2049 64.8688C78.276 66.2365 79.8978 68.0537 81.0702 70.3202C82.2425 72.5868 82.8287 75.3809 82.8287 78.7026C82.8287 81.907 82.3988 84.5839 81.5391 86.7333C80.6794 88.8826 79.4093 90.7388 77.7289 92.302C76.0486 93.8651 73.9383 95.2719 71.3982 96.5224C68.8972 97.7339 66.0054 99.043 62.7228 100.45C60.8079 101.27 59.1471 101.993 57.7402 102.619C56.3725 103.205 55.2197 103.772 54.2818 104.319C53.3439 104.827 52.5819 105.354 51.9957 105.901C51.4095 106.409 50.9601 106.996 50.6475 107.66C50.3348 108.324 50.1199 109.086 50.0027 109.946C49.8854 110.806 49.8073 111.841 49.7682 113.053H81.9494V124.483H34V116.335C34 112.545 34.4885 109.282 35.4654 106.546C36.4424 103.811 37.8492 101.446 39.6859 99.4533C41.5226 97.4603 43.7501 95.7213 46.3684 94.2363C48.9866 92.7514 51.9371 91.3641 55.2197 90.0745C57.0564 89.332 58.6977 88.6676 60.1436 88.0815C61.6286 87.4953 62.8791 86.831 63.8951 86.0885C64.9112 85.3069 65.6927 84.3885 66.2398 83.3334C66.7869 82.2392 67.0605 80.8128 67.0605 79.0543C67.0605 77.6866 66.826 76.5533 66.3571 75.6545C65.8881 74.7557 65.2433 74.0327 64.4227 73.4856C63.602 72.9385 62.6446 72.5673 61.5504 72.3719C60.4562 72.1374 59.2838 72.0202 58.0333 72.0202C56.7437 72.0202 55.3174 72.1374 53.7542 72.3719C52.1911 72.5673 50.5889 72.8604 48.9476 73.2511C47.3063 73.6419 45.6454 74.1304 43.965 74.7166C42.3237 75.3028 40.7606 75.9671 39.2756 76.7096L34.8207 66.4515Z" fill="#0050F9"/>
<path d="M189.607 144.539H195.382V152.529H207.132V157.397H195.382V177.44C195.382 178.783 195.415 179.812 195.482 180.529C195.572 181.222 195.773 181.771 196.087 182.174C196.669 182.979 197.844 183.382 199.612 183.382C200.597 183.382 201.548 183.282 202.465 183.08C203.405 182.879 204.267 182.655 205.05 182.409C205.677 183.774 206.248 185.274 206.762 186.907C204.122 187.803 201.458 188.25 198.772 188.25C196.825 188.25 195.259 188.026 194.072 187.579C192.909 187.154 191.991 186.449 191.32 185.464C190.626 184.434 190.167 183.203 189.943 181.771C189.719 180.338 189.607 178.358 189.607 175.828V157.397H184.572V152.529H189.607V144.539Z" fill="#303030"/>
<path d="M168.235 151.757C170.071 151.757 171.906 151.947 173.741 152.327C175.599 152.708 177.322 153.234 178.911 153.905C178.598 154.621 178.273 155.326 177.938 156.02C177.602 156.714 177.233 157.397 176.83 158.068C176.27 157.844 175.644 157.621 174.95 157.397C174.278 157.173 173.562 156.983 172.801 156.826C172.063 156.669 171.29 156.546 170.485 156.457C169.701 156.345 168.929 156.289 168.168 156.289C167.34 156.289 166.534 156.378 165.751 156.557C164.99 156.714 164.308 156.983 163.703 157.363C163.121 157.744 162.651 158.247 162.293 158.874C161.935 159.478 161.756 160.239 161.756 161.157C161.756 162.097 161.958 162.891 162.36 163.541C162.763 164.167 163.312 164.693 164.005 165.118C164.699 165.544 165.505 165.902 166.423 166.193C167.363 166.484 168.359 166.752 169.41 166.998C171.044 167.401 172.566 167.86 173.976 168.375C175.386 168.867 176.606 169.516 177.635 170.322C178.665 171.128 179.471 172.124 180.053 173.31C180.634 174.496 180.925 175.962 180.925 177.708C180.925 179.543 180.556 181.121 179.818 182.442C179.101 183.762 178.117 184.859 176.863 185.732C175.632 186.582 174.189 187.209 172.533 187.612C170.876 188.037 169.108 188.25 167.228 188.25C166.244 188.25 165.225 188.183 164.173 188.048C163.144 187.937 162.114 187.757 161.085 187.511C160.078 187.287 159.082 187.008 158.097 186.672C157.112 186.336 156.183 185.967 155.31 185.564C155.624 184.848 155.948 184.154 156.284 183.483C156.642 182.789 157.011 182.106 157.392 181.435C158.13 181.748 158.914 182.05 159.742 182.341C160.57 182.61 161.42 182.845 162.293 183.046C163.166 183.248 164.028 183.415 164.878 183.55C165.729 183.662 166.546 183.718 167.329 183.718C168.314 183.718 169.265 183.606 170.183 183.382C171.123 183.158 171.951 182.811 172.667 182.341C173.405 181.849 173.987 181.222 174.413 180.461C174.86 179.7 175.084 178.782 175.084 177.708C175.084 176.701 174.871 175.873 174.446 175.224C174.043 174.575 173.495 174.038 172.801 173.612C172.107 173.165 171.29 172.807 170.35 172.538C169.433 172.247 168.459 171.978 167.43 171.732C165.863 171.352 164.375 170.915 162.965 170.423C161.577 169.93 160.357 169.293 159.305 168.509C158.276 167.704 157.448 166.719 156.821 165.555C156.217 164.369 155.915 162.903 155.915 161.157C155.915 159.523 156.25 158.113 156.922 156.927C157.593 155.741 158.489 154.767 159.608 154.006C160.749 153.245 162.058 152.685 163.535 152.327C165.035 151.947 166.602 151.757 168.235 151.757Z" fill="#303030"/>
<path d="M150.423 185.497C147.939 186.482 145.6 187.187 143.407 187.612C141.236 188.037 139.289 188.25 137.566 188.25C134.925 188.25 132.619 187.836 130.65 187.008C128.68 186.157 127.035 184.971 125.715 183.449C124.417 181.927 123.432 180.114 122.761 178.01C122.112 175.884 121.787 173.545 121.787 170.994C121.787 169.427 121.899 167.86 122.123 166.293C122.347 164.727 122.705 163.238 123.197 161.828C123.689 160.396 124.327 159.064 125.111 157.833C125.916 156.602 126.89 155.539 128.031 154.644C129.173 153.749 130.504 153.044 132.026 152.529C133.548 152.014 135.283 151.757 137.23 151.757C142.221 151.757 145.981 153.323 148.51 156.457C151.039 159.568 152.303 164.033 152.303 169.852V171.699H127.729C127.729 173.579 127.931 175.246 128.333 176.701C128.736 178.133 129.352 179.353 130.18 180.36C131.03 181.345 132.093 182.095 133.369 182.61C134.667 183.124 136.2 183.382 137.968 183.382C138.953 183.382 139.927 183.315 140.889 183.18C141.874 183.024 142.825 182.834 143.743 182.61C144.66 182.363 145.533 182.095 146.361 181.804C147.212 181.513 148.006 181.233 148.745 180.965L150.423 185.497ZM146.496 167.066C146.317 163.44 145.444 160.799 143.877 159.143C142.333 157.464 140.117 156.625 137.23 156.625C134.343 156.625 132.138 157.464 130.616 159.143C129.117 160.799 128.21 163.44 127.897 167.066H146.496Z" fill="#303030"/>
<path d="M120.421 152.528L108.806 187.444H101.084L89.4686 152.528H95.7129L104.945 183.012L114.177 152.528H120.421Z" fill="#303030"/>
<path d="M57.2211 153.133L62.7939 151.891C63.2192 153.234 63.5213 154.532 63.7004 155.785C63.7899 156.39 63.9018 157.587 64.0361 159.378H64.7411C65.972 157.117 67.4939 155.315 69.3068 153.972C71.2987 152.495 73.4025 151.757 75.6182 151.757C78.953 151.757 81.4932 152.562 83.2389 154.174C84.7384 155.539 85.7792 157.632 86.3611 160.452C86.7415 162.377 86.9318 165.242 86.9318 169.046V187.444H81.1575V167.435C81.1575 164.1 80.833 161.716 80.1839 160.284C79.2215 158.158 77.2856 157.095 74.3761 157.095C72.317 157.095 70.3027 158.079 68.3332 160.049C67.0127 161.37 65.6027 163.306 64.1032 165.857V187.444H58.3289V165.958C58.3289 162.936 58.2506 160.329 58.0939 158.135C58.0044 156.77 57.7135 155.103 57.2211 153.133Z" fill="#303030"/>
<path d="M46.8943 139C47.9238 139 48.819 139.358 49.58 140.074C50.3186 140.858 50.6879 141.775 50.6879 142.827C50.6879 143.902 50.3186 144.808 49.58 145.547C48.819 146.308 47.9238 146.688 46.8943 146.688C45.82 146.688 44.9024 146.308 44.1414 145.547C43.3805 144.83 43 143.924 43 142.827C43 141.753 43.3805 140.835 44.1414 140.074C44.9024 139.358 45.82 139 46.8943 139ZM43.94 152.53H49.7143V187.445H43.94V152.53Z" fill="#303030"/>
</svg>
