<svg width="250" height="250" viewBox="0 0 250 250" fill="none" xmlns="http://www.w3.org/2000/svg">
<rect width="250" height="250" fill="white"/>
<g clip-path="url(#clip0_5666_349)">
<path fill-rule="evenodd" clip-rule="evenodd" d="M145.881 98.9864L177.948 155.266C193.289 146.306 198.545 126.406 189.703 110.861C180.86 95.352 161.222 90.0263 145.881 98.9864Z" fill="#FF861C"/>
<path fill-rule="evenodd" clip-rule="evenodd" d="M63.0374 78.9138C69.7491 74.9915 78.4141 77.3305 82.2849 84.1315L120.673 151.53C124.544 158.331 122.236 167.111 115.524 171.034C108.812 174.956 100.147 172.617 96.2767 165.816L57.8881 98.4173C54.0173 91.6163 56.3256 82.8361 63.0374 78.9138Z" fill="#414141"/>
<path fill-rule="evenodd" clip-rule="evenodd" d="M105.29 78.9072C112.002 74.9849 120.667 77.3239 124.538 84.1249L162.926 151.524C166.797 158.325 164.489 167.105 157.777 171.027C151.065 174.949 142.4 172.61 138.529 165.809L100.141 98.4107C96.2701 91.6097 98.5784 82.8295 105.29 78.9072Z" fill="#414141"/>
</g>
<defs>
<clipPath id="clip0_5666_349">
<rect width="138" height="95.8983" fill="white" transform="translate(56 77)"/>
</clipPath>
</defs>
</svg>
