<svg width="250" height="250" viewBox="0 0 250 250" fill="none" xmlns="http://www.w3.org/2000/svg">
<rect width="250" height="250" fill="white"/>
<path d="M210.989 125.283C210.942 124.826 210.849 124.374 210.712 123.936C210.651 123.71 210.59 123.486 210.538 123.263C210.482 123.041 210.443 122.816 210.42 122.589C210.384 122.177 210.356 121.761 210.333 121.343C210.333 121.237 210.323 121.133 210.317 121.028C210.311 120.923 210.304 120.817 210.296 120.712C210.285 120.501 210.272 120.291 210.259 120.08L210.189 118.808C210.158 118.384 210.122 117.96 210.083 117.538C210.062 117.328 210.04 117.117 210.017 116.908C209.994 116.698 209.971 116.489 209.937 116.281C209.874 115.867 209.803 115.456 209.719 115.051C209.558 114.253 209.32 113.473 209.006 112.723C209.006 112.546 208.997 112.37 208.992 112.194C208.986 112.019 208.971 111.846 208.958 111.672C208.932 111.327 208.9 110.985 208.862 110.648C208.792 109.964 208.676 109.294 208.552 108.627C208.49 108.295 208.427 107.961 208.353 107.63C208.279 107.3 208.199 106.97 208.117 106.641C208.036 106.312 207.953 105.981 207.87 105.649C207.787 105.317 207.687 104.988 207.595 104.656L207.313 103.652C207.218 103.315 207.114 102.979 207.015 102.638C206.821 101.955 206.619 101.258 206.41 100.548C206.306 100.191 206.205 99.8292 206.107 99.4624C206.008 99.0951 205.9 98.7308 205.802 98.3459C205.703 97.9611 205.604 97.5821 205.511 97.187C205.418 96.7919 205.31 96.3969 205.22 95.9886L204.945 95.4443C204.856 95.2687 204.77 95.096 204.683 94.9292C204.511 94.5927 204.353 94.2663 204.204 93.9342C204.13 93.7674 204.059 93.5991 203.992 93.4264C203.957 93.3401 203.924 93.2538 203.892 93.166C203.86 93.0782 203.823 92.9889 203.79 92.8996C203.657 92.5397 203.535 92.1563 203.423 91.729C203.331 91.6065 203.216 91.5035 203.084 91.4261C202.926 91.3028 202.81 91.1338 202.75 90.9418C202.477 90.1116 202.136 89.3056 201.732 88.5318C201.531 88.1396 201.32 87.7504 201.105 87.3612C200.889 86.9719 200.654 86.5944 200.425 86.211C200.31 86.0193 200.197 85.8276 200.082 85.6374C199.967 85.4472 199.849 85.257 199.734 85.0653C199.503 84.6848 199.275 84.3015 199.056 83.9137L198.729 83.3284C198.622 83.1338 198.515 82.9377 198.414 82.7431C198.312 82.5485 198.213 82.3465 198.123 82.1461C198.032 81.9456 197.938 81.7407 197.846 81.5388C197.649 81.4963 197.466 81.4042 197.314 81.271C196.238 78.8814 194.936 76.6014 193.426 74.4624C191.91 72.3055 190.236 70.4296 188.771 69.1741C188.583 68.8421 188.379 68.5198 188.158 68.2084C187.934 67.8923 187.689 67.5865 187.431 67.2807C187.174 66.9748 186.907 66.6719 186.621 66.3764C186.334 66.0808 186.039 65.7911 185.736 65.4984L185.275 65.0594L184.8 64.6204L183.828 63.7425C183.501 63.4498 183.165 63.1572 182.833 62.8543C182.501 62.5514 182.174 62.2441 181.84 61.9368C181.213 61.3515 180.647 60.7164 180.058 60.1209C179.767 59.8194 179.476 59.5239 179.173 59.2429C178.873 58.9691 178.558 58.7112 178.231 58.4703C177.599 58.0021 176.921 57.4943 176.238 56.9514C175.899 56.6778 175.544 56.4086 175.193 56.1335C174.843 55.8584 174.489 55.5774 174.133 55.3023L173.064 54.4931L172.533 54.098L172.003 53.722C171.651 53.4747 171.305 53.2347 170.968 53.0079C170.63 52.7811 170.291 52.5777 169.967 52.3831C169.773 52.2696 169.573 52.1674 169.368 52.0773C169.163 51.9851 168.955 51.9017 168.744 51.8241C168.325 51.6786 167.916 51.5036 167.522 51.3003C167.347 51.2066 167.176 51.1027 167.002 50.9988C166.829 50.8949 166.658 50.7881 166.485 50.6769C166.141 50.456 165.798 50.2218 165.45 49.9877C165.103 49.7536 164.743 49.5341 164.378 49.3205C164.195 49.2151 164.01 49.1127 163.821 49.0146C163.632 48.9166 163.443 48.8244 163.239 48.7439C160.224 47.465 157.048 46.0222 153.906 44.736C150.764 43.4498 147.652 42.3333 144.905 41.5827C144.479 41.4671 144.064 41.3764 143.65 41.3047C143.235 41.233 142.819 41.1861 142.397 41.1378C141.558 41.0325 140.682 40.974 139.711 40.8262L139.107 40.734C138.905 40.7018 138.704 40.6681 138.503 40.6315C138.101 40.5584 137.698 40.475 137.295 40.3872C136.892 40.2994 136.487 40.2218 136.083 40.1326C135.679 40.0433 135.274 39.9453 134.867 39.8648L133.645 39.616C133.441 39.5751 133.238 39.5341 133.034 39.4975L132.42 39.398C132.011 39.3351 131.603 39.278 131.194 39.2297C131.092 39.218 130.99 39.2049 130.887 39.1961L130.58 39.1712C130.376 39.1566 130.171 39.1434 129.968 39.1346C129.561 39.1232 129.154 39.1369 128.749 39.1756C128.349 39.2136 127.959 39.2561 127.585 39.2546C127.341 39.2546 127.098 39.2473 126.858 39.2385L126.13 39.2078C125.652 39.1858 125.173 39.1522 124.692 39.1171L124.33 39.0893L123.967 39.0702L123.233 39.0337C122.986 39.0234 122.737 39.0146 122.485 39.0073L122.107 39H121.723C119.211 39.0293 116.7 39.3263 114.242 39.6453C111.783 39.9643 109.376 40.3169 106.999 40.4764C104.09 41.3544 100.507 42.3187 96.8678 43.4937C96.4125 43.64 95.9601 43.7981 95.5034 43.9488L94.8197 44.1785C94.5928 44.2561 94.3673 44.3395 94.1404 44.42L92.7847 44.9087L91.4479 45.4223L90.7846 45.6798L90.1314 45.9491L88.8456 46.489L87.5989 47.0495L86.988 47.3275L86.3945 47.6201C86.1147 47.9073 85.7982 48.1557 85.4534 48.3591C85.2861 48.4571 85.1174 48.5493 84.9457 48.6357C84.7741 48.722 84.5995 48.801 84.422 48.8771C84.0686 49.0234 83.7049 49.1697 83.3427 49.3161C82.9769 49.4718 82.6208 49.6496 82.2765 49.8487C80.1294 51.1261 77.7992 52.765 75.5009 54.4653C73.2026 56.1657 70.9275 57.9187 68.7718 59.3819C64.6809 63.0527 60.9035 67.0625 57.4795 71.3691C54.039 75.6962 51.0121 80.3402 48.4391 85.2394C45.8789 90.1178 43.8314 95.2514 42.3297 100.557C40.8559 105.762 39.9693 111.117 39.6866 116.521C39.6033 116.731 39.5342 116.946 39.48 117.165C39.4233 117.393 39.3782 117.633 39.3346 117.882C39.2909 118.131 39.2677 118.384 39.2459 118.642C39.224 118.899 39.2066 119.16 39.2051 119.42C39.2051 119.939 39.2182 120.455 39.2531 120.932C39.2618 121.05 39.272 121.167 39.2822 121.281C39.2924 121.395 39.3084 121.505 39.323 121.612C39.3506 121.827 39.3811 122.029 39.4131 122.212C39.1222 122.515 39.0902 123.492 39 124.233C39.1676 124.926 39.2766 125.632 39.3258 126.344C39.3549 126.713 39.3724 127.09 39.3826 127.474C39.3826 127.666 39.3927 127.859 39.3986 128.059L39.4117 128.644C39.4117 129.041 39.4117 129.442 39.4233 129.849C39.435 130.256 39.4466 130.664 39.4641 131.076C39.4728 131.283 39.483 131.491 39.4931 131.698C39.4931 131.802 39.5033 131.906 39.5106 132.01L39.5382 132.322C39.5775 132.737 39.6241 133.153 39.6837 133.568C40.0706 133.959 40.1986 134.663 40.3063 135.421C40.3339 135.611 40.363 135.804 40.3906 135.996C40.4183 136.188 40.459 136.378 40.5026 136.564C40.5778 136.919 40.7068 137.26 40.8852 137.575C40.5725 138.16 40.4488 136.903 40.3659 137.848C40.4738 137.983 40.571 138.125 40.6568 138.274C40.7572 138.447 40.8475 138.626 40.9274 138.81C41.116 139.247 41.2773 139.696 41.4103 140.153C41.5703 140.651 41.7216 141.193 41.8656 141.763C41.9005 141.909 41.9369 142.055 41.9733 142.202L42.0867 142.641C42.1624 142.933 42.2365 143.233 42.3093 143.539C42.4547 144.146 42.6104 144.757 42.7602 145.361C42.8373 145.662 42.9057 145.962 42.9886 146.256L43.2286 147.121C43.3071 147.404 43.3872 147.679 43.4643 147.944C43.5414 148.208 43.6301 148.464 43.7115 148.709C43.8759 149.196 44.0359 149.637 44.1959 150.013C44.1334 149.795 44.3036 149.692 44.4098 149.957C44.3429 150.803 45.0687 150.959 45.3218 151.795C45.5822 152.481 45.844 153.138 46.1248 153.763C46.4055 154.388 46.7066 154.985 47.0092 155.558C47.3117 156.132 47.6317 156.679 47.9503 157.212C48.2689 157.745 48.6078 158.255 48.9351 158.759C50.2748 160.765 51.6756 162.579 53.0677 164.594C53.1026 164.749 53.1491 164.973 53.2131 165.226C53.279 165.495 53.3596 165.761 53.4546 166.021C53.651 166.553 53.9128 167.045 54.2663 167.161C53.8779 166.363 53.283 165.405 53.7833 165.207C54.3652 166.561 55.574 168.083 56.4686 168.653C56.7246 169.022 56.9326 169.356 57.1202 169.667C57.3079 169.979 57.4883 170.253 57.6672 170.532C57.8443 170.81 58.0386 171.076 58.249 171.33C58.4931 171.61 58.7587 171.871 59.0432 172.11C59.2658 172.43 59.2716 171.47 59.7488 172.153C60.2704 173.042 60.889 173.87 61.5932 174.621C62.1896 175.299 62.7904 175.926 63.4071 176.864C63.6835 176.942 63.942 177.074 64.1679 177.253C64.3133 177.357 64.4588 177.475 64.6174 177.606C64.7759 177.736 64.9228 177.875 65.077 178.015C65.6923 178.579 66.2407 179.228 66.4269 179.606C67.0859 179.969 66.1796 178.74 66.6975 179.089L67.8088 180.061C68.1754 180.377 68.5361 180.686 68.8838 181.005C69.2314 181.324 69.5689 181.643 69.8889 181.976C70.2082 182.313 70.5102 182.666 70.7937 183.034C71.2941 183.159 71.7305 183.115 72.3371 183.549C72.7444 183.842 71.9007 183.842 72.5814 184.203C73.3087 184.439 72.4927 183.462 72.8724 183.285C73.7364 183.784 73.7611 183.451 74.327 183.533C74.4265 183.666 74.5375 183.789 74.6586 183.902C74.7699 184.008 74.8885 184.106 75.0136 184.195C75.2509 184.361 75.5031 184.504 75.767 184.622C76.0245 184.743 76.2965 184.839 76.5656 184.948C76.8438 185.056 77.1149 185.182 77.3773 185.324C77.6537 185.481 77.9315 185.649 78.2021 185.835C78.4726 186.021 78.7388 186.215 79.0036 186.412C79.5161 186.797 80.0552 187.145 80.6168 187.453C81.0163 187.637 81.4304 187.787 81.8546 187.901C82.0557 187.962 82.2533 188.034 82.4467 188.116C82.6835 188.217 82.9112 188.338 83.1274 188.478C83.9246 188.994 84.4133 189.738 85.3457 190.253C85.8796 190.449 85.2235 189.711 85.9276 190.083C87.5244 190.935 89.1701 191.691 90.8558 192.347C91.2602 192.493 91.6574 192.639 92.0516 192.777C92.4458 192.914 92.8356 193.021 93.2153 193.128C93.4058 193.179 93.5934 193.233 93.7811 193.274C93.9687 193.315 94.1535 193.359 94.3353 193.396C94.7009 193.471 95.0554 193.532 95.3986 193.58C94.8808 193.484 94.3877 193.368 93.9149 193.236C93.6763 193.173 93.4494 193.09 93.224 193.018C92.9985 192.947 92.7789 192.86 92.5621 192.778C92.3454 192.696 92.1257 192.614 91.9235 192.522C91.7213 192.43 91.5119 192.338 91.3111 192.244C91.1104 192.151 90.9097 192.055 90.7118 191.96L90.4209 191.814L90.13 191.668C89.7445 191.469 89.3634 191.27 88.9808 191.082C88.5983 190.895 88.2201 190.686 87.8302 190.497C87.6353 190.403 87.4389 190.314 87.2397 190.225C87.0404 190.136 86.8411 190.045 86.636 189.959C86.4309 189.872 86.2243 189.79 86.0105 189.713C85.7967 189.635 85.5741 189.566 85.3588 189.484C85.2454 189.129 84.8541 188.985 84.473 188.823C84.0919 188.661 83.7267 188.469 83.6715 188.039C83.3107 188.15 83.9246 188.77 83.2511 188.293C83.0416 188.116 83.0198 187.955 82.6416 187.765C83.0198 187.654 83.0431 187.494 82.9718 187.301C82.9005 187.108 82.7332 186.872 82.7216 186.618C82.3987 186.41 82.083 186.21 81.7717 186.016L80.8684 185.431L80.432 185.155C80.2866 185.064 80.1411 184.973 79.9956 184.878L79.1563 184.331L78.7418 184.06L78.3374 183.784L77.5359 183.225C77.2668 183.04 77.0093 182.841 76.7489 182.639C76.4885 182.437 76.2282 182.235 75.9678 182.026C75.7321 181.924 75.7452 182.041 75.754 182.153C75.7627 182.266 75.7685 182.367 75.5198 182.224C75.0994 181.931 74.7517 181.638 74.3837 181.346C73.9813 181.003 73.5618 180.681 73.1269 180.381C73.1279 180.234 73.1118 180.086 73.0789 179.942C73.0487 179.801 73.0259 179.658 73.0105 179.514C72.9902 179.249 73.0556 179.041 73.4047 178.977C74.7066 180.203 76.4391 181.429 78.2952 182.591C80.1513 183.753 82.1252 184.86 83.9144 185.956C84.1848 186.124 84.4465 186.305 84.6984 186.499C84.9515 186.69 85.1944 186.883 85.4403 187.038C85.929 187.352 86.4047 187.563 86.8949 187.443C86.102 187.072 85.3844 186.556 84.7784 185.921L84.3421 185.482L84.1239 185.267L83.9086 185.049C83.6245 184.762 83.3191 184.497 82.9951 184.256C82.5675 183.941 82.1205 183.653 81.6568 183.394L80.9499 182.995L80.2357 182.601C79.2858 182.07 78.3446 181.515 77.5999 180.803C77.1737 180.406 77.1213 180.095 76.7271 179.758C76.5139 179.608 76.284 179.483 76.042 179.386C75.7887 179.284 75.553 179.141 75.3438 178.965C74.9845 178.614 75.1212 178.418 74.7852 178.151C74.4553 177.897 74.1039 177.671 73.7349 177.478C73.5546 177.374 73.3727 177.27 73.1953 177.145C73.0081 177.014 72.8324 176.867 72.6702 176.706C72.5247 176.559 72.3792 176.413 72.2498 176.258C72.1203 176.103 71.9792 175.951 71.8527 175.788C71.5952 175.466 71.345 175.137 71.0875 174.809C70.9581 174.647 70.833 174.477 70.7035 174.31C70.5741 174.143 70.4402 173.98 70.302 173.816C70.1639 173.652 70.0213 173.491 69.8657 173.331C69.71 173.172 69.5674 173.009 69.406 172.853C69.3362 172.475 69.7973 172.26 70.1333 172.51C71.5239 174.083 71.7886 174.329 73.3335 175.813C73.1967 175.61 73.1618 175.437 73.3073 175.316C73.7539 175.798 73.8237 176.065 74.3255 176.194C73.1749 175.102 73.8891 174.596 74.5379 174.685C75.863 176.094 77.5039 177.493 79.1258 178.769C80.7477 180.045 82.3405 181.21 83.5653 182.237C83.7747 182.237 83.9682 182.209 84.1762 182.208C84.4153 182.199 84.6532 182.245 84.8715 182.344C86.4207 183.211 88.015 184.195 89.6849 185.114C91.3474 186.06 93.0801 186.876 94.8677 187.554C93.032 186.375 91.1104 185.333 89.1045 184.244C87.0986 183.156 85.0083 182.025 82.8991 180.659C82.806 180.46 83.1056 180.305 82.6663 180.065C82.4292 179.939 82.1892 179.806 81.9521 179.664C81.715 179.522 81.4837 179.372 81.251 179.211C81.0182 179.05 80.7855 178.898 80.5586 178.734C80.3317 178.57 80.112 178.4 79.8938 178.233C79.6756 178.067 79.4574 177.904 79.2538 177.739L78.653 177.251C78.4591 177.093 78.2705 176.943 78.0872 176.799C77.9083 176.653 77.7366 176.514 77.5722 176.387C77.4544 175.961 77.341 175.542 77.245 175.119C77.1489 174.697 77.0646 174.275 76.9889 173.86C76.8624 173.759 76.7373 173.658 76.618 173.554C76.4987 173.45 76.3838 173.343 76.2689 173.236C76.042 173.023 75.8228 172.807 75.6114 172.589C75.4005 172.371 75.2056 172.15 75.0136 171.918C74.8215 171.685 74.6383 171.466 74.4608 171.234C74.116 170.766 73.7902 170.299 73.4877 169.822C73.3422 169.581 73.1967 169.341 73.0513 169.1C72.9058 168.858 72.7604 168.621 72.6324 168.368L72.2323 167.636C72.1 167.392 71.9647 167.15 71.8381 166.905C71.7115 166.659 71.5806 166.412 71.4483 166.173L71.2475 165.806L71.0497 165.434C70.9168 165.186 70.7801 164.94 70.6395 164.695L70.2031 163.955C70.0576 163.707 69.9035 163.46 69.7435 163.223C69.662 163.1 69.582 162.976 69.502 162.851C69.422 162.727 69.3376 162.603 69.2518 162.478C69.5427 162.304 69.4074 161.94 69.5194 161.687C69.9558 161.848 70.3922 161.853 70.8373 162.079C71.0686 162.388 71.3421 162.673 71.5763 162.97C71.6929 163.115 71.8012 163.266 71.9007 163.424C71.9976 163.576 72.0758 163.739 72.1334 163.911C73.7204 165.191 75.287 166.968 77.0151 168.773C78.7432 170.579 80.6517 172.39 82.6969 173.728C83.1013 173.702 83.2787 173.532 83.3529 173.289C83.3894 173.159 83.4065 173.023 83.4038 172.888C83.4038 172.742 83.4038 172.587 83.4038 172.431C83.2144 172.219 83.0144 172.016 82.8045 171.824C82.7012 171.729 82.5936 171.64 82.4903 171.546C82.3871 171.453 82.2808 171.362 82.1747 171.273C81.9623 171.094 81.7455 170.921 81.5274 170.75C81.3092 170.579 81.091 170.4 80.8815 170.223C80.672 170.046 80.4524 169.866 80.2444 169.676C80.0364 169.486 79.8385 169.282 79.6451 169.072C79.5476 168.966 79.4516 168.858 79.3542 168.747C79.2567 168.636 79.1738 168.516 79.0865 168.394C78.9095 168.146 78.7477 167.887 78.6021 167.619C78.6585 167.299 78.8043 167.002 79.0225 166.763C79.2041 166.577 79.4491 166.469 79.7076 166.458C80.0078 166.452 80.3047 166.522 80.5702 166.663C80.7348 166.747 80.892 166.845 81.04 166.956C81.2145 167.075 81.3802 167.207 81.5361 167.349C81.8125 167.598 82.1063 167.879 82.4292 168.163L82.9151 168.602C82.9994 168.678 83.0809 168.757 83.1667 168.832L83.4256 169.062C83.7748 169.367 84.1224 169.695 84.489 170.004C84.8555 170.313 85.2163 170.642 85.5756 170.942C85.9349 171.242 86.2869 171.555 86.636 171.834L87.1422 172.253L87.3837 172.455L87.6222 172.645C87.9335 172.895 88.2201 173.131 88.4761 173.343C88.7321 173.555 88.9634 173.732 89.1481 173.889C89.6194 174.168 90.1053 174.423 90.5795 174.692C90.8151 174.83 91.058 174.954 91.298 175.084L92.0152 175.474L92.7425 175.85L93.1032 176.038C93.2225 176.103 93.3433 176.166 93.4654 176.224L94.1928 176.589L94.555 176.773L94.9215 176.949C96.8707 177.894 98.849 178.762 100.875 179.524C102.906 180.286 104.981 180.921 107.089 181.426C107.354 181.488 107.617 181.556 107.884 181.612L108.684 181.777L109.085 181.861C109.219 181.887 109.353 181.908 109.488 181.932L110.295 182.079C110.563 182.129 110.835 182.161 111.106 182.2L111.92 182.313C112.192 182.344 112.466 182.37 112.738 182.399L113.148 182.442C113.285 182.456 113.421 182.469 113.558 182.478C113.413 182.45 113.26 182.417 113.112 182.386L112.666 182.295L112.221 182.212L112 182.171L111.781 182.126C111.199 182.003 110.617 181.908 110.035 181.785L109.165 181.6L108.313 181.419L107.888 181.331C107.743 181.302 107.607 181.265 107.466 181.234L106.63 181.038L106.42 180.99L106.214 180.936L105.802 180.826C105.529 180.752 105.254 180.68 104.983 180.604L104.177 180.354L103.776 180.228C103.643 180.184 103.513 180.134 103.382 180.081C103.12 179.984 102.859 179.886 102.599 179.789L102.406 179.714L102.215 179.632L101.834 179.467C101.582 179.356 101.331 179.243 101.083 179.123C100.836 179.003 100.595 178.87 100.356 178.738C100.281 178.968 100.091 179.006 99.7858 178.852C97.8249 177.947 95.8001 176.909 93.8582 175.851C91.9163 174.793 90.0587 173.706 88.3888 172.756C88.2787 172.549 88.1433 172.356 87.9859 172.183C87.9044 172.09 87.8157 172.001 87.7226 171.912C87.6295 171.823 87.5364 171.729 87.4317 171.64C87.2309 171.46 87.0113 171.286 86.7843 171.113L86.0934 170.58C85.161 169.877 84.2577 169.117 83.9304 168.282C84.4874 167.966 85.1408 167.869 85.7647 168.009C86.1094 168.071 86.4468 168.169 86.7713 168.302L87.0287 168.412C87.1175 168.448 87.2047 168.486 87.2935 168.527C87.4709 168.608 87.6484 168.696 87.8288 168.789C87.2015 168.313 86.6296 167.767 86.124 167.162C85.8781 166.87 85.6425 166.586 85.4068 166.311C85.1712 166.035 84.9515 165.762 84.7173 165.517C84.5224 165.318 84.2809 165.093 84.0206 164.868C83.7602 164.642 83.4737 164.413 83.2176 164.18C82.9616 163.947 82.7143 163.726 82.5238 163.526C82.3682 163.37 82.2442 163.185 82.1587 162.982C82.1209 162.857 82.3885 162.851 82.3507 162.724C82.2488 162.648 81.6917 162.098 81.6364 162.05C81.3833 161.871 81.2568 161.817 81.139 161.739C80.967 161.612 80.8192 161.454 80.7026 161.274C80.1498 160.534 80.1658 160.542 80.0335 159.901C79.1185 158.609 78.1526 157.392 77.2522 156.12C76.3279 154.861 75.527 153.514 74.8608 152.099C74.7939 151.953 74.6746 151.733 74.5699 151.548C74.4652 151.362 74.3866 151.202 74.3808 151.177C74.3124 150.877 74.6223 150.997 74.4783 150.635C74.3968 150.427 74.2092 150.635 74.0812 150.333C73.6229 149.193 73.1269 147.889 72.6265 146.777C71.9889 145.316 71.4589 143.81 71.041 142.27L70.8795 141.7C70.8286 141.511 70.7835 141.321 70.7341 141.133C70.6846 140.946 70.6381 140.763 70.5886 140.58C70.5653 140.49 70.5391 140.399 70.5173 140.308C70.4955 140.218 70.4751 140.128 70.4533 140.039C70.369 139.682 70.2817 139.337 70.1973 139.006C70.1129 138.675 70.0431 138.355 69.9631 138.056C69.9355 137.778 70.0577 137.796 70.1624 137.79C70.2671 137.784 70.3529 137.761 70.2758 137.398C69.9386 135.254 69.7104 133.094 69.5922 130.927C69.4802 128.718 69.4773 126.461 69.5922 124.196C69.646 123.858 70.1158 124.142 70.0664 123.646C70.093 123.549 70.0909 123.446 70.0604 123.35C70.0299 123.253 69.9724 123.168 69.8947 123.105C69.8175 123.048 69.7575 122.972 69.7215 122.883C69.6855 122.794 69.6749 122.697 69.6911 122.603C69.8569 122.265 70.0402 121.959 70.3093 121.796L70.3428 121.558L70.3806 121.321L70.4548 120.847C70.5028 120.531 70.5391 120.212 70.6002 119.897C70.6613 119.582 70.6962 119.263 70.7384 118.944C70.7806 118.625 70.8417 118.311 70.8839 117.993C71.0861 116.725 71.2795 115.447 71.5268 114.176C71.5574 114.016 71.5821 113.855 71.6141 113.696L71.713 113.219L71.8076 112.74L71.8556 112.5L71.9094 112.263C71.9792 111.944 72.0495 111.626 72.1203 111.308C72.1974 110.99 72.2759 110.673 72.353 110.355C72.4301 110.037 72.516 109.721 72.6018 109.405C72.6876 109.089 72.7691 108.77 72.868 108.457L73.1589 107.515L73.4731 106.58C73.5662 106.287 73.6811 106.003 73.7844 105.715C73.8877 105.427 73.9924 105.13 74.1131 104.855L74.4579 104.003C74.5786 103.721 74.7037 103.441 74.8259 103.16C74.8884 103.014 74.9481 102.879 75.0121 102.74L75.2085 102.325L75.4048 101.91C75.4703 101.764 75.5329 101.632 75.6041 101.496L76.0173 100.68L76.1205 100.476L76.2296 100.276L76.4464 99.8736L76.6631 99.4727C76.7329 99.338 76.8086 99.2093 76.8871 99.0761L77.3366 98.2874L77.8064 97.5148C77.885 97.386 77.9519 97.2558 78.0406 97.1285L78.2821 96.751C78.9178 95.7267 79.5912 94.7595 80.2778 93.8069C81.3586 92.3099 82.419 90.8364 83.5565 89.48C84.6941 88.1235 85.9029 86.89 87.2469 85.9052C87.6251 85.494 88.0223 85.115 88.4106 84.7346L88.5561 84.5883L88.7016 84.4522L88.9925 84.1815C89.1918 84.0029 89.3852 83.8215 89.5859 83.6503L90.1882 83.1425L90.4878 82.8909L90.7947 82.6509L91.4028 82.1724C91.6079 82.0158 91.8159 81.868 92.0224 81.7159C92.8443 81.1042 93.6924 80.5452 94.5506 79.9965C94.7644 79.859 94.987 79.7302 95.2037 79.5956L95.531 79.3951C95.6401 79.3293 95.7492 79.2605 95.8612 79.1976L96.5318 78.8113L96.8693 78.6152L97.2126 78.4293C98.5629 77.6969 99.956 77.0475 101.384 76.4847C102.791 75.914 104.148 75.4091 105.312 74.8838C105.529 74.7759 105.736 74.6496 105.932 74.5063C106.038 74.4346 106.148 74.36 106.262 74.3C106.376 74.2409 106.495 74.192 106.618 74.1537C106.805 74.0996 106.995 74.0624 107.188 74.0425C107.286 74.0322 107.385 74.0234 107.479 74.0161C107.574 74.0088 107.679 74.0161 107.777 74.0073C108.168 74.0126 108.559 73.9738 108.941 73.8917C109.945 73.6503 110.937 73.2976 111.948 72.9977C112.2 72.9216 112.453 72.8426 112.706 72.7694C112.959 72.6962 113.215 72.6348 113.471 72.5719C113.978 72.4442 114.493 72.3464 115.011 72.2792C115.302 72.2368 115.593 72.2134 115.877 72.1841C116.16 72.1548 116.459 72.1241 116.738 72.1022L117.596 72.0436L118.024 72.0144L118.451 71.9983L119.305 71.9631L120.161 71.9514C120.731 71.9339 121.303 71.9514 121.877 71.9514C121.959 71.9514 122.039 71.9514 122.12 71.9514C122.202 71.9514 122.282 71.9514 122.362 71.9514C122.522 71.9514 122.682 71.9368 122.842 71.9222C123.162 71.8973 123.48 71.8505 123.799 71.8227C124.117 71.7949 124.437 71.7554 124.757 71.729C124.919 71.7144 125.079 71.7129 125.239 71.71C125.399 71.7071 125.56 71.71 125.722 71.71C125.938 71.7191 126.154 71.7455 126.366 71.789C126.58 71.8344 126.795 71.89 127.012 71.9441C127.229 71.9983 127.448 72.0524 127.662 72.1022C127.877 72.156 128.095 72.1956 128.315 72.2207C128.931 72.2777 129.547 72.3436 130.168 72.3787L131.098 72.4533L131.563 72.487C131.718 72.5002 131.87 72.5177 132.025 72.5324L132.945 72.6289C133.249 72.6714 133.55 72.7182 133.85 72.7665L134.297 72.8426L134.733 72.9406C135.024 73.0094 135.315 73.0869 135.594 73.1645C137.097 73.6254 138.569 74.24 140.038 74.8414C141.507 75.4428 142.981 76.031 144.536 76.451C146.07 77.329 147.752 78.2918 149.394 79.2941C151.036 80.2965 152.641 81.3266 154.049 82.2587C154.878 83.4293 155.95 84.2898 157.091 85.1633C157.373 85.3857 157.661 85.6023 157.952 85.8262C158.243 86.0501 158.523 86.2871 158.81 86.5242C158.955 86.6412 159.092 86.7671 159.23 86.8944C159.369 87.0217 159.507 87.149 159.643 87.2807C159.92 87.545 160.183 87.8244 160.429 88.1177C160.523 88.2344 160.599 88.3652 160.653 88.5054C160.707 88.6481 160.775 88.7849 160.857 88.9137C161.024 89.1546 161.198 89.3922 161.379 89.6263C161.553 89.8634 161.731 90.1019 161.916 90.3331C162.009 90.4487 162.102 90.5643 162.196 90.6784C162.291 90.7925 162.38 90.914 162.474 91.0296C162.66 91.2622 162.854 91.489 163.044 91.7173C163.418 92.1826 163.817 92.6289 164.191 93.0913L164.482 93.4323C164.578 93.545 164.675 93.6576 164.772 93.7732L165.331 94.458L165.477 94.6278L165.61 94.8004C165.699 94.916 165.789 95.0302 165.878 95.1443L166.144 95.4852L166.277 95.6564L166.402 95.8291L166.896 96.5154L167.018 96.6851L167.132 96.8593L167.356 97.2031C167.501 97.4329 167.647 97.6582 167.782 97.8879C167.917 98.1177 168.04 98.3459 168.159 98.5728C168.218 98.6869 168.277 98.7996 168.333 98.9122C168.39 99.0249 168.438 99.1405 168.488 99.2532C168.585 99.4795 168.676 99.7043 168.761 99.9277C168.904 100.041 169.035 100.169 169.151 100.31C169.258 100.441 169.355 100.581 169.442 100.727C169.527 100.868 169.602 101.014 169.667 101.166C169.73 101.312 169.784 101.473 169.832 101.628C169.88 101.783 169.922 101.943 169.964 102.101C170.006 102.259 170.045 102.417 170.079 102.578C170.146 102.898 170.232 103.214 170.336 103.524C170.398 103.691 170.453 103.858 170.52 104.018C170.587 104.177 170.658 104.334 170.734 104.487C170.809 104.641 170.892 104.79 170.968 104.942C171.043 105.095 171.125 105.244 171.206 105.392C171.549 105.977 171.849 106.586 172.105 107.215C172.251 107.636 172.182 108.093 172.305 108.523C172.389 108.855 172.497 109.181 172.627 109.498L172.726 109.736L172.822 109.976C172.889 110.137 172.958 110.296 173.029 110.457C173.1 110.618 173.174 110.779 173.246 110.943C173.317 111.107 173.381 111.274 173.449 111.444C173.593 111.787 173.718 112.138 173.825 112.494C173.903 112.768 173.97 113.047 174.024 113.331C174.078 113.615 174.107 113.908 174.139 114.201C174.209 114.786 174.219 115.392 174.262 115.999C174.28 116.303 174.29 116.611 174.318 116.918C174.329 117.064 174.345 117.225 174.363 117.379C174.38 117.532 174.393 117.689 174.415 117.843C174.455 118.157 174.512 118.468 174.585 118.776C174.65 119.096 174.737 119.411 174.844 119.719C174.834 119.846 174.822 119.976 174.812 120.112C174.802 120.248 174.785 120.384 174.77 120.525C174.742 120.807 174.719 121.1 174.699 121.403C174.678 121.706 174.645 122.011 174.628 122.325C174.619 122.481 174.61 122.639 174.604 122.797C174.598 122.955 174.584 123.116 174.578 123.276C174.562 123.596 174.558 123.917 174.559 124.237C174.561 124.558 174.559 124.877 174.571 125.193C174.571 125.351 174.593 125.507 174.6 125.662C174.607 125.817 174.622 125.971 174.638 126.123C174.668 126.428 174.718 126.726 174.774 127.014C174.308 128.94 174.193 130.851 174.014 132.791C173.835 134.732 173.614 136.69 172.955 138.557C172.902 138.714 172.839 138.868 172.767 139.018C172.699 139.164 172.622 139.31 172.555 139.457L172.338 139.896C172.265 140.042 172.193 140.188 172.123 140.335C171.984 140.621 171.874 140.92 171.794 141.229C171.705 141.553 171.67 141.889 171.691 142.225C171.569 142.365 171.456 142.512 171.35 142.664C171.243 142.819 171.146 142.98 171.059 143.147C170.887 143.492 170.734 143.846 170.6 144.208C170.53 144.394 170.467 144.584 170.397 144.774L170.187 145.348C170.114 145.539 170.041 145.734 169.965 145.933C169.89 146.132 169.797 146.315 169.705 146.504C169.613 146.692 169.522 146.875 169.423 147.06C169.324 147.244 169.213 147.424 169.104 147.606C168.995 147.787 168.886 147.968 168.774 148.148L168.418 148.683L168.06 149.218L167.689 149.748L167.327 150.28C167.203 150.456 167.081 150.635 166.963 150.813C166.879 150.94 166.794 151.072 166.713 151.205C166.632 151.338 166.544 151.472 166.458 151.608C166.373 151.744 166.291 151.881 166.207 152.02C166.122 152.159 166.044 152.303 165.955 152.44L165.431 153.279C165.255 153.555 165.065 153.823 164.879 154.086C164.118 155.131 163.26 156.018 162.23 156.36C161.607 156.141 161.273 156.192 161.082 156.412C160.892 156.631 160.846 157.014 160.829 157.477C160.829 157.534 160.829 157.592 160.829 157.652L160.82 157.831C160.82 157.951 160.809 158.075 160.8 158.2C160.785 158.45 160.754 158.699 160.707 158.946C160.694 159.007 160.681 159.067 160.665 159.127C160.649 159.187 160.628 159.243 160.608 159.3C160.568 159.412 160.519 159.521 160.462 159.625C160.345 159.835 160.182 160.015 159.984 160.15C159.785 160.239 159.572 160.287 159.354 160.291C159.137 160.296 158.922 160.257 158.72 160.177C158.363 160.04 158.023 159.821 157.547 159.657C157.339 159.744 157.143 159.858 156.966 159.998C156.802 160.131 156.65 160.278 156.512 160.437C156.372 160.599 156.244 160.771 156.128 160.951C156.068 161.04 156.008 161.132 155.95 161.224L155.768 161.498C155.538 161.62 155.29 161.705 155.034 161.75C154.968 161.763 154.903 161.774 154.836 161.785L154.631 161.812L154.215 161.862C153.934 161.895 153.657 161.954 153.387 162.038C153.099 162.123 152.831 162.266 152.6 162.459C152.543 162.508 152.49 162.56 152.44 162.616C152.388 162.672 152.34 162.731 152.295 162.793C152.199 162.917 152.109 163.055 152.018 163.192C151.928 163.33 151.839 163.47 151.739 163.598C151.641 163.722 151.529 163.835 151.406 163.934C151.26 164.045 151.115 164.149 150.97 164.25C150.824 164.351 150.67 164.438 150.52 164.528L150.066 164.787C149.991 164.83 149.921 164.874 149.839 164.915L149.61 165.036C149.464 165.118 149.305 165.201 149.157 165.288C149.009 165.374 148.866 165.469 148.712 165.558C148.408 165.745 148.121 165.958 147.855 166.195C147.608 166.408 147.374 166.636 147.154 166.877C147.044 167.001 146.929 167.114 146.817 167.237L146.479 167.6C146.255 167.848 146.017 168.081 145.769 168.308C145.646 168.421 145.519 168.532 145.388 168.639C145.257 168.745 145.116 168.841 144.974 168.931C144.761 169.069 144.59 169.193 144.441 169.307C144.293 169.421 144.166 169.518 144.05 169.616C143.817 169.808 143.628 169.995 143.352 170.201C142.537 170.809 141.728 171.226 141.071 171.652C140.912 171.752 140.758 171.861 140.61 171.978C140.54 172.035 140.472 172.093 140.406 172.153C140.341 172.213 140.278 172.27 140.22 172.332C139.979 172.579 139.801 172.88 139.699 173.21C139.119 173.823 138.486 174.384 137.808 174.885C137.475 175.155 137.136 175.396 136.819 175.652C136.659 175.778 136.505 175.908 136.356 176.034C136.208 176.16 136.066 176.283 135.93 176.41C135.763 176.57 135.327 176.631 135.261 176.692C133.876 177.955 132.769 179.363 131.479 180.697C130.189 182.032 128.715 183.283 126.59 184.079C126.26 184.751 126.071 185.708 125.345 186.567C125.022 186.947 124.245 187.209 124.002 187.591C123.896 187.762 123.807 187.944 123.739 188.134C123.677 188.316 123.628 188.502 123.594 188.691C123.519 189.066 123.486 189.448 123.426 189.818C123.306 190.56 123.08 191.259 122.149 191.792C122.046 192.14 122.388 192.231 122.482 192.458C122.46 193.832 122.644 195.092 122.785 196.283C122.926 197.474 123.019 198.58 122.773 199.648C123.5 200.269 123.791 200.943 124.055 201.611C124.318 202.278 124.542 202.928 125.146 203.497C125.608 203.897 126.118 204.237 126.664 204.511C127.246 204.828 127.873 205.144 128.375 205.46C128.948 205.816 129.539 206.123 130.12 206.432C130.411 206.59 130.702 206.735 130.971 206.892C131.241 207.048 131.517 207.212 131.773 207.389C131.815 207.802 132.199 208.005 132.621 208.188C133.043 208.371 133.494 208.513 133.689 208.838C134.145 208.902 134.582 208.984 135.005 209.069C135.428 209.154 135.843 209.234 136.26 209.319C137.128 209.508 138.007 209.636 138.892 209.704C139.026 209.822 139.176 209.92 139.337 209.997C139.495 210.064 139.622 210.187 139.695 210.343C140.722 210.481 141.771 210.636 142.844 210.752C143.918 210.867 145.026 210.952 146.181 210.99C148.711 211.059 151.237 210.764 153.684 210.112C154.397 209.925 155.1 209.698 155.789 209.433L157.318 208.805C157.848 208.58 158.403 208.352 158.969 208.124C160.094 207.651 161.264 207.18 162.378 206.728C162.658 206.616 162.935 206.509 163.209 206.406C163.481 206.297 163.747 206.194 164.01 206.094C164.534 205.895 165.042 205.721 165.513 205.564C165.984 205.408 166.423 205.272 166.822 205.179C167.172 205.093 167.529 205.034 167.888 205.002C168.588 204.691 168.44 204.464 169.133 204.154C169.478 204.261 170.251 204.224 171.152 204.023C171.378 203.974 171.612 203.914 171.848 203.842C172.083 203.77 172.318 203.683 172.553 203.587C173.021 203.398 173.467 203.16 173.886 202.878C174.164 202.683 174.444 202.266 174.798 201.785C174.974 201.543 175.169 201.284 175.388 201.027C175.614 200.752 175.861 200.495 176.127 200.26C176.333 200.081 176.549 199.913 176.773 199.758C176.884 199.682 176.997 199.612 177.111 199.536C177.224 199.46 177.337 199.389 177.452 199.321C177.914 199.044 178.391 198.8 178.863 198.557C179.336 198.314 179.796 198.064 180.235 197.796C180.455 197.66 180.671 197.519 180.871 197.37C181.071 197.219 181.262 197.056 181.441 196.88C181.768 196.559 182.013 196.119 182.251 195.67C182.463 195.216 182.721 194.785 183.019 194.383C183.217 194.142 183.456 193.884 183.71 193.609C183.965 193.334 184.25 193.042 184.55 192.743C185.155 192.158 185.809 191.51 186.473 190.891C186.806 190.583 187.127 190.269 187.447 189.97C187.767 189.672 188.076 189.385 188.371 189.114C188.953 188.567 189.469 188.09 189.862 187.749C190.349 187.324 190.869 186.941 191.418 186.602C191.883 186.322 192.286 185.95 192.602 185.509C192.757 185.292 192.885 185.056 192.983 184.808C193.071 184.592 193.12 184.363 193.129 184.13C193.144 183.929 193.104 183.726 193.014 183.546C192.923 183.365 192.785 183.213 192.614 183.106C192.698 182.606 192.849 182.119 193.061 181.659C193.3 181.108 193.577 180.575 193.89 180.062C194.547 178.956 195.384 177.764 196.245 176.518L196.572 176.053L196.893 175.579L197.538 174.626C197.755 174.309 197.961 173.987 198.165 173.665C198.368 173.343 198.568 173.023 198.763 172.705C198.958 172.388 199.136 172.066 199.312 171.75C199.488 171.433 199.654 171.119 199.81 170.81C199.966 170.501 200.101 170.193 200.236 169.89C200.371 169.587 200.481 169.291 200.584 169.002C200.729 168.827 200.875 168.652 200.995 168.47C201.116 168.289 201.247 168.103 201.365 167.916C201.599 167.541 201.813 167.158 202.012 166.769C202.212 166.379 202.38 165.977 202.546 165.575C202.629 165.374 202.708 165.172 202.786 164.969L202.901 164.666L203.009 164.359C203.154 163.949 203.288 163.539 203.425 163.131L203.63 162.521C203.697 162.317 203.764 162.112 203.829 161.909C203.964 161.504 204.107 161.101 204.265 160.705C204.343 160.507 204.411 160.308 204.497 160.111C204.583 159.913 204.658 159.719 204.746 159.525C204.906 159.195 205.084 158.874 205.279 158.564C205.463 158.257 205.621 157.936 205.752 157.603C205.852 157.328 205.941 157.017 206.024 156.7C206.107 156.382 206.17 156.025 206.242 155.675C206.315 155.326 206.388 154.944 206.453 154.58C206.491 154.395 206.526 154.208 206.562 154.023C206.599 153.839 206.638 153.653 206.679 153.47C206.97 152.224 207.261 151.062 207.531 149.959C207.655 149.402 207.773 148.86 207.874 148.324C207.976 147.788 208.049 147.26 208.103 146.736C208.321 146.395 208.513 146.037 208.676 145.665C208.82 145.322 208.941 144.969 209.038 144.609C209.129 144.268 209.201 143.922 209.253 143.573C209.3 143.229 209.329 142.889 209.349 142.548C209.37 142.208 209.381 141.878 209.39 141.546C209.399 141.214 209.39 140.883 209.405 140.554C209.419 140.225 209.424 139.896 209.45 139.566C209.461 139.401 209.479 139.236 209.498 139.07C209.517 138.905 209.536 138.74 209.563 138.573C209.659 138.068 209.792 137.571 209.962 137.086C210.133 136.569 210.255 136.037 210.325 135.497C210.35 135.259 210.36 135.019 210.356 134.78C210.356 134.54 210.331 134.299 210.315 134.048C210.27 133.546 210.27 133.042 210.315 132.54C210.377 132.011 210.474 131.488 210.606 130.973C210.667 130.711 210.728 130.45 210.776 130.191C210.82 129.937 210.848 129.681 210.858 129.423C210.863 129.076 210.84 128.73 210.788 128.387C210.769 128.226 210.749 128.069 210.739 127.916C210.723 127.764 210.719 127.611 210.725 127.458C210.753 127.098 210.809 126.742 210.893 126.391C210.926 126.224 210.957 126.054 210.977 125.873C210.987 125.782 210.996 125.69 210.999 125.592C211.002 125.494 210.999 125.39 210.989 125.283ZM67.9179 177.62C67.9063 177.43 68.0852 177.344 68.4997 177.784C68.3805 177.844 68.3848 177.947 68.4765 178.077C68.343 178.087 68.2107 178.045 68.1069 177.96C68.003 177.875 67.9354 177.754 67.9179 177.62V177.62ZM69.4336 178.388C69.6053 178.535 69.7929 178.69 69.9791 178.842L70.5493 179.3C70.7399 179.446 70.9275 179.609 71.1181 179.757C71.4783 180.035 71.8241 180.333 72.1538 180.648C72.433 180.899 72.6776 181.186 72.8811 181.502C73.124 181.723 73.076 180.835 73.5662 181.084C73.6549 181.255 73.7524 181.428 73.8644 181.603C73.9838 181.788 74.1129 181.965 74.2513 182.136C74.3968 182.316 74.5626 182.502 74.7503 182.692C74.8434 182.788 74.9437 182.885 75.0412 182.985C75.1386 183.084 75.2623 183.176 75.383 183.277C75.2536 183.467 75.0586 183.486 74.8288 183.415C74.5618 183.311 74.3091 183.173 74.0768 183.005C73.8332 182.835 73.5769 182.684 73.3102 182.553C73.0702 182.452 72.8651 182.42 72.7109 182.553C72.4594 182.269 72.1839 182.008 71.8876 181.772C71.7767 181.69 71.6541 181.626 71.5239 181.583C71.3927 181.539 71.2547 181.52 71.1166 181.526C70.8623 181.197 70.5811 180.89 70.2758 180.608C70.1478 180.494 70.0286 180.39 69.9136 180.295C69.7987 180.2 69.6882 180.112 69.5791 180.027C69.1427 179.689 68.7485 179.4 68.3412 178.747C68.9885 178.662 68.4387 178.273 68.942 177.939C69.0961 178.088 69.2605 178.235 69.4336 178.388Z" fill="#00B410"/>
</svg>
