<svg width="250" height="250" viewBox="0 0 250 250" fill="none" xmlns="http://www.w3.org/2000/svg">
<rect width="250" height="250" fill="white"/>
<g clip-path="url(#clip0_5506_328)">
<path fill-rule="evenodd" clip-rule="evenodd" d="M125.002 28C136.518 28 147.565 30.0064 157.811 33.69V79.0912C157.811 85.5179 152.6 90.7327 146.169 90.7327H102.527C91.8123 90.7327 83.1279 99.417 83.1279 110.132C83.1279 120.846 91.8157 129.531 102.527 129.531H146.169C152.6 129.531 157.811 134.742 157.811 141.172C157.811 147.602 152.6 152.813 146.169 152.813H102.527C94.9221 152.813 88.3833 157.078 85.0596 163.759L84.822 164.272C84.7609 164.401 84.7065 164.533 84.6522 164.665C84.5911 164.808 84.53 164.951 84.4893 165.056L84.3229 165.497L84.1464 165.993C84.0988 166.139 84.0479 166.288 84.0038 166.438C83.9563 166.594 83.9121 166.75 83.8646 166.906C83.8238 167.055 83.7831 167.208 83.7424 167.358C83.7016 167.514 83.6643 167.677 83.6269 167.833C83.5896 167.986 83.5556 168.142 83.5251 168.295C83.4945 168.451 83.464 168.61 83.4334 168.77C83.4063 168.926 83.3791 169.082 83.3553 169.242C83.3282 169.408 83.3044 169.571 83.2874 169.734C83.2671 169.894 83.2467 170.057 83.2331 170.216C83.2161 170.379 83.2026 170.546 83.189 170.712C83.1754 170.878 83.1652 171.041 83.1584 171.204C83.1482 171.37 83.1415 171.544 83.1415 171.656L83.1347 172.206V212.514C50.519 196.891 28 163.576 28 124.998C28 71.4287 71.4287 28 125.002 28ZM165.568 36.8677C166.023 37.0782 166.475 37.2921 166.93 37.506V37.5128C166.478 37.2955 166.023 37.0816 165.568 36.8711V36.8677ZM90.8888 215.824L91.5712 216.079V216.083C91.3404 216.001 91.1163 215.913 90.8888 215.824Z" fill="#00B6AB"/>
<path fill-rule="evenodd" clip-rule="evenodd" d="M165.569 36.8745C198.877 52.2368 222 85.9152 222 124.998C222 178.571 178.571 221.997 124.998 221.997C112.99 221.997 101.495 219.81 90.8855 215.821V172.212C90.8855 165.786 96.0968 160.571 102.527 160.571H146.17C156.884 160.571 165.569 151.883 165.569 141.172C165.569 130.461 156.884 121.773 146.17 121.773H102.527C96.1002 121.773 90.8855 116.562 90.8855 110.135C90.8855 103.705 96.0968 98.4936 102.527 98.4936H146.17C156.884 98.4936 165.569 89.8058 165.569 79.0946V36.8745Z" fill="#2A2C2E"/>
</g>
<defs>
<clipPath id="clip0_5506_328">
<rect width="194" height="194" fill="white" transform="translate(28 28)"/>
</clipPath>
</defs>
</svg>
