<svg width="70" height="70" viewBox="0 0 70 70" fill="none" xmlns="http://www.w3.org/2000/svg">
<g clip-path="url(#clip0_2005_2553)">
<path d="M58.48 25.8047H51.5508V58.3481H58.48V25.8047Z" fill="#FF7532" stroke="#FF7532" stroke-width="2.00229" stroke-linecap="round" stroke-linejoin="round"/>
<path d="M45.5933 36.8335H38.6641V58.3481H45.5933V36.8335Z" fill="#FF7532" stroke="#FF7532" stroke-width="2.00229" stroke-linecap="round" stroke-linejoin="round"/>
<path d="M32.7075 31.4985H25.7783V58.348H32.7075V31.4985Z" fill="#FF7532" stroke="#FF7532" stroke-width="2.00229" stroke-linecap="round" stroke-linejoin="round"/>
<path d="M19.8305 42.0981H12.9014V58.3392H19.8305V42.0981Z" fill="#FF7532" stroke="#FF7532" stroke-width="2.00229" stroke-linecap="round" stroke-linejoin="round"/>
<path d="M12.9014 34.8978L28.6256 18.718L41.2049 29.6418L54.1084 13.5059" stroke="#070851" stroke-width="2.00229" stroke-linecap="round" stroke-linejoin="round"/>
<path d="M12.9014 42.0981H19.8305V56.0791" stroke="#070851" stroke-width="2.00229" stroke-linecap="round" stroke-linejoin="round"/>
<path d="M38.6641 36.8335H45.602V56.0792" stroke="#070851" stroke-width="2.00229" stroke-linecap="round" stroke-linejoin="round"/>
<path d="M25.7783 31.4985H32.7162V56.0791" stroke="#070851" stroke-width="2.00229" stroke-linecap="round" stroke-linejoin="round"/>
<path d="M51.5508 25.8047H58.48V57.0078" stroke="#070851" stroke-width="2.00229" stroke-linecap="round" stroke-linejoin="round"/>
<path d="M6.38379 6.38379V62.9997H62.9997" stroke="#070851" stroke-width="2.00229" stroke-linecap="round" stroke-linejoin="round"/>
<path d="M49.6396 9.12549H58.4872V17.9731" stroke="#070851" stroke-width="2.00229" stroke-linecap="round" stroke-linejoin="round"/>
<path d="M19.8311 56.0791V58.348" stroke="#070851" stroke-width="2.00229" stroke-linecap="square" stroke-linejoin="round"/>
<path d="M32.7158 56.0791V58.348" stroke="#070851" stroke-width="2.00229" stroke-linecap="square" stroke-linejoin="round"/>
<path d="M45.6025 56.0791V58.348" stroke="#070851" stroke-width="2.00229" stroke-linecap="square" stroke-linejoin="round"/>
<path d="M58.4795 56.0791V58.348" stroke="#070851" stroke-width="2.00229" stroke-linecap="square" stroke-linejoin="round"/>
</g>
<defs>
<clipPath id="clip0_2005_2553">
<rect width="70" height="70" fill="white"/>
</clipPath>
</defs>
</svg>
