<svg width="70" height="70" viewBox="0 0 70 70" fill="none" xmlns="http://www.w3.org/2000/svg">
<g clip-path="url(#clip0_2005_2484)">
<path d="M55.0967 25.0801C60.6227 25.0801 65.0993 29.5566 65.0993 35.0827C65.0993 40.6088 60.6227 45.0854 55.0967 45.0854V25.0801Z" fill="#FF7532" stroke="#FF7532" stroke-width="2.12286" stroke-linecap="round" stroke-linejoin="round"/>
<path d="M15.0876 25.0801C9.56153 25.0801 5.08496 29.5566 5.08496 35.0827C5.08496 40.6088 9.56153 45.0854 15.0876 45.0854V25.0801Z" fill="#FF7532" stroke="#FF7532" stroke-width="2.12286" stroke-linecap="round" stroke-linejoin="round"/>
<path d="M59.2854 25.9995C62.7217 27.5877 65.0993 31.0612 65.0993 35.0827C65.0993 40.6088 60.6227 45.0854 55.0967 45.0854V25.0801" stroke="#070851" stroke-width="2.12286" stroke-linecap="round" stroke-linejoin="round"/>
<path d="M10.8613 26.0181C7.44352 27.6063 5.0752 31.0705 5.0752 35.092C5.0752 40.618 9.55176 45.0946 15.0778 45.0946V25.0894" stroke="#070851" stroke-width="2.12286" stroke-linecap="round" stroke-linejoin="round"/>
<path d="M15.0869 25.08C15.0869 14.0279 24.0401 5.07471 35.0922 5.07471C46.1443 5.07471 55.0975 14.0372 55.0975 25.08" stroke="#070851" stroke-width="2.12286" stroke-linecap="round" stroke-linejoin="round"/>
<path d="M39.9775 60.2148C48.327 60.2148 55.1069 53.4442 55.1069 45.0854" stroke="#070851" stroke-width="2.12286" stroke-linecap="round" stroke-linejoin="round"/>
<path d="M39.9775 60.2143C39.9775 62.9077 37.7949 65.0995 35.0923 65.0995C32.3896 65.0995 30.207 62.917 30.207 60.2143C30.207 57.5116 32.3896 55.3291 35.0923 55.3291C37.7949 55.3291 39.9775 57.5116 39.9775 60.2143Z" fill="white" stroke="white" stroke-width="9.02214" stroke-linecap="round" stroke-linejoin="round"/>
<path d="M39.9775 60.2143C39.9775 62.9077 37.7949 65.0995 35.0923 65.0995C32.3896 65.0995 30.207 62.917 30.207 60.2143C30.207 57.5116 32.3896 55.3291 35.0923 55.3291C37.7949 55.3291 39.9775 57.5116 39.9775 60.2143Z" fill="#FF7532" stroke="#070851" stroke-width="2.12286" stroke-linecap="round" stroke-linejoin="round"/>
<path d="M44.0543 42.0854C43.562 43.2464 42.8469 44.2959 41.9739 45.1782C41.0916 46.0605 40.0421 46.7664 38.8811 47.2586C37.7202 47.7508 36.4385 48.0202 35.0918 48.0202C33.7451 48.0202 32.4728 47.7508 31.3118 47.2586C30.1509 46.7664 29.1014 46.0512 28.2191 45.1782C27.3368 44.2959 26.6309 43.2464 26.1387 42.0854" stroke="#070851" stroke-width="2.12286" stroke-linecap="round" stroke-linejoin="round"/>
<path d="M41.1299 31.8877H44.9842" stroke="#070851" stroke-width="2.12286" stroke-linecap="round" stroke-linejoin="round"/>
<path d="M29.0555 31.8877H25.2012" stroke="#070851" stroke-width="2.12286" stroke-linecap="round" stroke-linejoin="round"/>
<path d="M35.1023 9.44922C26.8457 9.44922 20.1494 16.452 20.1494 25.0801H20.1587C20.1401 24.6714 20.1587 25.4887 20.1587 25.0801C24.4309 23.6405 26.9664 20.8636 28.666 17.4458C31.0343 22.266 37.9628 25.6931 45.012 25.6931C46.7581 25.6931 48.467 25.4795 50.0459 25.0894C50.0459 25.5073 50.0645 24.6715 50.0459 25.0894C50.0459 16.4613 43.3496 9.45852 35.093 9.45852L35.1023 9.44922Z" fill="#FF7532"/>
<path d="M50.0459 25.0894C48.467 25.4795 46.7581 25.6931 45.012 25.6931C37.9628 25.6931 31.0343 22.266 28.666 17.4458C26.9664 20.8636 24.4309 23.6405 20.1587 25.0801H20.1494C20.1494 16.452 26.8457 9.44922 35.1023 9.44922L35.093 9.45852C43.3496 9.45852 50.0459 16.4613 50.0459 25.0894ZM20.1587 25.0801C20.1401 24.6714 20.1587 25.4887 20.1587 25.0801ZM50.0459 25.0894C50.0459 25.5073 50.0645 24.6715 50.0459 25.0894Z" stroke="#FF7532" stroke-width="2.12286" stroke-linecap="round" stroke-linejoin="round"/>
<path d="M20.1782 25.0801H20.1689C20.1689 16.452 26.8652 9.44922 35.1218 9.44922C43.3784 9.44922 50.0747 16.452 50.0747 25.0801" stroke="#070851" stroke-width="2.12286" stroke-linecap="round" stroke-linejoin="round"/>
<path d="M50.0454 25.0801C48.4665 25.4702 46.7761 25.6838 45.0301 25.6838C37.9716 25.6838 31.0431 22.2567 28.6748 17.4365" stroke="#070851" stroke-width="2.12286" stroke-linecap="round" stroke-linejoin="round"/>
</g>
<defs>
<clipPath id="clip0_2005_2484">
<rect width="70" height="70" fill="white"/>
</clipPath>
</defs>
</svg>
