<svg width="70" height="70" viewBox="0 0 70 70" fill="none" xmlns="http://www.w3.org/2000/svg">
<g clip-path="url(#clip0_2005_2615)">
<path d="M58.6735 20.0142H44.0138C41.629 20.0142 39.7031 21.949 39.7031 24.3248V38.7055C39.7031 41.5672 42.0249 43.889 44.8867 43.889H44.9227L46.4886 65.1001H56.2346L57.8005 43.889C60.6622 43.889 62.984 41.5672 62.984 38.7055V24.3248C62.984 21.94 61.0493 20.0142 58.6735 20.0142Z" fill="#FF7532" stroke="#FF7532" stroke-width="2" stroke-linecap="round" stroke-linejoin="round"/>
<path d="M57.18 31.9557L47.1639 25.0894V29.184H39.7035H30.7314H23.2621V25.0894L13.2549 31.9557L23.2621 38.8131V34.7185H30.7314H39.7035H47.1639V38.8131L57.18 31.9557Z" fill="white"/>
<path d="M39.7031 29.1841H47.1635" stroke="#FF7532" stroke-width="2" stroke-linecap="round" stroke-linejoin="round"/>
<path d="M51.3033 15.5773C54.246 15.5773 56.6398 13.1835 56.6398 10.2318C56.6398 7.28002 54.246 4.88623 51.3033 4.88623C48.3605 4.88623 45.9668 7.28002 45.9668 10.2318C45.9668 13.1835 48.3605 15.5773 51.3033 15.5773Z" fill="white" stroke="white" stroke-width="2" stroke-linecap="round" stroke-linejoin="round"/>
<path d="M51.3033 15.5773C54.246 15.5773 56.6398 13.1835 56.6398 10.2318C56.6398 7.28002 54.246 4.88623 51.3033 4.88623C48.3605 4.88623 45.9668 7.28002 45.9668 10.2318C45.9668 13.1835 48.3605 15.5773 51.3033 15.5773Z" fill="#FF7532" stroke="#070851" stroke-width="2" stroke-linecap="round" stroke-linejoin="round"/>
<path d="M56.2344 65.1001H65.7826" stroke="#070851" stroke-width="2" stroke-linecap="round" stroke-linejoin="round"/>
<path d="M26.4205 20.0142H11.7608C9.37606 20.0142 7.4502 21.949 7.4502 24.3248V38.7055C7.4502 41.5672 9.772 43.889 12.6337 43.889L14.1996 65.1001H23.9457L25.5116 43.889H25.5476C28.4093 43.889 30.7311 41.5672 30.7311 38.7055V24.3248C30.7311 21.94 28.7963 20.0142 26.4205 20.0142Z" fill="white" stroke="white" stroke-width="2" stroke-linecap="round" stroke-linejoin="round"/>
<path d="M19.1314 15.5773C16.1886 15.5773 13.7949 13.1835 13.7949 10.2318C13.7949 7.28002 16.1886 4.88623 19.1314 4.88623C22.0741 4.88623 24.468 7.28002 24.468 10.2318C24.468 13.1835 22.0741 15.5773 19.1314 15.5773Z" fill="white" stroke="white" stroke-width="2" stroke-linecap="round" stroke-linejoin="round"/>
<path d="M19.1314 15.5773C16.1886 15.5773 13.7949 13.1835 13.7949 10.2318C13.7949 7.28002 16.1886 4.88623 19.1314 4.88623C22.0741 4.88623 24.468 7.28002 24.468 10.2318C24.468 13.1835 22.0741 15.5773 19.1314 15.5773Z" fill="white" stroke="#070851" stroke-width="2" stroke-linecap="round" stroke-linejoin="round"/>
<path d="M14.1995 65.1001H4.65137" stroke="#070851" stroke-width="2" stroke-linecap="round" stroke-linejoin="round"/>
<path d="M23.9463 65.1001H46.4893" stroke="#070851" stroke-width="2" stroke-linecap="round" stroke-linejoin="round"/>
<path d="M39.7035 29.184H30.7314H23.2621V25.0894L13.2549 31.9557L23.2621 38.8131V34.7185" stroke="#070851" stroke-width="2" stroke-linecap="round" stroke-linejoin="round"/>
<path d="M30.7314 34.7185H39.7036H47.164V38.8131L57.1801 31.9557L47.164 25.0894V29.184" stroke="#070851" stroke-width="2" stroke-linecap="round" stroke-linejoin="round"/>
<path d="M39.7031 38.4443V38.7053C39.7031 41.567 42.0249 43.8888 44.8867 43.8888H44.9227L46.4886 65.1" stroke="#070851" stroke-width="2" stroke-linejoin="round"/>
<path d="M56.2346 65.1001L57.8005 43.889C60.6622 43.889 62.984 41.5672 62.984 38.7055V24.3248C62.984 21.94 61.0493 20.0142 58.6735 20.0142H44.0138C41.629 20.0142 39.7031 21.949 39.7031 24.3248V29.1843" stroke="#070851" stroke-width="2" stroke-linecap="round" stroke-linejoin="round"/>
<path d="M30.7317 34.7188V38.7054C30.7317 41.5671 28.4099 43.8889 25.5482 43.8889H25.5123L23.9463 65.1001" stroke="#070851" stroke-width="2" stroke-linecap="round" stroke-linejoin="round"/>
<path d="M14.1996 65.1001L12.6337 43.889C9.772 43.889 7.4502 41.5672 7.4502 38.7055V24.3248C7.4502 21.94 9.38506 20.0142 11.7608 20.0142H26.4205C28.8053 20.0142 30.7311 21.949 30.7311 24.3248V25.4587" stroke="#070851" stroke-width="2" stroke-linejoin="round"/>
</g>
<defs>
<clipPath id="clip0_2005_2615">
<rect width="70" height="70" fill="white"/>
</clipPath>
</defs>
</svg>
