<svg width="70" height="70" viewBox="0 0 70 70" fill="none" xmlns="http://www.w3.org/2000/svg">
<g clip-path="url(#clip0_2005_2531)">
<path d="M18.1796 30.9082H13.8467" stroke="#070851" stroke-width="2.05897" stroke-linecap="round" stroke-linejoin="round"/>
<path d="M50.5004 30.917L46.2666 30.926" stroke="#070851" stroke-width="2.05897" stroke-linecap="round" stroke-linejoin="round"/>
<path d="M32.1868 12.5859L32.1777 16.8197" stroke="#070851" stroke-width="2.05897" stroke-linecap="round" stroke-linejoin="round"/>
<path d="M22.2514 40.8892L19.2246 43.9068" stroke="#070851" stroke-width="2.05897" stroke-linecap="round" stroke-linejoin="round"/>
<path d="M45.2212 17.9097L42.1494 20.9814" stroke="#070851" stroke-width="2.05897" stroke-linecap="round" stroke-linejoin="round"/>
<path d="M42.2041 40.8892L45.2308 43.9068" stroke="#070851" stroke-width="2.05897" stroke-linecap="round" stroke-linejoin="round"/>
<path d="M19.2344 17.9097L22.3061 20.9814" stroke="#070851" stroke-width="2.05897" stroke-linecap="round" stroke-linejoin="round"/>
<path d="M36.0243 47.3477H28.4307" stroke="#070851" stroke-width="2.05897" stroke-linecap="round" stroke-linejoin="round"/>
<path d="M28.2416 43.6817V43.0151C28.2416 38.1868 22.8818 36.9347 22.8818 30.8093C22.8818 25.6477 27.0706 21.459 32.2321 21.459C37.3937 21.459 41.5824 25.6477 41.5824 30.8093C41.5824 36.9347 36.2226 38.1868 36.2226 43.0151V43.6817H28.2506H28.2416Z" fill="#FF7532" stroke="#FF7532" stroke-width="2.05897" stroke-linecap="round" stroke-linejoin="round"/>
<path d="M34.1686 51.0142H30.2861" stroke="#070851" stroke-width="2.05897" stroke-linecap="round" stroke-linejoin="round"/>
<path d="M28.2416 43.6817V43.0151C28.2416 38.1868 22.8818 36.9347 22.8818 30.8093C22.8818 25.6477 27.0706 21.459 32.2321 21.459C37.3937 21.459 41.5824 25.6477 41.5824 30.8093C41.5824 36.9347 36.2226 38.1868 36.2226 43.0151V43.6817" stroke="#070851" stroke-width="2.05897" stroke-linecap="round" stroke-linejoin="round"/>
<path d="M15.8368 64.4V52.6445C15.8368 50.6267 15.0262 48.726 13.693 47.2217C9.32411 42.2673 6.89187 35.5654 7.64855 28.2869C8.82859 16.8828 18.0348 7.59553 29.4299 6.34342C44.3382 4.70396 56.9493 16.3333 56.9493 30.9082C56.9493 31.4307 56.9313 31.9441 56.8953 32.4486C56.8503 33.1872 56.9673 33.9259 57.3006 34.5925L62.9487 46.0236C63.5072 47.1587 62.8586 48.5189 61.6155 48.7891L58.0843 49.5638C57.2376 49.753 56.598 50.4646 56.5169 51.3294L55.7062 59.6257C55.445 62.3281 53.166 64.391 50.4546 64.391H39.8972C35.6635 64.391 32.2314 60.9589 32.2314 56.7251V55.6172" stroke="#070851" stroke-width="2.05897" stroke-linecap="round" stroke-linejoin="round"/>
</g>
<defs>
<clipPath id="clip0_2005_2531">
<rect width="70" height="70" fill="white"/>
</clipPath>
</defs>
</svg>
