<svg width="70" height="70" viewBox="0 0 70 70" fill="none" xmlns="http://www.w3.org/2000/svg">
<path d="M30.4999 49.2188H38.4999C38.4999 49.2188 38.2999 51.2687 38.6999 53.2687C38.9999 54.8187 40.1499 56.1687 41.7999 57.0187C42.2499 57.2687 42.0499 57.8187 41.4999 57.8187H19.3999C18.8499 57.8187 18.5999 57.2687 19.0999 57.0187C20.7999 56.1687 21.8999 54.7687 22.1999 53.2687C22.5999 51.2687 22.3999 49.2188 22.3999 49.2188H30.3999H30.4999Z" stroke="#070851" stroke-width="1.8" stroke-linecap="round" stroke-linejoin="round"/>
<path d="M31.0497 45.9191C31.0497 46.2191 30.7997 46.4691 30.4997 46.4691C30.1997 46.4691 29.9497 46.2191 29.9497 45.9191C29.9497 45.6191 30.1997 45.3691 30.4997 45.3691C30.7997 45.3691 31.0497 45.6191 31.0497 45.9191Z" stroke="#070851" stroke-width="1.8" stroke-linecap="round" stroke-linejoin="round"/>
<path d="M49.0503 49.2191H5.75029C4.25029 49.2191 3.05029 48.0191 3.05029 46.5191V42.6191H13.7003" stroke="#070851" stroke-width="1.8" stroke-linecap="round" stroke-linejoin="round"/>
<path d="M49 42.619H3V14.619C3 13.019 4.3 11.6689 5.95 11.6689H55.1C56.7 11.6689 58.05 12.969 58.05 14.619V28.2689" stroke="#070851" stroke-width="1.8" stroke-linecap="round" stroke-linejoin="round"/>
<path d="M65.2001 51.9688H50.8501" stroke="#070851" stroke-width="1.8" stroke-miterlimit="10"/>
<path d="M65.6 57.8688H50.4C49.65 57.8688 49 57.2688 49 56.4688V29.6188C49 28.8688 49.6 28.2188 50.4 28.2188H65.6C66.35 28.2188 67 28.8188 67 29.6188V56.4688C67 57.2188 66.4 57.8688 65.6 57.8688Z" stroke="#070851" stroke-width="1.8" stroke-miterlimit="10"/>
<path d="M58.5 54.9189C58.5 54.6689 58.3 54.4189 58 54.4189C57.7 54.4189 57.5 54.6189 57.5 54.9189C57.5 55.2189 57.7 55.4189 58 55.4189C58.3 55.4189 58.5 55.2189 58.5 54.9189Z" stroke="#070851" stroke-width="1.8" stroke-miterlimit="10"/>
<path d="M56.25 31.269H58H59.8" stroke="#070851" stroke-width="1.8" stroke-linecap="round" stroke-linejoin="round"/>
<path d="M40.1001 30.8691L47.9501 20.519" stroke="#FF7532" stroke-width="1.8" stroke-miterlimit="10"/>
<path d="M33.6499 27.269L36.7999 30.9191" stroke="#FF7532" stroke-width="1.8" stroke-miterlimit="10"/>
<path d="M26.75 31.319L30.25 27.269" stroke="#FF7532" stroke-width="1.8" stroke-miterlimit="10"/>
<path d="M20.5503 27.3188L23.5503 31.2689" stroke="#FF7532" stroke-width="1.8" stroke-miterlimit="10"/>
<path d="M13.9497 31.4188L17.0997 27.2188" stroke="#FF7532" stroke-width="1.8" stroke-miterlimit="10"/>
<path d="M21.35 25.7687C21.35 24.3687 20.2 23.2188 18.8 23.2188C17.4 23.2188 16.25 24.3687 16.25 25.7687C16.25 27.1687 17.4 28.3187 18.8 28.3187C20.2 28.3187 21.35 27.1687 21.35 25.7687Z" stroke="#FF7532" stroke-width="1.8" stroke-miterlimit="10"/>
<path d="M27.7001 32.9689C27.7001 31.5689 26.5501 30.4189 25.1501 30.4189C23.7501 30.4189 22.6001 31.5689 22.6001 32.9689C22.6001 34.3689 23.7501 35.5189 25.1501 35.5189C26.5501 35.5189 27.7001 34.3689 27.7001 32.9689Z" stroke="#FF7532" stroke-width="1.8" stroke-miterlimit="10"/>
<path d="M34.5497 25.7687C34.5497 24.3687 33.3997 23.2188 31.9997 23.2188C30.5997 23.2188 29.4497 24.3687 29.4497 25.7687C29.4497 27.1687 30.5997 28.3187 31.9997 28.3187C33.3997 28.3187 34.5497 27.1687 34.5497 25.7687Z" stroke="#FF7532" stroke-width="1.8" stroke-miterlimit="10"/>
<path d="M40.9999 32.4689C40.9999 31.0689 39.8499 29.9189 38.4499 29.9189C37.0499 29.9189 35.8999 31.0689 35.8999 32.4689C35.8999 33.8689 37.0499 35.0189 38.4499 35.0189C39.8499 35.0189 40.9999 33.8689 40.9999 32.4689Z" stroke="#FF7532" stroke-width="1.8" stroke-miterlimit="10"/>
<path d="M52.1 18.9191C52.1 17.5191 50.95 16.3691 49.55 16.3691C48.15 16.3691 47 17.5191 47 18.9191C47 20.3191 48.15 21.4691 49.55 21.4691C50.95 21.4691 52.1 20.3191 52.1 18.9191Z" stroke="#FF7532" stroke-width="1.8" stroke-miterlimit="10"/>
<path d="M14.9003 32.9689C14.9003 31.5689 13.7503 30.4189 12.3503 30.4189C10.9503 30.4189 9.80029 31.5689 9.80029 32.9689C9.80029 34.3689 10.9503 35.5189 12.3503 35.5189C13.7503 35.5189 14.9003 34.3689 14.9003 32.9689Z" stroke="#FF7532" stroke-width="1.8" stroke-miterlimit="10"/>
</svg>
