<svg width="70" height="70" viewBox="0 0 70 70" fill="none" xmlns="http://www.w3.org/2000/svg">
<path d="M42.2586 19.1474L33.0273 14.1353L13.8205 49.5099L23.0517 54.522L42.2586 19.1474Z" stroke="#070851" stroke-width="1.8" stroke-linecap="round" stroke-linejoin="round"/>
<path d="M43.1492 12.3259L37.4561 9.23879C36.4939 8.71759 35.251 9.07842 34.7298 10.0406L32.2441 14.5711L41.4653 19.5826L43.951 15.0522C44.4722 14.0899 44.1114 12.8471 43.1492 12.3259Z" stroke="#070851" stroke-width="1.8" stroke-miterlimit="10" stroke-linecap="round"/>
<path d="M37.0825 12.3397L35.9502 14.4165L40.9487 17.1418L42.081 15.065L37.0825 12.3397Z" fill="#FF7532"/>
<path d="M36.8547 17.0967L30.8809 28.122" stroke="#070851" stroke-width="1.8" stroke-miterlimit="10" stroke-linecap="round"/>
<path d="M13 49.9727L13.4009 60.5169L22.2212 54.9842L13 49.9727Z" stroke="#070851" stroke-width="1.8" stroke-linecap="round" stroke-linejoin="round"/>
<path d="M13.6416 60.5166H56.5002" stroke="#070851" stroke-width="1.8" stroke-linecap="round" stroke-linejoin="round"/>
<path d="M35.4917 54.9839H56.5001" stroke="#070851" stroke-width="1.8" stroke-linecap="round" stroke-linejoin="round"/>
<path d="M35.4917 49.4512H56.5001" stroke="#070851" stroke-width="1.8" stroke-linecap="round" stroke-linejoin="round"/>
</svg>
