<svg width="70" height="70" viewBox="0 0 70 70" fill="none" xmlns="http://www.w3.org/2000/svg">
<path d="M12.9498 32.2867H17.5781V47.8126H12.9498C10.5936 47.8126 8.7002 45.9192 8.7002 43.563V36.4943C8.7002 34.1381 10.5936 32.2446 12.9498 32.2446V32.2867Z" stroke="#070851" stroke-width="1.8" stroke-linecap="round" stroke-linejoin="round"/>
<path d="M19.8502 50.0846C18.5879 50.0846 17.5781 49.0748 17.5781 47.8125V32.3287C17.5781 31.0665 18.5879 30.0566 19.8502 30.0566C21.1125 30.0566 22.1223 31.0665 22.1223 32.3287V47.8125C22.1223 49.0748 21.1125 50.0846 19.8502 50.0846Z" stroke="#070851" stroke-width="1.8" stroke-linecap="round" stroke-linejoin="round"/>
<path d="M56.7504 47.8544H52.1221V32.3285H56.7504C59.1066 32.3285 61 34.2219 61 36.5781V43.6468C61 46.003 59.1066 47.8965 56.7504 47.8965V47.8544Z" stroke="#070851" stroke-width="1.8" stroke-linecap="round" stroke-linejoin="round"/>
<path d="M49.8502 50.0846C51.1124 50.0846 52.1223 49.0748 52.1223 47.8125V32.3287C52.1223 31.0665 51.1124 30.0566 49.8502 30.0566C48.5879 30.0566 47.5781 31.0665 47.5781 32.3287V47.8125C47.5781 49.0748 48.5879 50.0846 49.8502 50.0846Z" stroke="#070851" stroke-width="1.8" stroke-linecap="round" stroke-linejoin="round"/>
<path d="M56.2879 29.8041C56.2879 18.1492 46.8209 8.68213 35.1659 8.68213C23.511 8.68213 14.0439 18.1492 14.0439 29.8041" stroke="#070851" stroke-width="1.8" stroke-linecap="round" stroke-linejoin="round"/>
<path d="M56.2876 50.1689C56.2876 55.0918 52.2905 59.089 47.3676 59.089H41.7295" stroke="#FF7532" stroke-width="1.8" stroke-linecap="round" stroke-linejoin="round"/>
<path d="M39.1209 56.48H35.1658C33.7353 56.48 32.5571 57.6581 32.5571 59.0886C32.5571 60.5192 33.7353 61.6973 35.1658 61.6973H39.1209C40.5515 61.6973 41.7296 60.5192 41.7296 59.0886C41.7296 57.6581 40.5515 56.48 39.1209 56.48Z" stroke="#FF7532" stroke-width="1.8" stroke-linecap="round" stroke-linejoin="round"/>
</svg>
