<svg width="70" height="70" viewBox="0 0 70 70" fill="none" xmlns="http://www.w3.org/2000/svg">
<g clip-path="url(#clip0_2005_2578)">
<path d="M48.1957 4.99951H9.01221C6.79742 4.99951 5.00195 6.79495 5.00195 9.00974V42.1603C5.00195 44.3751 6.79742 46.1705 9.01221 46.1705H48.1957C50.4105 46.1705 52.206 44.3751 52.206 42.1603V9.00974C52.206 6.79495 50.4105 4.99951 48.1957 4.99951Z" fill="white"/>
<path d="M48.1957 4.99951H9.01221C6.79742 4.99951 5.00195 6.79495 5.00195 9.00974V42.1603C5.00195 44.3751 6.79742 46.1705 9.01221 46.1705H48.1957C50.4105 46.1705 52.206 44.3751 52.206 42.1603V9.00974C52.206 6.79495 50.4105 4.99951 48.1957 4.99951Z" stroke="white" stroke-width="2.01899" stroke-linecap="round" stroke-linejoin="round"/>
<path d="M39.7161 46.1705H9.00342C6.80398 46.1705 4.99316 44.3686 4.99316 42.1603V9.00095C4.99316 6.80151 6.79515 4.99072 9.00342 4.99072H48.1958C50.3952 4.99072 52.206 6.79268 52.206 9.00095V37.9381" fill="white"/>
<path d="M39.7161 46.1705H9.00342C6.80398 46.1705 4.99316 44.3686 4.99316 42.1603V9.00095C4.99316 6.80151 6.79515 4.99072 9.00342 4.99072H48.1958C50.3952 4.99072 52.206 6.79268 52.206 9.00095V37.9381" stroke="#070851" stroke-width="2.01899" stroke-linecap="round" stroke-linejoin="round"/>
<path d="M42.4131 27.8737C43.6458 20.2799 38.489 13.1247 30.8952 11.892C23.3014 10.6594 16.1462 15.816 14.9136 23.4099C13.6809 31.0037 18.8376 38.1589 26.4314 39.3916C34.0252 40.6242 41.1805 35.4675 42.4131 27.8737Z" fill="#FF7532" stroke="#FF7532" stroke-width="2.01899" stroke-linecap="round" stroke-linejoin="round"/>
<path d="M24.0293 19.2381C24.0293 18.664 24.4356 18.4343 24.9303 18.7169L35.9805 25.0944C36.4751 25.3771 36.4751 25.8453 35.9805 26.1367L24.9303 32.5143C24.4356 32.7969 24.0293 32.5672 24.0293 31.9931V19.2293V19.2381Z" fill="white"/>
<path d="M24.0293 19.2381C24.0293 18.664 24.4356 18.4343 24.9303 18.7169L35.9805 25.0944C36.4751 25.3771 36.4751 25.8453 35.9805 26.1367L24.9303 32.5143C24.4356 32.7969 24.0293 32.5672 24.0293 31.9931V19.2293V19.2381Z" stroke="#070851" stroke-width="2.01899" stroke-linecap="round" stroke-linejoin="round"/>
<path d="M65.0944 60.2503L57.7806 51.0109L63.5575 48.3522C64.0345 48.1225 63.9992 47.7515 63.478 47.5218L43.2856 38.6092C42.8616 38.4238 42.5966 38.6446 42.6849 39.0951L47.1986 60.7008C47.3135 61.2573 47.6668 61.3721 47.9936 60.9569L51.8007 55.8603L59.1144 65.0996L65.0944 60.2591V60.2503Z" fill="white" stroke="white" stroke-width="2.01899" stroke-linecap="round" stroke-linejoin="round"/>
<path d="M65.0945 60.2503L57.7806 51.0109L63.5575 48.3522C64.0345 48.1225 63.9992 47.7515 63.478 47.5218L43.2856 38.6092C42.8616 38.4238 42.5966 38.6446 42.6849 39.0951L47.1986 60.7008C47.3135 61.2573 47.6668 61.3721 47.9936 60.9569L51.8007 55.8603L59.1144 65.0996" stroke="#070851" stroke-width="2.01899" stroke-linecap="round" stroke-linejoin="round"/>
</g>
<defs>
<clipPath id="clip0_2005_2578">
<rect width="70" height="70" fill="white"/>
</clipPath>
</defs>
</svg>
